<?xml version="1.0" ?><svg id="Layer_1_1_" style="enable-background:new 0 0 64 64;" version="1.1" viewBox="0 0 64 64" xml:space="preserve" xmlns="http://www.w3.org/2000/svg" xmlns:xlink="http://www.w3.org/1999/xlink"><g/><path d="M57,2H7C4.243,2,2,4.243,2,7v38c0,2.757,2.243,5,5,5h18.719l-1.5,6H23c-2.757,0-5,2.243-5,5c0,0.553,0.448,1,1,1h26  c0.552,0,1-0.447,1-1c0-2.757-2.243-5-5-5h-1.219l-1.5-6H57c2.757,0,5-2.243,5-5V7C62,4.243,59.757,2,57,2z M7,4h50  c1.654,0,3,1.346,3,3v34H4V7C4,5.346,5.346,4,7,4z M43.829,60H20.171c0.413-1.164,1.525-2,2.829-2h2h14h2  C42.304,58,43.416,58.836,43.829,60z M37.719,56H26.281l1.5-6h8.438L37.719,56z M57,48H37H27H7c-1.654,0-3-1.346-3-3v-2h56v2  C60,46.654,58.654,48,57,48z"/><path d="M11,39h4c0.552,0,1-0.447,1-1v-6c0-0.379-0.214-0.725-0.553-0.895L14,30.382V14.644l4,1.2V25  c0,0.439,0.286,0.827,0.706,0.956l13,4C31.802,29.985,31.901,30,32,30s0.198-0.015,0.294-0.044l13-4C45.714,25.827,46,25.439,46,25  v-9.156l6.287-1.886C52.71,13.831,53,13.441,53,13s-0.29-0.831-0.713-0.958l-20-6c-0.187-0.057-0.388-0.057-0.574,0l-20,6  C11.29,12.169,11,12.559,11,13s0.29,0.831,0.713,0.958L12,14.044v16.338l-1.447,0.724C10.214,31.275,10,31.621,10,32v6  C10,38.553,10.448,39,11,39z M44,24.262l-12,3.692l-12-3.692v-7.818l11.713,3.514C31.806,19.986,31.903,20,32,20  s0.194-0.014,0.287-0.042L44,16.444V24.262z M32,8.044L48.52,13L32,17.956L15.48,13L32,8.044z M12,32.618l1-0.5l1,0.5V37h-2V32.618z  "/><rect height="2" width="2" x="56" y="37"/><rect height="2" width="2" x="52" y="37"/><rect height="2" width="2" x="48" y="37"/></svg>