<?xml version="1.0" ?><svg id="education" style="enable-background:new 0 0 64 64;" version="1.1" viewBox="0 0 64 64" xml:space="preserve" xmlns="http://www.w3.org/2000/svg" xmlns:xlink="http://www.w3.org/1999/xlink"><style type="text/css">
	.st0{fill:#E9EAEB;}
	.st1{fill:none;stroke:#BCC0C4;stroke-width:2;stroke-miterlimit:10;}
	.st2{fill:#A3D4FF;stroke:#2A5082;stroke-width:2;stroke-miterlimit:10;}
	.st3{fill:none;stroke:#2A5082;stroke-width:2;stroke-miterlimit:10;}
	.st4{fill:#FFFFFF;}
	.st5{fill:none;stroke:#2A5082;stroke-width:2;stroke-linecap:round;stroke-miterlimit:10;}
	.st6{fill:#FFFFFF;stroke:#2A5082;stroke-width:2;stroke-miterlimit:10;}
</style><circle class="st0" cx="31.5" cy="31.5" r="23.5"/><path class="st1" d="M7.2,15C12.6,7.4,21.5,2.4,31.6,2.4c9.6,0,18.1,4.6,23.6,11.6"/><path class="st1" d="M48,56.8c-4.7,3.1-10.4,5-16.4,5c-10.1,0-19-5-24.4-12.7"/><path class="st2" d="M48,28.6c0-3.7-7.2-6.7-16-6.7s-16,3-16,6.7c0,1.6,0,11.8,0,13.4c1,3,8.1,6,17,6s14.3-4.1,15-6  C48,40.4,48,30.2,48,28.6z"/><line class="st3" x1="20" x2="20" y1="30" y2="42"/><path class="st4" d="M34.2,14.2c-1-0.3-2.1-0.3-3.1,0L1,22.9v3.1l30.2,9.2c0.9,0.3,1.8,0.3,2.6,0L63,26.1v-3.1L34.2,14.2z"/><path class="st3" d="M58.3,27.6l4.7-1.6v-3.1l-28.8-8.7c-1-0.3-2.1-0.3-3.1,0L1,22.9v3.1l30.2,9.2c0.9,0.3,1.8,0.3,2.6,0l20.2-6.4"/><path class="st5" d="M32.9,22.6l20.8,6.1C55,29.1,56,30.4,56,32l0,8"/><path class="st6" d="M60,52l-3-10h-2l-3,10c-0.3,1,0.9,2,2,2h4C59.1,54,60.3,53,60,52z"/><path class="st2" d="M59,40c0,1.7-1.4,3-3,3c-1.7,0-3-1.3-3-3c0-1.7,1.4-3,3-3C57.7,37,59,38.3,59,40z"/></svg>