<?xml version="1.0" ?><svg data-name="Multimedia 3" height="60" id="Multimedia_3" viewBox="0 0 60 60" width="60" xmlns="http://www.w3.org/2000/svg"><title/><rect height="34" style="fill:#ffd599" width="50" x="5.0004" y="3.03"/><path d="M55.00049,38.03027h-50a.99974.99974,0,0,1-1-1v-34a.99974.99974,0,0,1,1-1h50a.99974.99974,0,0,1,1,1v34A.99974.99974,0,0,1,55.00049,38.03027Zm-49-2h48v-32h-48Z" style="fill:#6d6daa"/><polyline points="8 37.03 8 6.03 52 6.03 52 37.03" style="fill:#9eb2cc"/><rect height="3" style="fill:#2c4b75;opacity:0.2" width="43.99994" x="8.00043" y="6.02997"/><path d="M52.00049,38.03027a.99974.99974,0,0,1-1-1v-30h-42v30a1,1,0,0,1-2,0v-31a.99974.99974,0,0,1,1-1h44a.99974.99974,0,0,1,1,1v31A.99974.99974,0,0,1,52.00049,38.03027Z" style="fill:#6d6daa"/><path d="M18.00049,60h-8a1,1,0,0,1,0-2h8a1,1,0,0,1,0,2Z" style="fill:#6d6daa"/><path d="M50.00049,60h-8a1,1,0,0,1,0-2h8a1,1,0,0,1,0,2Z" style="fill:#6d6daa"/><rect height="4" style="fill:#fff" width="10" x="37.0004" y="33.03"/><path d="M47.00049,38.03027h-10a.99974.99974,0,0,1-1-1v-4a.99974.99974,0,0,1,1-1h10a.99974.99974,0,0,1,1,1v4A.99974.99974,0,0,1,47.00049,38.03027Zm-9-2h8v-2h-8Z" style="fill:#6d6daa"/><path d="M41.00049,28h-23a1,1,0,0,1,0-2h23a1,1,0,0,1,0,2Z" style="fill:#fff"/><path d="M23.25049,22h-4.5a1,1,0,0,1,0-2h4.5a1,1,0,0,1,0,2Z" style="fill:#fff"/><path d="M24.00049,24a1.00032,1.00032,0,0,1-.93652-.64844l-2.06348-5.50391L18.937,23.35156a1.00034,1.00034,0,0,1-1.873-.70312l3-8a1.00052,1.00052,0,0,1,1.873,0l3,8A.99991.99991,0,0,1,24.00049,24Z" style="fill:#fff"/><path d="M30.00049,20h-2a.99974.99974,0,0,1-1-1V15a.99974.99974,0,0,1,1-1h2a3,3,0,0,1,0,6Zm-1-2h1a1,1,0,0,0,0-2h-1Z" style="fill:#fff"/><path d="M30.00049,24h-2a.99974.99974,0,0,1-1-1V19a.99974.99974,0,0,1,1-1h2a3,3,0,0,1,0,6Zm-1-2h1a1,1,0,0,0,0-2h-1Z" style="fill:#fff"/><path d="M39.00049,24.03027h-1a3.00328,3.00328,0,0,1-3-3v-4a3.00328,3.00328,0,0,1,3-3h1a3.00328,3.00328,0,0,1,3,3,1,1,0,1,1-2,0,1.001,1.001,0,0,0-1-1h-1a1.001,1.001,0,0,0-1,1v4a1.001,1.001,0,0,0,1,1h1a1.001,1.001,0,0,0,1-1,1,1,0,0,1,2,0A3.00328,3.00328,0,0,1,39.00049,24.03027Z" style="fill:#fff"/><polygon points="20.536 51.03 22.846 47.03 37.155 47.03 39.464 51.03 20.536 51.03" style="fill:#d6b5b0"/><polygon points="48.702 59.03 38.31 41.03 33.691 41.03 44.083 59.03 48.702 59.03" style="fill:#d6b5b0"/><polygon points="15.917 59.03 26.31 41.03 21.691 41.03 11.299 59.03 15.917 59.03" style="fill:#d6b5b0"/><path d="M39.46436,52.03027H20.53613a1,1,0,0,1-.86621-1.5l2.30957-4a.99985.99985,0,0,1,.86621-.5H37.15527a.99985.99985,0,0,1,.86621.5l2.30908,4a1,1,0,0,1-.86621,1.5Zm-17.19629-2H37.73242l-1.1543-2H23.42285Z" style="fill:#6d6daa"/><path d="M48.70215,60.03027H44.0835a.99985.99985,0,0,1-.86621-.5l-10.39258-18a1,1,0,0,1,.86621-1.5h4.61865a.99985.99985,0,0,1,.86621.5l10.39258,18a1,1,0,0,1-.86621,1.5Zm-4.0415-2h2.30957l-9.23779-16H35.42285Z" style="fill:#6d6daa"/><path d="M15.91748,60.03027H11.29883a1,1,0,0,1-.86621-1.5l10.39209-18a.99985.99985,0,0,1,.86621-.5h4.61865a1,1,0,0,1,.86621,1.5l-10.39209,18A.99985.99985,0,0,1,15.91748,60.03027Zm-2.88672-2h2.30957l9.2373-16H22.26807Z" style="fill:#6d6daa"/><path d="M3.0004,41.03v-2a2,2,0,0,1,2-2h50a2,2,0,0,1,2,2v2Z" style="fill:#ffd599"/><path d="M57.00049,42.03027h-54a.99974.99974,0,0,1-1-1v-2a3.00328,3.00328,0,0,1,3-3h50a3.00328,3.00328,0,0,1,3,3v2A.99974.99974,0,0,1,57.00049,42.03027Zm-53-2h52v-1a1.001,1.001,0,0,0-1-1h-50a1.001,1.001,0,0,0-1,1Z" style="fill:#6d6daa"/></svg>