<?xml version="1.0" ?><!DOCTYPE svg  PUBLIC '-//W3C//DTD SVG 1.1//EN'  'http://www.w3.org/Graphics/SVG/1.1/DTD/svg11.dtd'><svg height="256px" style="shape-rendering:geometricPrecision; text-rendering:geometricPrecision; image-rendering:optimizeQuality; fill-rule:evenodd; clip-rule:evenodd" version="1.1" viewBox="0 0 42642 44029" width="248px" xml:space="preserve" xmlns="http://www.w3.org/2000/svg" xmlns:xlink="http://www.w3.org/1999/xlink"><defs><style type="text/css">
   <![CDATA[
    .str1 {stroke:#105286;stroke-width:687.953}
    .str2 {stroke:white;stroke-width:687.953}
    .str0 {stroke:#105286;stroke-width:687.953;stroke-linecap:round;stroke-linejoin:round}
    .fil2 {fill:none}
    .fil4 {fill:#00DCAB}
    .fil9 {fill:#3FE4C0}
    .fil7 {fill:#53B4ED}
    .fil1 {fill:#C2C2C2}
    .fil0 {fill:#E6E6E6}
    .fil6 {fill:#FF576B}
    .fil5 {fill:#FFD027}
    .fil8 {fill:#FFDA54}
    .fil3 {fill:white}
   ]]>
  </style></defs><g id="Layer_x0020_1"><g id="_404537936"><path class="fil0" d="M5667 40212l2208 0c2525,0 2525,-3818 0,-3818l-5981 0c-2525,0 -2525,-3818 0,-3818l5859 0c2526,0 2526,-3818 0,-3818l-2104 0c-2525,0 -2525,-3817 0,-3817l10482 0 3729 0 5684 0c2525,0 2525,3817 0,3817l-1053 0c-2525,0 -2525,3818 0,3818l2869 0c2526,0 2526,3818 0,3818l-2990 0c-2525,0 -2525,3818 0,3818l919 0c2525,0 2525,3817 0,3817l-5429 0 -3729 0 -10464 0c-2525,0 -2525,-3817 0,-3817z"/><path class="fil1" d="M17090 24940l19659 0c2526,0 2525,3818 0,3818l-1960 0c-2668,0 -2904,3818 292,3818l5513 0c2526,0 2525,3818 0,3818l-7942 0c-2525,0 -2525,3818 0,3818l1922 0c2525,0 2525,3817 0,3817l-17484 0 -1053 0c-2526,0 -2526,-3817 0,-3817l1053 0c2542,0 2648,-3818 0,-3818l-4496 0c-2526,0 -2526,-3818 0,-3818l3258 0c2796,86 3127,-3818 0,-3818l-1991 0c-2525,0 -2525,-3817 0,-3817l3229 0 0 -1zm22121 15272l-11 0c-1050,0 -1909,858 -1909,1908l0 0c0,1050 859,1909 1909,1909l11 0c1050,0 1909,-859 1909,-1909l0 0c0,-1050 -859,-1908 -1909,-1908z"/></g><g id="_404532728"><path class="fil2 str0" d="M3279 1686c22,-299 272,-534 593,-534 321,0 595,258 594,576l-11 6190c-2,1023 -1604,1020 -1604,0 0,-79 14,-156 40,-227 -90,30 -187,47 -287,47 -496,0 -898,-404 -898,-901 0,-152 38,-296 104,-421 -541,-5 -979,-466 -979,-1034 0,-481 314,-885 739,-1000 -232,-194 -380,-492 -380,-827 0,-572 434,-1038 976,-1057 -110,-670 581,-1127 1113,-812z"/><path class="fil2 str0" d="M1570 4382c59,66 692,610 1387,105"/><path class="fil2 str0" d="M2166 2498c0,0 93,465 542,616"/><path class="fil2 str0" d="M2201 6031c-111,70 -287,177 -391,385"/><path class="fil2 str0" d="M3271 7311c-154,28 -313,182 -380,380"/><path class="fil2 str0" d="M4468 7918c2,1023 1605,1020 1605,0 0,-79 -15,-156 -41,-227 90,30 187,47 288,47 495,0 897,-404 897,-901 0,-152 -37,-296 -103,-421 541,-5 978,-466 978,-1034 0,-481 -313,-885 -738,-1000 231,-194 379,-492 379,-827 0,-572 -434,-1038 -976,-1057 111,-670 -581,-1127 -1112,-812 -22,-299 -272,-534 -593,-534 -322,0 -596,258 -595,576"/><path class="fil2 str0" d="M7354 4382c-59,66 -692,610 -1388,105"/><path class="fil2 str0" d="M6757 2498c0,0 -92,465 -541,616"/><path class="fil2 str0" d="M6722 6031c111,70 288,177 392,385"/><path class="fil2 str0" d="M5652 7311c155,28 314,182 380,380"/></g><path class="fil3" d="M13557 19090c-7528,1880 -5742,18270 5275,19260l-20 -72c-3178,-1603 -5753,-6422 -5307,-14461 0,0 234,-2042 194,-4206l-142 -521z"/><path class="fil4" d="M13699 20667c-4948,442 -5004,13103 2795,15795 -3142,-3499 -3231,-11235 -2795,-15795z"/><path class="fil2 str1" d="M13557 19090c-7528,1880 -5742,18270 5275,19260"/><g id="_404512088"><path class="fil3" d="M13475 23817c0,0 872,-7597 -1037,-9014 -1910,-1418 -558,-3716 -558,-3716 0,0 793,1685 2467,1264 1614,-406 5057,-1203 6882,1519 1825,-2722 5268,-1925 6882,-1519 1674,421 2467,-1264 2467,-1264 0,0 1352,2298 -558,3716 -1909,1417 -1037,9014 -1037,9014 557,10028 -3588,15048 -7739,15060 -4161,12 -8327,-5008 -7769,-15060z"/><path class="fil5" d="M13106 13476c1130,1227 1399,3577 1468,5369 63,1624 -10,3463 -193,5086 -194,3609 198,7636 1946,10576 1195,2011 2941,3295 4915,3290 1970,-6 3708,-1296 4898,-3306 1740,-2940 2130,-6957 1937,-10560 -183,-1623 -256,-3462 -194,-5086 69,-1792 339,-4142 1469,-5369 -404,67 -820,47 -1237,-58 -1811,-456 -4630,-980 -6008,1076l-878 1310 -878 -1310c-1378,-2056 -4197,-1532 -6008,-1076 -417,105 -833,125 -1237,58z"/></g><path class="fil3" d="M28932 19090c7527,1880 5742,18270 -5275,19260l20 -72c3177,-1603 5753,-6422 5306,-14461 0,0 -234,-2042 -194,-4206l143 -521z"/><path class="fil4" d="M28789 20667c4948,442 5004,13103 -2795,15795 3142,-3499 3231,-11235 2795,-15795z"/><path class="fil2 str1" d="M28932 19090c7527,1880 5742,18270 -5275,19260"/><path class="fil2 str1" d="M13475 23817c0,0 872,-7597 -1037,-9014 -1910,-1418 -558,-3716 -558,-3716 0,0 793,1685 2467,1264 1614,-406 5057,-1203 6882,1519 1825,-2722 5268,-1925 6882,-1519 1674,421 2467,-1264 2467,-1264 0,0 1352,2298 -558,3716 -1909,1417 -1037,9014 -1037,9014 557,10028 -3588,15048 -7739,15060 -4161,12 -8327,-5008 -7769,-15060z"/><g id="_404538152"><path class="fil3" d="M19056 23640c18,1550 577,2952 2173,4100 1595,-1148 2155,-2550 2173,-4100l-2173 -2355 -2173 2355z"/><path class="fil2 str1" d="M19056 23640c18,1550 577,2952 2173,4100 1595,-1148 2155,-2550 2173,-4100l-2173 -2355 -2173 2355z"/><path class="fil6" d="M20039 23967c9,969 316,1847 1190,2565 874,-718 1180,-1596 1190,-2565l-1190 -1474 -1190 1474z"/></g><g id="_404539040"><g><path class="fil3" d="M27467 14462c2619,0 4741,2122 4741,4741 0,2618 -2122,4740 -4741,4740 -2618,0 -4740,-2122 -4740,-4740 0,-2619 2122,-4741 4740,-4741z"/><path class="fil2 str1" d="M27467 14462c2619,0 4741,2122 4741,4741 0,2618 -2122,4740 -4741,4740 -2618,0 -4740,-2122 -4740,-4740 0,-2619 2122,-4741 4740,-4741z"/><path class="fil7" d="M27467 16275c1618,0 2929,1310 2929,2928 0,1617 -1311,2928 -2929,2928 -1617,0 -2928,-1311 -2928,-2928 0,-1618 1311,-2928 2928,-2928z"/><path class="fil3" d="M26433 17319c583,0 1056,473 1056,1056 0,583 -473,1056 -1056,1056 -583,0 -1056,-473 -1056,-1056 0,-583 473,-1056 1056,-1056z"/><path class="fil2 str1" d="M27467 16275c1618,0 2929,1310 2929,2928 0,1617 -1311,2928 -2929,2928 -1617,0 -2928,-1311 -2928,-2928 0,-1618 1311,-2928 2928,-2928z"/><path class="fil2 str1" d="M27467 17878c732,0 1325,593 1325,1325 0,731 -593,1324 -1325,1324 -731,0 -1324,-593 -1324,-1324 0,-732 593,-1325 1324,-1325z"/></g><g><path class="fil3" d="M14990 14462c2619,0 4741,2122 4741,4741 0,2618 -2122,4740 -4741,4740 -2618,0 -4740,-2122 -4740,-4740 0,-2619 2122,-4741 4740,-4741z"/><path class="fil2 str1" d="M14990 14462c2619,0 4741,2122 4741,4741 0,2618 -2122,4740 -4741,4740 -2618,0 -4740,-2122 -4740,-4740 0,-2619 2122,-4741 4740,-4741z"/><path class="fil7" d="M14990 16275c1618,0 2929,1310 2929,2928 0,1617 -1311,2928 -2929,2928 -1617,0 -2928,-1311 -2928,-2928 0,-1618 1311,-2928 2928,-2928z"/><path class="fil3" d="M13956 17319c583,0 1056,473 1056,1056 0,583 -473,1056 -1056,1056 -583,0 -1056,-473 -1056,-1056 0,-583 473,-1056 1056,-1056z"/><path class="fil2 str1" d="M14990 16275c1618,0 2929,1310 2929,2928 0,1617 -1311,2928 -2929,2928 -1617,0 -2928,-1311 -2928,-2928 0,-1618 1311,-2928 2928,-2928z"/><path class="fil2 str1" d="M14990 17878c732,0 1325,593 1325,1325 0,731 -593,1324 -1325,1324 -731,0 -1324,-593 -1324,-1324 0,-732 593,-1325 1324,-1325z"/></g></g><g id="_404539904"><polygon class="fil3" points="35344,41520 35344,37504 9502,37504 9502,41520 "/><polygon class="fil3" points="9210,41520 4795,40340 4795,38685 9210,37504 "/><polygon class="fil3" points="4795,40340 839,39512 4795,38685 "/><polygon class="fil6" points="10622,40543 10622,38482 34225,38482 34225,40543 "/><polyline class="fil2 str1" points="9210,37504 4795,38685 4795,40340 9210,41520 "/><polyline class="fil2 str1" points="4795,40340 839,39512 4795,38685 "/><polygon class="fil8" points="8242,40278 8242,38747 5825,39197 5825,39828 "/><polygon class="fil2 str1" points="35344,41520 35344,37504 9502,37504 9502,41520 "/><path class="fil3" d="M35344 41520l0 -4016 1700 0c616,0 1119,464 1119,1032l0 1952c0,569 -503,1032 -1119,1032l-1700 0z"/><path class="fil2 str1" d="M35344 41520l0 -4016 1700 0c616,0 1119,464 1119,1032l0 1952c0,569 -503,1032 -1119,1032l-1700 0z"/><path class="fil6" d="M36251 40596l0 -2168 606 0c219,0 398,250 398,557l0 1054c0,307 -179,557 -398,557l-606 0z"/></g><g id="_404525336"><polygon class="fil2 str1" points="30845,1339 41178,1339 41178,7848 30845,7848 "/><g><g><line class="fil2 str1" x1="31986" x2="34817" y1="2645" y2="2645"/><line class="fil2 str1" x1="31986" x2="34817" y1="3920" y2="3920"/><line class="fil2 str1" x1="31986" x2="34817" y1="5195" y2="5195"/><line class="fil2 str1" x1="31986" x2="33969" y1="6471" y2="6471"/></g><g><line class="fil2 str1" x1="37206" x2="40037" y1="2645" y2="2645"/><line class="fil2 str1" x1="37206" x2="40037" y1="3920" y2="3920"/><line class="fil2 str1" x1="37206" x2="40037" y1="5195" y2="5195"/><line class="fil2 str1" x1="37206" x2="39190" y1="6471" y2="6471"/></g></g><line class="fil2 str1" x1="36012" x2="36012" y1="1339" y2="6763"/></g><g id="_404533160"><g><line class="fil2 str1" x1="17288" x2="17288" y1="37504" y2="40212"/><line class="fil2 str1" x1="15955" x2="15955" y1="37504" y2="40212"/><line class="fil2 str1" x1="14622" x2="14622" y1="37504" y2="40212"/></g><g><line class="fil2 str1" x1="27866" x2="27866" y1="37504" y2="40212"/><line class="fil2 str1" x1="26533" x2="26533" y1="37504" y2="40212"/><line class="fil2 str1" x1="25200" x2="25200" y1="37504" y2="40212"/></g></g><path class="fil2 str1" d="M10513 6161l409 409m1115 -409l-409 409m-706 706l-409 409m1115 -409l409 409"/><path class="fil2 str1" d="M35710 10272l409 408m1114 -408l-409 409m-705 705l-409 409m1114 -409l409 409"/><path class="fil2 str1" d="M40817 37462l409 409m1114 -409l-409 409m-705 706l-409 409m1114 -409l409 409"/><path class="fil2 str1" d="M3028 29931c373,0 675,302 675,675 0,372 -302,674 -675,674 -372,0 -674,-302 -674,-674 0,-373 302,-675 674,-675z"/><path class="fil4" d="M38325 14171c-172,0 -343,0 -514,0l-313 1291 -291 103c-289,104 -558,260 -793,459l-235 200 -1276 -375c-85,149 -171,297 -256,445l961 917 -55 303c-28,151 -41,305 -41,459 0,154 13,308 41,459l55 303 -961 917c85,148 171,296 256,445l1276 -375 235 200c235,199 504,355 794,459l290 104 313 1290c171,0 342,0 514,0l313 -1291 290 -103c290,-104 559,-260 794,-459l235 -200 1275 375c86,-149 172,-297 257,-445l-961 -917 55 -303c27,-151 41,-305 41,-459 0,-154 -14,-308 -41,-459l-55 -303 961 -917c-85,-148 -171,-296 -257,-445l-1275 375 -235 -200c-235,-199 -504,-355 -794,-459l-290 -103 -313 -1291zm-257 1885c1059,0 1917,858 1917,1917 0,1059 -858,1917 -1917,1917 -1059,0 -1917,-858 -1917,-1917 0,-1059 858,-1917 1917,-1917z"/><path class="fil2 str1" d="M38068 16627c743,0 1346,603 1346,1346 0,743 -603,1346 -1346,1346 -743,0 -1346,-603 -1346,-1346 0,-743 603,-1346 1346,-1346z"/><path class="fil2 str1" d="M39121 15027c358,128 686,320 971,562l1411 -414c235,407 470,815 706,1223l-1064 1014c33,182 50,369 50,561 0,191 -17,379 -50,561l1064 1014c-236,408 -471,816 -706,1223l-1411 -414c-285,242 -613,434 -971,562l-347 1428c-471,0 -942,0 -1412,0l-347 -1428c-358,-128 -686,-320 -971,-562l-1411 414c-235,-407 -471,-815 -706,-1223l1064 -1014c-33,-182 -51,-370 -51,-561 0,-192 18,-379 51,-561l-1064 -1014c235,-408 471,-816 706,-1223l1411 414c285,-242 613,-434 971,-562l347 -1428c470,0 941,0 1412,0l347 1428z"/><g id="_404515592"><path class="fil5" d="M21244 344c1854,0 3357,1503 3357,3357 0,1283 -719,2397 -1776,2962l0 1986c0,514 -420,933 -933,933l-1296 0c-513,0 -933,-419 -933,-933l0 -1986c-1057,-565 -1776,-1679 -1776,-2962 0,-1854 1503,-3357 3357,-3357z"/><path class="fil2 str1" d="M21244 344c1854,0 3357,1503 3357,3357 0,1283 -719,2397 -1776,2962l0 1986c0,514 -420,933 -933,933l-1296 0c-513,0 -933,-419 -933,-933l0 -1986c-1057,-565 -1776,-1679 -1776,-2962 0,-1854 1503,-3357 3357,-3357z"/><line class="fil2 str1" x1="21244" x2="21244" y1="3984" y2="7988"/><line class="fil2 str2" x1="22545" x2="19943" y1="3984" y2="3984"/><line class="fil2 str1" x1="22825" x2="19663" y1="7988" y2="7988"/><line class="fil2 str1" x1="21244" x2="21244" y1="9582" y2="10891"/></g><path class="fil9" d="M7378 13604l0 2670 -457 0c-175,-274 -481,-455 -830,-455 -543,0 -984,441 -984,984 0,543 441,984 984,984 349,0 655,-181 830,-454l457 0 0 2669 -2669 0 0 630c273,175 454,481 454,829 0,544 -440,984 -984,984 -543,0 -983,-440 -983,-984 0,-348 181,-654 454,-829l0 -630 -2669 0 0 -2669 567 0c174,273 481,454 829,454 543,0 984,-441 984,-984 0,-543 -441,-984 -984,-984 -348,0 -655,181 -829,455l-567 0 0 -2670 2669 0 0 -630c-273,-175 -454,-481 -454,-829 0,-544 440,-984 983,-984 544,0 984,440 984,984 0,348 -181,654 -454,829l0 630 2669 0z"/><path class="fil2 str0" d="M7378 13604l0 2670 -457 0c-175,-274 -481,-455 -830,-455 -543,0 -984,441 -984,984 0,543 441,984 984,984 349,0 655,-181 830,-454l457 0 0 2669 -2669 0 0 630c273,175 454,481 454,829 0,544 -440,984 -984,984 -543,0 -983,-440 -983,-984 0,-348 181,-654 454,-829l0 -630 -2669 0 0 -2669 567 0c174,273 481,454 829,454 543,0 984,-441 984,-984 0,-543 -441,-984 -984,-984 -348,0 -655,181 -829,455l-567 0 0 -2670 2669 0 0 -630c-273,-175 -454,-481 -454,-829 0,-544 440,-984 983,-984 544,0 984,440 984,984 0,348 -181,654 -454,829l0 630 2669 0z"/><line class="fil2 str1" x1="1029" x2="1029" y1="21301" y2="23666"/><line class="fil2 str1" x1="6834" x2="6834" y1="21301" y2="22483"/><path class="fil2 str1" d="M10060 1291c372,0 674,302 674,674 0,373 -302,675 -674,675 -373,0 -675,-302 -675,-675 0,-372 302,-674 675,-674z"/><path class="fil2 str1" d="M41448 23994c372,0 674,302 674,674 0,372 -302,674 -674,674 -373,0 -674,-302 -674,-674 0,-372 301,-674 674,-674z"/><path class="fil2 str1" d="M260 41626l409 409m1114 -409l-409 409m-705 706l-409 409m1114 -409l409 409"/><path class="fil2 str1" d="M28420 7569c372,0 674,302 674,674 0,372 -302,674 -674,674 -373,0 -675,-302 -675,-674 0,-372 302,-674 675,-674z"/></g></svg>