<?xml version="1.0" ?><!DOCTYPE svg  PUBLIC '-//W3C//DTD SVG 1.1//EN'  'http://www.w3.org/Graphics/SVG/1.1/DTD/svg11.dtd'><svg enable-background="new 0 0 512 512" height="512px" id="Layer_1" version="1.1" viewBox="0 0 512 512" width="512px" xml:space="preserve" xmlns="http://www.w3.org/2000/svg" xmlns:xlink="http://www.w3.org/1999/xlink"><path d="M256.071,194.96c35.545,0,66.748-40.872,66.748-87.494c0-42.958-28.047-74.105-66.748-74.105  c-38.758,0-66.86,31.147-66.86,74.105C189.209,154.088,220.47,194.96,256.071,194.96z M474.214,365.945L392.188,219.06  c0,0-13.474-25.594-45.41-26.665h-35.347c-14.63,15.672-33.346,26.073-55.332,26.073c-22.043,0-40.76-10.401-55.445-26.073h-35.432  c-31.965,1.071-45.438,26.665-45.438,26.665L37.815,365.945c-4.285,6.428-6.82,14.037-6.82,22.268  c0,22.072,17.813,39.887,39.913,39.887c5.187,0,10.146-0.93,14.656-2.733l58.123-17.42l-4.284,70.692h233.11l-4.199-70.692  l58.094,17.42c4.566,1.805,9.473,2.733,14.714,2.733c22.016,0,39.887-17.813,39.887-39.887  C481.007,379.982,478.497,372.373,474.214,365.945z M364.114,328.484l-7.555-2.595c-55.67-16.377-77.347,57.222-21.646,73.654  l1.747,0.424l-80.701,26.806l-80.7-26.806l1.86-0.424c55.642-16.434,34.021-90.031-21.648-73.654l-7.667,2.595V258.27  c0,0,57.841-10.316,108.155,35.291c41.634-43.126,108.155-35.291,108.155-35.291V328.484z" fill="#4D4D4D"/></svg>