<?xml version="1.0" ?><!DOCTYPE svg  PUBLIC '-//W3C//DTD SVG 1.1//EN'  'http://www.w3.org/Graphics/SVG/1.1/DTD/svg11.dtd'><svg enable-background="new 0 0 512 512" height="512px" id="Layer_1" version="1.1" viewBox="0 0 512 512" width="512px" xml:space="preserve" xmlns="http://www.w3.org/2000/svg" xmlns:xlink="http://www.w3.org/1999/xlink"><g><path d="M419.877,111.558L279.565,32.466c-0.17-0.113-0.395-0.113-0.592-0.226   c-0.647-0.311-1.324-0.451-2.029-0.677c-0.789-0.169-1.551-0.395-2.34-0.451c-0.17,0-0.338-0.112-0.535-0.112   c-29.737,0-54.682,16.038-63.336,37.995c-29.455,1.24-53.778,18.012-60.996,40.533c-35.176,1.55-63.307,25.17-63.307,54.259   v226.931c0,4.061,2.199,7.779,5.693,9.753l140.258,79.093c1.719,0.958,3.606,1.438,5.522,1.438c1.945,0,3.892-0.508,5.639-1.551   c3.438-2.001,5.553-5.693,5.553-9.668v-226.96c0-4.059-2.171-7.779-5.693-9.78l-133.688-75.314   c3.749-14.206,20.464-25.03,40.87-25.904l2.649,1.494l129.095,72.778V407.32l-0.226-0.113v25.679l5.918,3.354   c1.721,0.959,3.609,1.438,5.525,1.438c1.973,0,3.891-0.507,5.637-1.521c3.439-2.03,5.582-5.694,5.582-9.668V199.556   c0-4.059-2.199-7.779-5.723-9.752l-128.672-72.553l0.227-0.057c3.748-14.206,20.463-25.029,40.87-25.903l2.648,1.494   l129.095,72.778v201.224l-0.226-0.112v25.678l5.92,3.354c1.72,0.986,3.607,1.438,5.523,1.438c1.945,0,3.891-0.507,5.639-1.521   c3.438-2.001,5.554-5.693,5.554-9.668V159.023c0-4.059-2.173-7.779-5.695-9.752L231.788,77.028   c5.018-12.909,20.49-22.634,39.63-23.423l2.649,1.466l129.095,72.778v201.225l-0.226-0.085v25.678l5.92,3.354   c1.72,0.958,3.607,1.438,5.496,1.438c1.974,0,3.918-0.507,5.664-1.55c3.438-2.002,5.553-5.694,5.553-9.642V121.31   C425.571,117.279,423.372,113.559,419.877,111.558z" fill="#4D4D4D"/></g></svg>