<?xml version="1.0" ?><!DOCTYPE svg  PUBLIC '-//W3C//DTD SVG 1.1//EN'  'http://www.w3.org/Graphics/SVG/1.1/DTD/svg11.dtd'><svg enable-background="new 0 0 512 512" height="512px" id="Layer_1" version="1.1" viewBox="0 0 512 512" width="512px" xml:space="preserve" xmlns="http://www.w3.org/2000/svg" xmlns:xlink="http://www.w3.org/1999/xlink"><g><path d="M212.286,118.745c-7.328,7.272-7.272,18.941-0.057,26.242c7.272,7.272,18.998,7.272,26.327,0.056   c7.216-7.244,7.271-19.026,0-26.241C231.284,111.473,219.558,111.473,212.286,118.745z" fill="#4D4D4D"/><path d="M346.399,203.53c-14.545-4.933-30.387,2.875-35.234,17.448c-4.961,14.573,2.932,30.272,17.42,35.177   c14.488,4.848,30.271-2.903,35.178-17.419C368.666,224.191,360.887,208.491,346.399,203.53z" fill="#4D4D4D"/><path d="M466.473,185.66l-1.014-9.442c0-0.197-0.113-0.958-0.17-1.127c-0.281-2.255-0.619-4.51-1.014-6.652   c-4.172-24.945-11.557-45.465-22.607-62.715c-3.664-5.778-7.836-11.19-12.232-16.094c-3.156-3.439-6.596-6.793-10.26-9.978   c-2.199-1.889-4.566-3.749-6.482-5.158c-8.568-6.793-17.928-12.825-27.85-17.955c-4.51-2.312-9.188-4.51-14.092-6.539   c-3.496-1.466-7.104-2.819-10.711-4.087c-21.479-7.582-46.453-12.43-76.33-14.826c-0.338-0.028-0.732-0.028-1.072-0.056L278.637,31   c-22.549,0-44.196,3.044-64.322,9.02c-11.387,3.354-22.38,7.78-32.696,13.079c-3.383,1.747-6.652,3.607-9.922,5.581   c-2.424,1.494-4.848,3.044-7.328,4.735c-5.581,3.805-10.993,8.062-16.18,12.627c-0.62,0.564-1.184,1.156-1.747,1.804   c-4.003,4.735-8.625,10.401-13.079,16.179c-5.976,7.723-11.105,15.08-15.672,22.493c-5.073,8.174-9.471,16.461-13.078,24.72   c-4.341,9.95-7.441,19.505-9.527,29.229c-0.395,2.029-0.451,4.144-0.169,6.201c0.112,0.732,0.395,2.255,0.902,4.115   c0.507,1.804,1.24,3.551,2.424,5.976l1.409,2.706c2.763,5.187,3.101,6.455,2.424,8.259l-1.184,2.875   c-4.679,5.074-9.414,10.147-14.149,15.221l-37.319,39.687c-2.988,3.214-4.679,7.413-4.679,11.81c0,4.651,1.635,9.303,4.51,12.797   c0.226,0.311,0.507,0.592,0.732,0.874c4.059,4.341,9.302,6.343,13.98,8.175c6.709,2.648,7.836,3.721,8.287,5.496   c0.395,3.945-0.789,7.385-4.341,12.797l-1.184,1.832c-4.115,6.482-2.875,15.531,2.255,21.28c0.112,0.142,0.282,0.339,0.451,0.536   c-5.807,5.835-6.709,15.108-1.86,21.985c0.507,0.705,0.901,1.438,1.071,2.114c0.676,1.973,0.563,4.453-2.03,10.429l-1.353,3.129   c-3.552,8.033-8.005,18.039-3.833,30.075c4.791,12.655,17.419,14.911,25.48,16.376l2.932,0.564   c6.99,1.493,13.586,2.255,21.478,3.072c4.792,0.507,9.584,1.015,14.094,1.775l3.777,0.677c6.934,1.438,12.12,3.27,16.687,5.947   c1.353,0.817,2.875,1.438,4.453,1.832c7.779,1.974,12.346,15.137,11.895,34.304c-0.112,4.65,1.635,9.132,4.904,12.43   c3.214,3.298,7.667,5.187,12.29,5.187h181.07c5.018,0,9.811-2.227,13.08-6.061c5.186-6.06,4.115-12.74,3.777-14.967   c-0.34-1.86-1.24-7.582-1.186-11.105l0.057-3.664c0.227-11.162,0.564-23.817,0.902-34.388c0.17-5.046,0.395-9.584,0.621-13.191   c1.014-6.004,2.535-11.472,4.791-17.223c3.045-7.948,7.271-16.122,12.965-24.973c6.484-10.147,14.264-20.182,21.762-29.878   l8.682-11.275c4.961-6.511,8.85-11.895,12.176-16.912c1.465-2.113,2.818-4.228,4.059-6.312c1.635-2.594,3.213-5.215,4.736-7.865   c5.523-9.865,9.471-19.279,12.062-28.778c1.016-3.016,1.805-5.355,2.48-7.638c0.564-1.86,1.016-3.693,1.523-5.694   C467.037,224.586,468.221,206.096,466.473,185.66z M235.85,174.16l-5.75,15.672c-3.214,0.282-6.483,0.282-9.696,0l-5.75-15.672   c-4.003-1.127-7.949-2.706-11.726-4.961l-15.165,6.962c-2.48-2.058-4.735-4.397-6.877-6.849l7.046-15.165   c-2.198-3.636-3.833-7.554-4.848-11.754l-15.615-5.806c-0.339-3.185-0.282-6.483,0-9.696l15.672-5.694   c1.07-4.144,2.649-8.062,4.961-11.81l-7.047-15.108c2.086-2.48,4.341-4.792,6.877-6.878l15.165,7.047   c3.664-2.114,7.61-3.777,11.782-4.848l5.806-15.728c3.214-0.169,6.483-0.169,9.641,0.056l5.862,15.756   c4.003,0.986,7.893,2.593,11.669,4.848l15.165-7.019c2.424,2.17,4.791,4.454,6.877,6.962l-7.045,15.136   c2.084,3.58,3.775,7.554,4.848,11.782l15.672,5.75c0.225,3.242,0.225,6.483,0,9.668l-15.842,5.835   c-0.957,4.031-2.594,8.062-4.791,11.697l6.934,15.108c-2.086,2.508-4.396,4.792-6.877,6.962l-15.109-7.103   C244.024,171.482,240.078,173.089,235.85,174.16z M417.203,264.441l-24.975,0.564c-3.381,5.299-7.609,10.26-12.514,14.375   l2.705,24.805c-4.227,2.48-8.568,4.622-13.021,6.482l-18.152-17.193c-6.145,1.296-12.572,1.804-18.998,1.296l-15.559,19.393   c-4.736-1.184-9.357-2.733-13.812-4.595l-0.619-25.001c-5.355-3.438-10.203-7.639-14.318-12.458l-24.861,2.705   c-2.48-4.229-4.623-8.568-6.482-13.051l17.307-18.18c-1.354-6.145-1.861-12.487-1.354-18.941L253.1,209.027   c1.24-4.707,2.763-9.301,4.679-13.812l24.973-0.648c3.383-5.271,7.555-10.119,12.516-14.263l-2.762-24.86   c4.17-2.509,8.512-4.566,13.078-6.398l18.152,17.166c6.088-1.296,12.457-1.776,18.828-1.296l15.672-19.421   c4.734,1.184,9.357,2.678,13.811,4.679l0.621,24.917c5.355,3.438,10.146,7.61,14.318,12.515l24.805-2.734   c2.48,4.2,4.68,8.512,6.482,13.079l-17.193,18.124c1.297,6.145,1.805,12.543,1.24,18.998l19.561,15.503   C420.641,255.338,419.119,259.961,417.203,264.441z" fill="#4D4D4D"/></g></svg>