<?xml version="1.0" ?><svg id="Layer_1" style="enable-background:new 0 0 72 72;" version="1.1" viewBox="0 0 72 72" xml:space="preserve" xmlns="http://www.w3.org/2000/svg" xmlns:xlink="http://www.w3.org/1999/xlink"><style type="text/css">
	.st0{fill:#D5E3EF;}
	.st1{fill:#C3D6E7;}
	.st2{fill:#4C9CD6;}
	.st3{fill:#70B7E5;}
	.st4{fill:#90CEF1;}
	.st5{fill:#3689C9;}
	.st6{fill:#1470B8;}
	.st7{fill:#B0C4D9;}
	.st8{fill:#99B5CD;}
	.st9{fill:#310E31;}
	.st10{fill:#82A7C4;}
	.st11{fill:#585B67;}
	.st12{fill:#444751;}
	.st13{fill:#676A75;}
	.st14{fill:#3E414A;}
	.st15{fill:#6C9ABB;}
	.st16{fill:#B0C9DC;}
	.st17{fill:#E2E7F0;}
	.st18{fill:#ECF0F9;}
	.st19{fill:#F04B4D;}
	.st20{fill:#DE333F;}
	.st21{fill:#3BB54A;}
	.st22{fill:#C61C31;}
	.st23{fill:#FFCB5B;}
	.st24{fill:#FFE278;}
	.st25{fill:#F6B545;}
	.st26{fill:#FFCA5D;}
	.st27{fill:#8F9093;}
	.st28{fill:#F19920;}
	.st29{fill:#FFFFFF;}
	.st30{fill:#259B48;}
	.st31{fill:#1E8943;}
	.st32{fill:#80C56D;}
	.st33{fill:#F04D4E;}
	.st34{fill:#0C8040;}
	.st35{fill:#C9D5E3;}
	.st36{fill:#DD353F;}
	.st37{fill:#0E9347;}
	.st38{fill:#F48476;}
	.st39{fill:#AD1F31;}
</style><g><g><path class="st0" d="M66,65v-6c0-2.2,1.8-4,4-4H38c-2.2,0-4,1.8-4,4v6c0,2.2,1.8,4,4,4h32C67.8,69,66,67.2,66,65z"/></g><g><polygon class="st1" points="66.1,68 45,68 39,56 66.1,56   "/></g><g><path class="st2" d="M34,65v-6c0-2.2,1.8-4,4-4H6c-2.2,0-4,1.8-4,4v6c0,2.2,1.8,4,4,4h32C35.8,69,34,67.2,34,65z"/></g><g><path class="st3" d="M6,55h32c-1.9,0-3.4,1.3-3.9,3h-32C2.6,56.3,4.1,55,6,55z"/></g><g><path class="st4" d="M2.6,57h32c0.7-1.2,2-2,3.4-2H6C4.5,55,3.3,55.8,2.6,57z"/></g><g><path class="st5" d="M6,69h32c-1.9,0-3.4-1.3-3.9-3h-32C2.6,67.7,4.1,69,6,69z"/></g><g><path class="st6" d="M6,69h32c-1.5,0-2.7-0.8-3.4-2h-32C3.3,68.2,4.5,69,6,69z"/></g><g><path class="st7" d="M38,55c-1.9,0-3.4,1.3-3.9,3h1c-0.1,0.3-0.2,0.6-0.2,1v6c0,1.3,0.8,2.4,2,2.8V60c0-1.1,0.9-2,2-2h27.1    c0.4-1.7,2-3,3.9-3H38z"/></g><g><polygon class="st8" points="39,56 40,58 66.1,58 66.1,56   "/></g><g><path class="st6" d="M30,63H18c-0.6,0-1-0.4-1-1l0,0c0-0.6,0.4-1,1-1h12c0.6,0,1,0.4,1,1l0,0C31,62.6,30.6,63,30,63z"/></g><g><path class="st6" d="M14,63h-2c-0.6,0-1-0.4-1-1l0,0c0-0.6,0.4-1,1-1h2c0.6,0,1,0.4,1,1l0,0C15,62.6,14.6,63,14,63z"/></g><g><path class="st1" d="M55.5,64h-16c-0.3,0-0.5-0.2-0.5-0.5l0,0c0-0.3,0.2-0.5,0.5-0.5h16c0.3,0,0.5,0.2,0.5,0.5l0,0    C56,63.8,55.8,64,55.5,64z"/></g><g><path class="st7" d="M55.5,63h-13l0.5,1h12.5c0.3,0,0.5-0.2,0.5-0.5C56,63.2,55.8,63,55.5,63z"/></g><g><path class="st7" d="M65.5,66h-14c-0.3,0-0.5-0.2-0.5-0.5l0,0c0-0.3,0.2-0.5,0.5-0.5h14c0.3,0,0.5,0.2,0.5,0.5l0,0    C66,65.8,65.8,66,65.5,66z"/></g><g><path class="st7" d="M57.5,62h-12c-0.3,0-0.5-0.2-0.5-0.5l0,0c0-0.3,0.2-0.5,0.5-0.5h12c0.3,0,0.5,0.2,0.5,0.5l0,0    C58,61.8,57.8,62,57.5,62z"/></g><g><path class="st7" d="M65.5,60H44c-0.3,0-0.5-0.2-0.5-0.5l0,0c0-0.3,0.2-0.5,0.5-0.5h21.5c0.3,0,0.5,0.2,0.5,0.5l0,0    C66,59.8,65.8,60,65.5,60z"/></g><path class="st9" d="M70,68c-1.7,0-3-1.3-3-3v-6c0-1.7,1.3-3,3-3c0.6,0,1-0.4,1-1s-0.4-1-1-1H38H6c-2.8,0-5,2.2-5,5v6   c0,2.8,2.2,5,5,5h32h32c0.6,0,1-0.4,1-1S70.6,68,70,68z M6,68c-1.7,0-3-1.3-3-3v-6c0-1.7,1.3-3,3-3h28h0c-0.6,0.8-1,1.9-1,3v6   c0,1.1,0.4,2.2,1,3h0H6z M66,68H38c-1.7,0-3-1.3-3-3v-6c0-1.7,1.3-3,3-3h28c-0.6,0.8-1,1.9-1,3v6C65,66.1,65.4,67.2,66,68z"/></g><g><path class="st21" d="M35.7,4.8C34.4,6.1,33.8,8,34,10c1.9,0.2,3.8-0.4,5.2-1.7C40.6,6.9,41.1,5,40.9,3C39,2.8,37.1,3.4,35.7,4.8z"/><path class="st9" d="M34.7,11c-0.3,0-0.6,0-0.8,0c-0.5,0-0.8-0.4-0.9-0.9c-0.2-2.3,0.5-4.5,2-6l0,0c1.5-1.5,3.7-2.3,6-2   c0.5,0,0.8,0.4,0.9,0.9c0.2,2.3-0.5,4.5-2,6C38.6,10.3,36.7,11,34.7,11z M40,4c-1.4,0-2.6,0.6-3.5,1.5l0,0C35.5,6.4,35,7.6,35,9   c1.4,0,2.6-0.6,3.5-1.5C39.4,6.6,39.9,5.4,40,4z M35.7,4.8L35.7,4.8L35.7,4.8z"/></g><g><path class="st9" d="M34,11c-0.6,0-1-0.4-1-1V3c0-0.6,0.4-1,1-1s1,0.4,1,1v7C35,10.6,34.6,11,34,11z"/></g><g><path class="st20" d="M40,9c-1.2,0-2.3,0.3-3.3,0.8c-1.4,0.7-3.1,0.7-4.5,0C31.3,9.3,30.2,9,29,9c-5,0-9,5.4-9,12c0,6.6,4,12,9,12   c1.2,0,2.3-0.3,3.3-0.8c1.4-0.7,3.1-0.7,4.5,0c1,0.5,2.1,0.8,3.3,0.8c5,0,9-5.4,9-12C49,14.4,45,9,40,9z"/></g><g><path class="st22" d="M48,21c0-4.4-1.9-8.3-4.7-10c-1.3-0.8-2.8,0.7-2.1,2v0c1.1,2,1.8,4.8,1.8,8c0,3-0.6,5.7-1.6,7.7   c-0.7,1.3-2.2,2-3.6,1.7c-0.2-0.1-0.4-0.1-0.5-0.2c-0.8-0.4-1.8-0.7-2.7-0.7s-1.9,0.2-2.7,0.7c-0.9,0.5-2.1,0.5-3.1,0.3   c-0.8-0.1-1.8-0.6-2.5-0.9c-1-0.4-1.6-0.6-2.7-0.6c1.4,1.9,3.4,3,5.5,3c1,0,1.9-0.2,2.8-0.7c0.8-0.4,1.8-0.7,2.7-0.7   s1.9,0.2,2.7,0.7c0.6,0.3,1.2,0.5,1.8,0.6h0c0,0,0,0,0,0C39.4,32,39.7,32,40,32c0.3,0,0.7,0,1-0.1c0,0,0.1,0,0.1,0   c0.3-0.1,0.6-0.1,0.9-0.2c0,0,0,0,0,0l0,0C45.4,30.4,48,26.1,48,21z"/></g><g><g><path class="st17" d="M35,42c-2.2,0-4-1.8-4-4s1.8-4,4-4h21.5c-1,1.1-1.5,2.5-1.5,4s0.6,2.9,1.5,4H35z"/></g><g><path class="st7" d="M37.5,34H35c-0.3,0-0.5,0-0.8,0.1c-0.2,0-0.3,0.1-0.5,0.1c-0.1,0-0.1,0-0.2,0.1c-0.2,0.1-0.4,0.2-0.6,0.3    c0,0,0,0,0,0c-1.4,0.9-2.3,2.6-1.8,4.5c0.1,0.5,0.4,1,0.7,1.4c0.5,0.7,1.6,0.3,1.6-0.6V39c0-1.7,1.3-3,3-3H39h16.6l0.9-2H37.5z"/></g><g><path class="st25" d="M30,38c0-2.8,2.2-5,5-5H14c-2.8,0-5,2.2-5,5s2.2,5,5,5h21C32.2,43,30,40.8,30,38z"/></g><g><path class="st23" d="M9.4,36h21c0.8-1.8,2.5-3,4.6-3H14C12,33,10.2,34.2,9.4,36z"/></g><g><path class="st28" d="M14,43h21c-2.4,0-4.4-1.7-4.9-4h-21C9.6,41.3,11.6,43,14,43z"/></g><path class="st9" d="M61,42c-2.2,0-4-1.8-4-4s1.8-4,4-4c0.6,0,1-0.4,1-1s-0.4-1-1-1H35H14c-3.3,0-6,2.7-6,6s2.7,6,6,6h21h26   c0.6,0,1-0.4,1-1S61.6,42,61,42z M14,42c-2.2,0-4-1.8-4-4s1.8-4,4-4h16.5h0c-1,1.1-1.5,2.5-1.5,4s0.6,2.9,1.5,4h0H14z M56.5,42H35   c-2.2,0-4-1.8-4-4s1.8-4,4-4h21.5c-1,1.1-1.5,2.5-1.5,4S55.6,40.9,56.5,42z"/></g><g><g><path class="st29" d="M12,49c0,3.3-2.7,6-6,6h28c3.3,0,6-2.7,6-6s-2.7-6-6-6H6C9.3,43,12,45.7,12,49z"/></g><g><polygon class="st0" points="39,54 20,54 14,44 39,44   "/></g><g><path class="st0" d="M27.5,46h-16c-0.3,0-0.5-0.2-0.5-0.5l0,0c0-0.3,0.2-0.5,0.5-0.5h16c0.3,0,0.5,0.2,0.5,0.5l0,0    C28,45.8,27.8,46,27.5,46z"/></g><g><path class="st0" d="M20.5,52h-9c-0.3,0-0.5-0.2-0.5-0.5l0,0c0-0.3,0.2-0.5,0.5-0.5h9c0.3,0,0.5,0.2,0.5,0.5l0,0    C21,51.8,20.8,52,20.5,52z"/></g><g><path class="st1" d="M20.5,51h-2.3l0.6,1h1.7c0.3,0,0.5-0.2,0.5-0.5C21,51.2,20.8,51,20.5,51z"/></g><g><path class="st1" d="M27.5,45H14.6l0.6,1h12.3c0.3,0,0.5-0.2,0.5-0.5C28,45.2,27.8,45,27.5,45z"/></g><g><path class="st21" d="M40,49c0,3.3-2.7,6-6,6h28c3.3,0,6-2.7,6-6s-2.7-6-6-6H34C37.3,43,40,45.7,40,49z"/></g><g><path class="st30" d="M39.7,51c-0.8,2.3-3,4-5.7,4h28c2.6,0,4.8-1.7,5.7-4H39.7z"/></g><g><path class="st31" d="M38.4,53c-1.1,1.2-2.7,2-4.4,2h28c1.8,0,3.3-0.8,4.4-2H38.4z"/></g><g><path class="st32" d="M38.4,45c-1.1-1.2-2.7-2-4.4-2h28c1.8,0,3.3,0.8,4.4,2H38.4z"/></g><path class="st9" d="M62,42H34H6c-0.6,0-1,0.4-1,1s0.4,1,1,1c2.8,0,5,2.2,5,5s-2.2,5-5,5c-0.6,0-1,0.4-1,1s0.4,1,1,1h28h28   c3.9,0,7-3.1,7-7S65.9,42,62,42z M13,49c0-2-0.8-3.7-2.1-5H34c2.8,0,5,2.2,5,5s-2.2,5-5,5H10.9C12.2,52.7,13,51,13,49z M62,54H38.9   h0c1.3-1.3,2.1-3,2.1-5s-0.8-3.7-2.1-5h0H62c2.8,0,5,2.2,5,5S64.8,54,62,54z"/></g><polygon class="st33" points="31,49 31,58 28,56 25,58 25,49 "/><g><path class="st34" d="M54,50h-9c-0.6,0-1-0.4-1-1l0,0c0-0.6,0.4-1,1-1h9c0.6,0,1,0.4,1,1l0,0C55,49.6,54.6,50,54,50z"/></g><g><circle class="st34" cx="58" cy="49" r="1"/></g><g><circle class="st34" cx="61" cy="49" r="1"/></g><g><path class="st35" d="M49.5,38h-12c-0.3,0-0.5-0.2-0.5-0.5l0,0c0-0.3,0.2-0.5,0.5-0.5h12c0.3,0,0.5,0.2,0.5,0.5l0,0   C50,37.8,49.8,38,49.5,38z"/></g><g><path class="st35" d="M53.5,40h-12c-0.3,0-0.5-0.2-0.5-0.5l0,0c0-0.3,0.2-0.5,0.5-0.5h12c0.3,0,0.5,0.2,0.5,0.5l0,0   C54,39.8,53.8,40,53.5,40z"/></g><g><path class="st36" d="M28,49v6c0.2,0,0.4,0.1,0.6,0.2l1.4,1V49H28z"/></g><g><path class="st37" d="M40,4C40,4,40,4,40,4c-1.4,0-2.6,0.5-3.5,1.4C35.5,6.4,35,7.6,35,9c0,0,0,0,0,0L40,4z"/></g><g><g><path class="st19" d="M34.5,12.4c-0.3,0-0.5-0.2-0.5-0.5s0.2-0.5,0.5-0.5c0.9,0,1.9-0.2,2.7-0.7C38.1,10.2,39,10,40,10    c0.3,0,0.5,0.2,0.5,0.5S40.3,11,40,11c-0.8,0-1.6,0.2-2.3,0.6C36.7,12.1,35.6,12.4,34.5,12.4z"/></g></g><g><path class="st19" d="M25.2,14.6c-0.7,1.8-1.2,4-1.2,6.4c0,0,0,0.1,0,0.1c0,1.1,0.9,1.9,1.9,1.9h1.1c1.1,0,1.9-0.9,1.9-2   c0,0,0,0,0,0c0-3.6,0.3-6.9,1.1-8.9c0.2-0.5,0.8-0.7,1.3-0.5l0,0c0.2,0.1,0.5,0,0.7-0.2c0.1-0.2,0-0.5-0.2-0.7   c-0.2-0.1-0.3-0.2-0.5-0.2c0.1-0.1,0.2-0.2,0.2-0.2c-0.4-0.2-0.9-0.3-1.3-0.3c-0.2,0-0.4,0-0.6,0.1c-2.1-0.2-4.3,0.7-5.9,2.6   c0,0,0,0,0,0C24.8,13,25.5,13.6,25.2,14.6z"/></g><g><path class="st9" d="M40,34c-1.3,0-2.5-0.3-3.7-0.9c-1.1-0.6-2.5-0.6-3.5,0C31.5,33.7,30.3,34,29,34c-5.5,0-10-5.8-10-13   S23.5,8,29,8c1.3,0,2.5,0.3,3.7,0.9c1.1,0.6,2.5,0.6,3.5,0C37.5,8.3,38.7,8,40,8c5.5,0,10,5.8,10,13S45.5,34,40,34z M34.5,30.6   c0.9,0,1.9,0.2,2.7,0.7C38.1,31.8,39,32,40,32c4.4,0,8-4.9,8-11s-3.6-11-8-11c-1,0-1.9,0.2-2.8,0.7c-1.7,0.9-3.7,0.9-5.4,0   C30.9,10.2,30,10,29,10c-4.4,0-8,4.9-8,11s3.6,11,8,11c1,0,1.9-0.2,2.8-0.7C32.6,30.9,33.6,30.6,34.5,30.6z"/></g><g><g><path class="st38" d="M36,12.2c-0.2,0-0.4-0.2-0.5-0.4c-0.1-0.3,0.1-0.5,0.4-0.6c0.5-0.1,0.9-0.3,1.3-0.5c0.2-0.1,0.4-0.2,0.6-0.3    c0.3-0.1,0.5,0,0.6,0.3c0.1,0.3,0,0.5-0.3,0.6c-0.2,0.1-0.3,0.1-0.5,0.2c-0.5,0.3-1,0.4-1.5,0.6C36.1,12.2,36,12.2,36,12.2z"/></g></g><g><g><path class="st38" d="M25.1,12.5c-0.1,0-0.3-0.1-0.4-0.2c-0.2-0.2-0.2-0.5,0.1-0.7c1.6-1.3,3.4-1.9,5.3-1.5    c0.3,0.1,0.4,0.3,0.4,0.6c-0.1,0.3-0.3,0.4-0.6,0.4c-1.5-0.3-3.1,0.2-4.4,1.3C25.4,12.5,25.3,12.5,25.1,12.5z"/></g></g><g><g><path class="st39" d="M48,21c-0.5,0-1,0.4-1,1c-0.3,5.5-3.4,9.9-7.2,10c0.1,0,0.1,0,0.2,0C44.4,32,48,27.1,48,21L48,21z"/></g></g><g><path class="st1" d="M30.5,48h-12c-0.3,0-0.5-0.2-0.5-0.5l0,0c0-0.3,0.2-0.5,0.5-0.5h12c0.3,0,0.5,0.2,0.5,0.5l0,0   C31,47.8,30.8,48,30.5,48z"/></g><path class="st9" d="M34,48.5H22c-0.3,0-0.5,0.2-0.5,0.5s0.2,0.5,0.5,0.5h2V58c0,0.4,0.2,0.7,0.5,0.9c0.3,0.2,0.7,0.2,1,0l2.4-1.6  l2.4,1.6c0.2,0.1,0.4,0.2,0.6,0.2c0.2,0,0.3,0,0.5-0.1c0.3-0.2,0.5-0.5,0.5-0.9v-8.5h2c0.3,0,0.5-0.2,0.5-0.5S34.3,48.5,34,48.5z   M30,56.1l-1.4-1c-0.3-0.2-0.8-0.2-1.1,0l-1.4,1v-6.6h4V56.1z"/></svg>