<?xml version="1.0" ?><svg data-name="Layer 1" id="Layer_1" viewBox="0 0 24 24" xmlns="http://www.w3.org/2000/svg"><defs><style>.cls-1,.cls-2,.cls-3,.cls-4{fill:none;stroke:#000;stroke-linecap:round;}.cls-1,.cls-3,.cls-4{stroke-linejoin:round;}.cls-2{stroke-miterlimit:10;}.cls-3{stroke-width:0.972px;}.cls-4{stroke-width:1.036px;}</style></defs><title/><path class="cls-1" d="M18.8,14.369a1.224,1.224,0,0,1,1.354,1.336c0,1.049-.977,1.717-1.753,1.155-.852,2.79-3.066,5.6-5.4,5.6s-4.544-2.812-5.395-5.6c-.783.566-1.754-.113-1.754-1.155a1.225,1.225,0,0,1,1.354-1.336"/><path class="cls-1" d="M11.158,18.68A2.141,2.141,0,0,0,13,19.59a2.141,2.141,0,0,0,1.842-.91"/><path class="cls-1" d="M20.119,13.051c-8.442.823-10.2-4.894-10.3-4.947,0,0-.425,4.4-2.24,4.4"/><line class="cls-2" x1="10.5" x2="10.5" y1="14.5" y2="15.5"/><line class="cls-2" x1="15.5" x2="15.5" y1="14.5" y2="15.5"/><path class="cls-3" d="M5.8,11.687a7.462,7.462,0,0,1,7.254-7.654,7.462,7.462,0,0,1,7.253,7.654"/><path class="cls-4" d="M14.875,2.729C13.062.416,8.687.354,5.329,4.448c-4.8,5.851-.195,16.729-.195,16.729"/></svg>