<?xml version="1.0" ?><svg data-name="Layer 1" id="Layer_1" viewBox="0 0 24 24" xmlns="http://www.w3.org/2000/svg"><defs><style>.cls-1{fill:none;stroke:#000;stroke-linecap:round;stroke-linejoin:round;}</style></defs><title/><path class="cls-1" d="M18.5,21.5H5.5a1,1,0,0,1-1-1V3.5a1,1,0,0,1,1-1h9.023a3.983,3.983,0,0,1,2.386.784,9.261,9.261,0,0,1,1.807,1.807A3.983,3.983,0,0,1,19.5,7.477V20.5A1,1,0,0,1,18.5,21.5Z"/><path class="cls-1" d="M15.5,4.5v2h2a2,2,0,0,1,2,2v1"/><line class="cls-1" x1="8.5" x2="8.5" y1="8.5" y2="18.5"/><line class="cls-1" x1="7" x2="17" y1="10.5" y2="10.5"/><line class="cls-1" x1="7" x2="17" y1="13.5" y2="13.5"/><line class="cls-1" x1="7" x2="17" y1="16.5" y2="16.5"/></svg>