<?xml version="1.0" ?><svg data-name="Layer 1" id="Layer_1" viewBox="0 0 24 24" xmlns="http://www.w3.org/2000/svg"><defs><style>.cls-1{fill:none;stroke:#000;stroke-linecap:round;stroke-linejoin:round;stroke-width:1px;}</style></defs><title/><ellipse class="cls-1" cx="19.647" cy="9.489" rx="2.353" ry="4.118"/><path class="cls-1" d="M4.353,5.371s7.625,2.179,14.49.247"/><path class="cls-1" d="M15.382,12.707a17.706,17.706,0,0,1,3.429.632"/><path class="cls-1" d="M6.146,13.2l-1.793.411C3.053,13.607,2,11.763,2,9.489S3.053,5.371,4.353,5.371"/><path class="cls-1" d="M14.833,14.688a8.168,8.168,0,0,1,2.4,2.286,4.345,4.345,0,0,0,1.983-1.732"/><path class="cls-1" d="M8.43,14.389A38.976,38.976,0,0,0,9.1,19.562l1.8-.992,2.463.992a39.369,39.369,0,0,1-.657-5.027"/><circle class="cls-1" cx="10.627" cy="12.675" r="2.787"/><path class="cls-1" d="M12.714,10.827A13.083,13.083,0,0,1,13.676,6.4"/><path class="cls-1" d="M9.463,6.29A12.281,12.281,0,0,0,8.44,10.948"/></svg>