<?xml version="1.0" ?><svg data-name="Layer 1" id="Layer_1" viewBox="0 0 24 24" xmlns="http://www.w3.org/2000/svg"><defs><style>.cls-1,.cls-2{fill:none;stroke:#000;stroke-linecap:round;}.cls-1{stroke-linejoin:round;}.cls-2{stroke-miterlimit:10;}</style></defs><title/><path class="cls-1" d="M11.008,8.837l-7.989-2.8c-.671-.236-.671-.831,0-1.067l7.989-2.8a3.118,3.118,0,0,1,1.984,0l7.989,2.8c.671.236.671.831,0,1.067L12.992,8.837A3.118,3.118,0,0,1,11.008,8.837Z"/><path class="cls-1" d="M17.974,7.088l.511,2.528c.534,3.3-13.5,3.3-12.97,0l.511-2.528"/><line class="cls-1" x1="20" x2="20" y1="6.377" y2="12"/><ellipse class="cls-1" cx="20" cy="14.001" rx="1.25" ry="2"/><path class="cls-1" d="M10.7,18.789a3.333,3.333,0,0,0,3.778-.945"/><line class="cls-2" x1="9.5" x2="9.5" y1="14.014" y2="15.014"/><line class="cls-2" x1="14.5" x2="14.5" y1="14.014" y2="15.014"/><path class="cls-1" d="M18.041,16.94C16.875,19.982,14.609,22,12,22,9.1,22,6.613,19.5,5.605,15.862c-.783.566-1.754-.114-1.754-1.156a1.224,1.224,0,0,1,1.354-1.335s0-.593.032-1.074"/></svg>