<?xml version="1.0" ?><svg id="Layer_1_1_" style="enable-background:new 0 0 64 64;" version="1.1" viewBox="0 0 64 64" xml:space="preserve" xmlns="http://www.w3.org/2000/svg" xmlns:xlink="http://www.w3.org/1999/xlink"><polygon points="41,49 41,58 32,62 32,53 " style="fill:#68607C;"/><polygon points="32,53 32,62 23,58 23,49 " style="fill:#ED6571;"/><polygon points="32,45 41,49 32,53 23,49 " style="fill:#F69489;"/><rect height="13" style="fill:#68607C;" width="2" x="31" y="36"/><rect height="6" style="fill:#68607C;" width="2" x="31" y="18"/><polygon points="19.293,32.707 10,23.414 10,18 12,18 12,22.586 20.707,31.293 " style="fill:#68607C;"/><polygon points="44.707,32.707 43.293,31.293 52,22.586 52,18 54,18 54,23.414 " style="fill:#68607C;"/><rect height="2" style="fill:#68607C;" width="14" x="45" y="33"/><polygon points="58,44 47.586,44 40.293,36.707 41.707,35.293 48.414,42 58,42 " style="fill:#68607C;"/><rect height="2" style="fill:#68607C;" width="13" x="5" y="33"/><polygon points="17.414,44 6,44 6,42 16.586,42 23.293,35.293 24.707,36.707 " style="fill:#68607C;"/><path d="M22.17,38c-2.09,0-3.95-1.53-4.15-3.61C18.01,34.26,18,34.13,18,34c0-1.1,0.45-2.1,1.17-2.83  C19.9,30.45,20.9,30,22,30c0.05,0,0.1,0.01,0.15,0.01c-0.29-1.09-0.29-2.3,1.31-3.87c0.71-0.71,1.64-1.16,2.64-1.14  c0.79,0.02,1.53,0.27,2.14,0.69C28.78,24.13,30.25,23,32,23s3.22,1.13,3.76,2.69c0.61-0.42,1.35-0.67,2.14-0.69  c1-0.02,1.93,0.43,2.64,1.14c1.6,1.57,1.6,2.78,1.31,3.87c0.05,0,0.1-0.01,0.15-0.01c1.1,0,2.1,0.45,2.83,1.17  C45.55,31.9,46,32.9,46,34c0,0.13-0.01,0.26-0.02,0.39c-0.2,2.08-2.06,3.61-4.15,3.61H41v6c-2.21,0-4-1.79-4-4v-2H22.17z" style="fill:#FFD086;"/><polygon points="61,8 61,19 45,19 45,2 55,2 " style="fill:#91CBD7;"/><polygon points="40,8 40,19 24,19 24,2 34,2 " style="fill:#91CBD7;"/><polygon points="19,8 19,19 3,19 3,2 13,2 " style="fill:#91CBD7;"/><polygon points="61,8 55,8 55,2 " style="fill:#4E9BB9;"/><polygon points="40,8 34,8 34,2 " style="fill:#4E9BB9;"/><polygon points="19,8 13,8 13,2 " style="fill:#4E9BB9;"/><circle cx="59" cy="34" r="3" style="fill:#91CBD7;"/><circle cx="59" cy="43" r="3" style="fill:#91CBD7;"/><circle cx="5" cy="34" r="3" style="fill:#91CBD7;"/><circle cx="5" cy="43" r="3" style="fill:#91CBD7;"/><rect height="2" style="fill:#68607C;" width="10" x="6" y="10"/><rect height="2" style="fill:#68607C;" width="10" x="6" y="14"/><rect height="2" style="fill:#68607C;" width="5" x="6" y="6"/><rect height="2" style="fill:#68607C;" width="10" x="27" y="10"/><rect height="2" style="fill:#68607C;" width="10" x="27" y="14"/><rect height="2" style="fill:#68607C;" width="5" x="27" y="6"/><rect height="2" style="fill:#68607C;" width="10" x="48" y="10"/><rect height="2" style="fill:#68607C;" width="10" x="48" y="14"/><rect height="2" style="fill:#68607C;" width="5" x="48" y="6"/><rect height="10" style="fill:#F69489;" width="2" x="31" y="28"/><polygon points="29,38 27,38 27,35.414 25,33.414 25,30 27,30 27,32.586 29,34.586 " style="fill:#F69489;"/><polygon points="37,38 35,38 35,34.586 37,32.586 37,30 39,30 39,33.414 37,35.414 " style="fill:#F69489;"/><rect height="2" style="fill:#68607C;" width="2" x="45" y="52"/><rect height="2" style="fill:#68607C;" width="2" x="49" y="52"/><rect height="2" style="fill:#68607C;" width="2" x="49" y="56"/><rect height="2" style="fill:#68607C;" width="2" x="49" y="48"/><rect height="2" style="fill:#68607C;" width="2" x="17" y="52"/><rect height="2" style="fill:#68607C;" width="2" x="13" y="52"/><rect height="2" style="fill:#68607C;" width="2" x="13" y="56"/><rect height="2" style="fill:#68607C;" width="2" x="13" y="48"/></svg>