<?xml version="1.0" ?><svg id="Layer_1_1_" style="enable-background:new 0 0 64 64;" version="1.1" viewBox="0 0 64 64" xml:space="preserve" xmlns="http://www.w3.org/2000/svg" xmlns:xlink="http://www.w3.org/1999/xlink"><rect height="14" style="fill:#91CBD7;" width="6" x="3" y="37"/><path d="M55,62H9V31h46V62z" style="fill:#91CBD7;"/><rect height="14" style="fill:#91CBD7;" width="6" x="55" y="37"/><circle cx="21" cy="44" r="8" style="fill:#F69489;"/><path d="M27.314,39.1c-0.411-0.529-0.885-1.003-1.414-1.414l-3.9,3.9v-5.517C21.672,36.028,21.339,36,21,36  s-0.672,0.028-1,0.069v5.517l-3.9-3.9c-0.529,0.411-1.003,0.885-1.414,1.414l3.9,3.9h-5.517C13.028,43.328,13,43.661,13,44  s0.028,0.672,0.069,1h5.517l-3.9,3.9c0.411,0.529,0.885,1.003,1.414,1.414l3.9-3.9v5.517C20.328,51.972,20.661,52,21,52  s0.672-0.028,1-0.069v-5.517l3.9,3.9c0.529-0.411,1.003-0.885,1.414-1.414l-3.9-3.9h5.517C28.972,44.672,29,44.339,29,44  s-0.028-0.672-0.069-1h-5.517L27.314,39.1z" style="fill:#ED6571;"/><path d="M23.12,41.88C23.66,42.42,24,43.17,24,44s-0.34,1.58-0.88,2.12C22.58,46.66,21.83,47,21,47  s-1.58-0.34-2.12-0.88C18.34,45.58,18,44.83,18,44s0.34-1.58,0.88-2.12C19.42,41.34,20.17,41,21,41S22.58,41.34,23.12,41.88z" style="fill:#FFE5CA;"/><circle cx="43" cy="44" r="8" style="fill:#F69489;"/><path d="M49.314,39.1c-0.411-0.529-0.885-1.003-1.414-1.414l-3.9,3.9v-5.517C43.672,36.028,43.339,36,43,36  s-0.672,0.028-1,0.069v5.517l-3.9-3.9c-0.529,0.411-1.003,0.885-1.414,1.414l3.9,3.9h-5.517C35.028,43.328,35,43.661,35,44  s0.028,0.672,0.069,1h5.517l-3.9,3.9c0.411,0.529,0.885,1.003,1.414,1.414l3.9-3.9v5.517C42.328,51.972,42.661,52,43,52  s0.672-0.028,1-0.069v-5.517l3.9,3.9c0.529-0.411,1.003-0.885,1.414-1.414l-3.9-3.9h5.517C50.972,44.672,51,44.339,51,44  s-0.028-0.672-0.069-1h-5.517L49.314,39.1z" style="fill:#ED6571;"/><path d="M45.12,41.88C45.66,42.42,46,43.17,46,44s-0.34,1.58-0.88,2.12C44.58,46.66,43.83,47,43,47  s-1.58-0.34-2.12-0.88C40.34,45.58,40,44.83,40,44s0.34-1.58,0.88-2.12C41.42,41.34,42.17,41,43,41S44.58,41.34,45.12,41.88z" style="fill:#FFE5CA;"/><polygon points="18,29 16,29 16,19 12,19 12,17 18,17 " style="fill:#68607C;"/><polygon points="27,29 25,29 25,21.414 21,17.414 21,12 23,12 23,16.586 27,20.586 " style="fill:#68607C;"/><polygon points="36,29 34,29 34,19.586 38,15.586 38,11 40,11 40,16.414 36,20.414 " style="fill:#68607C;"/><polygon points="46,29 44,29 44,16 52,16 52,18 46,18 " style="fill:#68607C;"/><polygon points="45,30.414 41.293,26.707 42.707,25.293 45,27.586 47.293,25.293 48.707,26.707 " style="fill:#68607C;"/><polygon points="35,30.414 31.293,26.707 32.707,25.293 35,27.586 37.293,25.293 38.707,26.707 " style="fill:#68607C;"/><polygon points="26,30.414 22.293,26.707 23.707,25.293 26,27.586 28.293,25.293 29.707,26.707 " style="fill:#68607C;"/><polygon points="17,30.414 13.293,26.707 14.707,25.293 17,27.586 19.293,25.293 20.707,26.707 " style="fill:#68607C;"/><polygon points="61,14 61,20 56,23 51,20 51,17 51,14 56,11 " style="fill:#91CBD7;"/><polygon points="44,2 44,12 39,12 34,12 34,2 " style="fill:#F69489;"/><polygon points="22,2 27,13 22,13 17,13 " style="fill:#FFD086;"/><circle cx="8" cy="18" r="5" style="fill:#ED6571;"/><rect height="14" style="fill:#4E9BB9;" width="2" x="7" y="37"/><rect height="14" style="fill:#4E9BB9;" width="2" x="55" y="37"/><rect height="2" style="fill:#68607C;" width="2" x="27" y="56"/><rect height="2" style="fill:#68607C;" width="2" x="31" y="56"/><rect height="2" style="fill:#68607C;" width="2" x="35" y="56"/></svg>