<?xml version="1.0" ?><svg id="Layer_1_1_" style="enable-background:new 0 0 64 64;" version="1.1" viewBox="0 0 64 64" xml:space="preserve" xmlns="http://www.w3.org/2000/svg" xmlns:xlink="http://www.w3.org/1999/xlink"><rect height="2" style="fill:#68607C;" transform="matrix(0.9396 -0.3423 0.3423 0.9396 -3.5238 8.0348)" width="14.9" x="13.55" y="13"/><rect height="22.627" style="fill:#68607C;" transform="matrix(0.7071 -0.7071 0.7071 0.7071 -2.2548 36.5564)" width="2" x="42" y="9.686"/><rect height="12.113" style="fill:#68607C;" transform="matrix(0.1362 -0.9907 0.9907 0.1362 6.9257 68.9434)" width="1.999" x="42" y="24.444"/><rect height="17.889" style="fill:#68607C;" transform="matrix(0.4472 -0.8944 0.8944 0.4472 -9.4102 31.7746)" width="2" x="20" y="14.556"/><rect height="16.018" style="fill:#68607C;" transform="matrix(0.4476 -0.8942 0.8942 0.4476 -32.6847 45.9192)" width="2.001" x="19.825" y="41.406"/><rect height="17" style="fill:#68607C;" width="2" x="31" y="33"/><rect height="2" style="fill:#68607C;" transform="matrix(0.5441 -0.839 0.839 0.5441 -13.0795 29.9303)" width="30.974" x="5.513" y="26"/><rect height="2" style="fill:#68607C;" transform="matrix(0.6913 -0.7226 0.7226 0.6913 -17.9029 44.5941)" width="22.832" x="31.824" y="42.25"/><rect height="32.257" style="fill:#68607C;" transform="matrix(0.8597 -0.5108 0.5108 0.8597 -15.5424 15.6883)" width="2" x="19.785" y="20.006"/><path d="M17,44c0,1.13-0.26,2.19-0.74,3.13C15.12,49.43,12.74,51,10,51c-3.87,0-7-3.13-7-7s3.13-7,7-7  c1.41,0,2.71,0.41,3.8,1.12C15.73,39.37,17,41.53,17,44z" style="fill:#4E9BB9;"/><path d="M37.31,49.45C38.37,50.67,39,52.26,39,54c0,3.87-3.13,7-7,7s-7-3.13-7-7c0-0.81,0.14-1.58,0.39-2.3  c0.48-1.41,1.4-2.6,2.6-3.44C29.12,47.46,30.5,47,32,47C34.13,47,36.04,47.95,37.31,49.45z" style="fill:#91CBD7;"/><path d="M54,25c3.87,0,7,3.13,7,7s-3.13,7-7,7c-1.88,0-3.58-0.73-4.83-1.95C47.83,35.79,47,33.99,47,32  c0-0.32,0.02-0.63,0.07-0.94c0.2-1.56,0.92-2.95,1.98-4.01C50.32,25.78,52.06,25,54,25z" style="fill:#FFD086;"/><path d="M38.93,29.94C38.48,33.36,35.55,36,32,36c-3.87,0-7-3.13-7-7c0-1.13,0.26-2.19,0.74-3.13  C26.88,23.57,29.26,22,32,22c3.87,0,7,3.13,7,7C39,29.32,38.98,29.63,38.93,29.94z" style="fill:#ED6571;"/><path d="M32,3c3.87,0,7,3.13,7,7c0,1.94-0.78,3.68-2.05,4.95S33.94,17,32,17c-1.41,0-2.71-0.41-3.8-1.12  c-1.27-0.82-2.26-2.04-2.78-3.49C25.15,11.65,25,10.84,25,10C25,6.13,28.13,3,32,3z" style="fill:#F69489;"/><path d="M16.58,15.61C16.85,16.35,17,17.16,17,18c0,1.13-0.26,2.19-0.74,3.13c-0.6,1.2-1.53,2.2-2.68,2.88  C12.54,24.64,11.31,25,10,25c-3.87,0-7-3.13-7-7s3.13-7,7-7C13.03,11,15.6,12.92,16.58,15.61z" style="fill:#91CBD7;"/></svg>