<?xml version="1.0" ?><!DOCTYPE svg  PUBLIC '-//W3C//DTD SVG 1.1//EN'  'http://www.w3.org/Graphics/SVG/1.1/DTD/svg11.dtd'><svg height="128px" style="shape-rendering:geometricPrecision; text-rendering:geometricPrecision; image-rendering:optimizeQuality; fill-rule:evenodd; clip-rule:evenodd" version="1.1" viewBox="0 0 57181 61077" width="120px" xml:space="preserve" xmlns="http://www.w3.org/2000/svg" xmlns:xlink="http://www.w3.org/1999/xlink"><defs><style type="text/css">
   <![CDATA[
    .fil16 {fill:none}
    .fil14 {fill:black}
    .fil6 {fill:#4D4D4D}
    .fil15 {fill:#4D4D4D}
    .fil12 {fill:#512D2D}
    .fil0 {fill:#53B4ED}
    .fil11 {fill:#833D29}
    .fil1 {fill:#8E8E93}
    .fil10 {fill:#9C6640}
    .fil5 {fill:#AFB0B5}
    .fil13 {fill:#CCCCCC}
    .fil2 {fill:#E1E3E8}
    .fil8 {fill:#E64E60}
    .fil9 {fill:#F2B22E}
    .fil4 {fill:#FF576B}
    .fil7 {fill:#FFC42E}
    .fil3 {fill:white}
    .fil17 {fill:#FF576B;fill-rule:nonzero}
   ]]>
  </style></defs><g id="Layer_x0020_1"><g id="_548199792"><path class="fil0" d="M31371 740l21774 12572c1709,987 2688,2682 2688,4656l0 25141c0,1974 -979,3669 -2688,4656l-21774 12572c-1709,987 -3666,987 -5376,0l-21774 -12572c-1710,-987 -2688,-2682 -2688,-4656l0 -25141c0,-1974 978,-3669 2688,-4656l21774 -12572c1710,-987 3667,-987 5376,0z"/><g><polygon class="fil1" points="0,8678 57181,8678 57181,43184 0,43184 "/><g><path class="fil2" d="M1545 6877l23087 0c2177,0 3958,2014 3958,4476l0 29774 -27045 0 0 -34250z"/><path class="fil3" d="M3312 6877l21320 0c2177,0 3958,2014 3958,4476l0 27775 -10 0c-726,-1259 -1983,-2096 -3404,-2096l-21864 0 0 -30155z"/><path class="fil2" d="M26762 7585c1097,798 1828,2191 1828,3768l0 27775 -10 0c-439,-761 -1072,-1368 -1818,-1729l0 -29814z"/><polygon class="fil4" points="5681,10243 15013,10243 15013,11682 5681,11682 "/><path class="fil5" d="M5681 14470l15779 0 0 928 -15779 0 0 -928zm0 12916l8568 0 0 927 -8568 0 0 -927zm0 -2583l15779 0 0 927 -15779 0 0 -927zm0 -2584l15779 0 0 928 -15779 0 0 -928zm0 -2583l11507 0 0 928 -11507 0 0 -928zm0 -2583l15779 0 0 928 -15779 0 0 -928z"/><path class="fil2" d="M55636 6877l-23087 0c-2177,0 -3959,2014 -3959,4476l0 29774 27046 0 0 -34250z"/><path class="fil3" d="M53868 6877l-21319 0c-2177,0 -3959,2014 -3959,4476l0 27775 11 0c726,-1259 1982,-2096 3404,-2096l21863 0 0 -30155z"/><path class="fil5" d="M34071 10243l15779 0 0 928 -15779 0 0 -928zm0 15498l9399 0 0 928 -9399 0 0 -928zm0 -2583l15779 0 0 928 -15779 0 0 -928zm0 -2583l15779 0 0 928 -15779 0 0 -928zm0 -2583l15779 0 0 928 -15779 0 0 -928zm0 -2583l11507 0 0 928 -11507 0 0 -928zm0 -2583l15779 0 0 928 -15779 0 0 -928z"/><path class="fil5" d="M34071 30736l15779 0 0 928 -15779 0 0 -928zm0 2583l15779 0 0 928 -15779 0 0 -928z"/><path class="fil5" d="M5458 30736l15779 0 0 928 -15779 0 0 -928zm0 2583l15779 0 0 928 -15779 0 0 -928z"/></g></g><g><g><rect class="fil4" height="19683" transform="matrix(-1.71949E-013 1.87989 -2.09854 -1.44882E-013 51652.2 52325.9)" width="2147"/><path class="fil6" d="M51652 52326l0 4036 2268 0c387,0 704,-316 704,-704l0 -2628c0,-387 -317,-704 -704,-704l-2268 0z"/><polygon class="fil7" points="7023,53335 7023,55353 10346,56362 10346,54344 10346,52326 "/><polygon class="fil6" points="2742,54344 7023,53335 7023,54344 7023,55353 "/><rect class="fil8" height="19683" transform="matrix(-5.2609E-014 0.575632 -2.09854 -1.44882E-013 51652.2 55126.4)" width="2147"/></g><g><g><ellipse class="fil9" cx="28683" cy="38129" rx="13075" ry="14963"/><ellipse class="fil7" cx="28683" cy="34828" rx="10005" ry="11662"/><g><path class="fil10" d="M17788 31864c0,0 -4416,476 -4624,8865 -209,8390 -1982,11609 -1982,11609 10631,-1009 15877,-12031 6606,-20474z"/><path class="fil10" d="M39578 31864c0,0 4416,476 4624,8865 209,8390 1981,11609 1981,11609 -10630,-1009 -15877,-12031 -6605,-20474z"/></g><g><path class="fil11" d="M17788 31864c0,0 -1965,213 -3335,2844 1563,2408 4408,3645 7540,3246 -707,-2065 -2070,-4146 -4205,-6090z"/><path class="fil11" d="M39578 31864c0,0 1964,213 3335,2844 -1563,2408 -4408,3645 -7541,3246 708,-2065 2071,-4146 4206,-6090z"/></g><polygon class="fil9" points="26970,33512 29814,32365 32657,33512 29814,38764 "/><path class="fil9" d="M11727 15770l3373 5089c-6527,12183 5115,19220 13583,11067 8468,8153 20110,1116 13582,-11067l3374 -5089 -7337 1556 -9619 161 -9619 -161 -7337 -1556z"/><path class="fil7" d="M26297 17448l-7233 -122 -7337 -1556c6808,5890 13762,63 16956,14288l-2386 -12610z"/><g><g><g><rect class="fil12" height="2240" rx="425" ry="536" width="849" x="19983" y="54903"/><rect class="fil13" height="5624" rx="1546" ry="1346" width="3092" x="18862" y="49795"/><rect class="fil2" height="4202" rx="881" ry="1005" width="1763" x="19526" y="49795"/></g><g><rect class="fil12" height="2240" rx="425" ry="536" width="849" x="22410" y="54903"/><rect class="fil13" height="5624" rx="1546" ry="1346" width="3092" x="21289" y="49795"/><rect class="fil2" height="4202" rx="881" ry="1005" width="1763" x="21953" y="49795"/></g><g><rect class="fil12" height="2240" rx="425" ry="536" width="849" x="24837" y="54903"/><rect class="fil13" height="5624" rx="1546" ry="1346" width="3092" x="23716" y="49795"/><rect class="fil2" height="4202" rx="881" ry="1005" width="1763" x="24381" y="49795"/></g></g><g><g><rect class="fil12" height="2240" rx="425" ry="536" width="849" x="31679" y="54903"/><rect class="fil13" height="5624" rx="1546" ry="1346" width="3092" x="30558" y="49795"/><rect class="fil2" height="4202" rx="881" ry="1005" width="1763" x="31222" y="49795"/></g><g><rect class="fil12" height="2240" rx="425" ry="536" width="849" x="34106" y="54903"/><rect class="fil13" height="5624" rx="1546" ry="1346" width="3092" x="32985" y="49795"/><rect class="fil2" height="4202" rx="881" ry="1005" width="1763" x="33649" y="49795"/></g><g><rect class="fil14" height="2240" rx="425" ry="536" width="849" x="36533" y="54903"/><rect class="fil13" height="5624" rx="1546" ry="1346" width="3092" x="35412" y="49795"/><rect class="fil2" height="4202" rx="881" ry="1005" width="1763" x="36077" y="49795"/></g></g></g><polygon class="fil12" points="25839,31513 28683,30058 31526,31513 28683,38177 "/><polygon class="fil11" points="25839,31513 28683,30058 28683,38177 "/><g><g><circle class="fil13" cx="20646" cy="27774" r="5948"/><circle class="fil3" cx="20646" cy="27774" r="4681"/><circle class="fil10" cx="20646" cy="27774" r="3049"/><circle class="fil12" cx="20646" cy="27774" r="1320"/><circle class="fil3" cx="19357" cy="26003" r="1089"/></g><g><circle class="fil13" cx="36720" cy="27774" r="5948"/><circle class="fil3" cx="36720" cy="27774" r="4681"/><circle class="fil10" cx="36720" cy="27774" r="3049"/><circle class="fil12" cx="36720" cy="27774" r="1320"/><circle class="fil3" cx="35432" cy="26003" r="1089"/></g></g><path class="fil7" d="M31069 17448l7233 -122 7337 -1556c-6808,5890 -13762,63 -16956,14288l2386 -12610z"/></g><g><polygon class="fil1" points="15031,10242 28614,3935 42102,10231 42102,11169 15127,11169 "/><polygon class="fil15" points="15127,11169 28614,4873 42102,11169 28614,16703 "/><path class="fil1" d="M20341 11754c2968,-2762 14533,-2719 16296,0l802 6593c-5543,1292 -11245,1349 -17750,0l652 -6593z"/><g><line class="fil16" x1="40116" x2="40116" y1="8959" y2="16259"/><path class="fil17" d="M40317 9219l0 7040 -401 0 0 -7040c48,-259 391,-205 401,0z"/><ellipse class="fil4" cx="40116" cy="16922" rx="840" ry="865"/><path class="fil15" d="M40613 17624c0,1045 1080,2531 937,2799 -213,401 -702,-219 -802,13 -100,233 -627,155 -627,155 0,0 -526,78 -626,-155 -101,-232 -590,388 -803,-13 -213,-400 1135,-1761 938,-2799l0 0c291,218 692,218 983,0z"/></g></g></g></g></g></g></svg>