<?xml version="1.0" ?><!DOCTYPE svg  PUBLIC '-//W3C//DTD SVG 1.1//EN'  'http://www.w3.org/Graphics/SVG/1.1/DTD/svg11.dtd'><svg height="128px" style="shape-rendering:geometricPrecision; text-rendering:geometricPrecision; image-rendering:optimizeQuality; fill-rule:evenodd; clip-rule:evenodd" version="1.1" viewBox="0 0 38122 37223" width="131px" xml:space="preserve" xmlns="http://www.w3.org/2000/svg" xmlns:xlink="http://www.w3.org/1999/xlink"><defs><style type="text/css">
   <![CDATA[
    .fil10 {fill:#00DCAB}
    .fil1 {fill:#1C3B5C}
    .fil4 {fill:#205081}
    .fil11 {fill:#4D4D4D}
    .fil9 {fill:#53B4ED}
    .fil6 {fill:#AFB0B5}
    .fil5 {fill:#C5C7CB}
    .fil2 {fill:#E1E3E8}
    .fil12 {fill:#E64E60}
    .fil7 {fill:#FF576B}
    .fil0 {fill:#FFC42E}
    .fil3 {fill:white}
    .fil8 {fill:white;fill-rule:nonzero}
   ]]>
  </style></defs><g id="Layer_x0020_1"><g id="_625112336"><circle class="fil0" cx="19511" cy="18611" r="18611"/><g><g><g><path class="fil1" d="M5393 9683l28551 0c576,0 1047,471 1047,1047l0 18498c0,576 -471,1047 -1047,1047l-28551 0c-576,0 -1047,-471 -1047,-1047l0 -18498c0,-576 471,-1047 1047,-1047z"/><path class="fil2" d="M3605 33956l32127 0c452,0 822,-370 822,-823l0 -1337c0,-452 -370,-823 -822,-823l-32127 0c-452,0 -823,371 -823,823l0 1337c0,453 371,823 823,823z"/><polygon class="fil3" points="5832,11124 33505,11124 33505,28834 5832,28834 "/><g><polygon class="fil4" points="9115,29615 11522,29615 11522,30973 9115,30973 "/><polygon class="fil4" points="27815,29615 30222,29615 30222,30973 27815,30973 "/></g><polygon class="fil5" points="15677,30973 23659,30973 23659,31918 15677,31918 "/><path class="fil5" d="M36146 33175l-32956 0c-148,0 -287,-40 -408,-109l0 67c0,453 371,823 823,823l32127 0c452,0 822,-370 822,-823l0 -67c-120,69 -260,109 -408,109z"/></g><g><rect class="fil6" height="2252" width="3503" x="26253" y="12540"/><rect class="fil6" height="483" width="4325" x="26306" y="15399"/><rect class="fil6" height="322" width="5737" x="26306" y="16382"/></g><g><rect class="fil6" height="2252" width="3503" x="26253" y="17830"/><rect class="fil6" height="483" width="4325" x="26306" y="20689"/><rect class="fil6" height="322" width="5737" x="26306" y="21672"/></g><g><rect class="fil6" height="2252" width="3503" x="26253" y="23120"/><rect class="fil6" height="483" width="4325" x="26306" y="25979"/><rect class="fil6" height="322" width="5737" x="26306" y="26962"/></g><rect class="fil2" height="2690" width="27673" x="5832" y="26144"/><path class="fil3" d="M7198 26960l362 0 0 1059 -362 0 0 -1059zm808 0l362 0 0 1059 -362 0 0 -1059z"/><rect class="fil3" height="402" width="19462" x="9713" y="27288"/><rect class="fil7" height="402" width="11794" x="9713" y="27288"/><path class="fil3" d="M32043 26841l0 1296 -641 -406 0 -455 641 -435zm-787 890l-258 0 0 -455 258 0 0 455z"/><rect class="fil7" height="9422" width="16728" x="7595" y="12576"/><rect class="fil6" height="483" width="4325" x="7595" y="22766"/><rect class="fil6" height="322" width="14679" x="7595" y="23749"/><rect class="fil6" height="322" width="8853" x="7595" y="24643"/><path class="fil8" d="M15959 15404c520,0 990,211 1331,551 341,341 552,812 552,1332 0,520 -211,990 -552,1331l0 0c-341,340 -812,551 -1331,551 -519,0 -990,-210 -1331,-551l0 0 -1 -1c-340,-340 -551,-811 -551,-1330 0,-520 211,-990 552,-1331l-1 -1c341,-340 812,-551 1332,-551zm1129 754c-289,-289 -688,-468 -1129,-468 -441,0 -841,179 -1129,468l-1 0c-289,288 -467,687 -467,1129 0,441 178,840 467,1129l1 0c288,289 687,468 1129,468 441,0 841,-179 1129,-468l0 0c289,-289 468,-688 468,-1129 0,-441 -179,-841 -468,-1129z"/><polygon class="fil3" points="15609,16334 16683,17287 15609,18239 "/><polygon class="fil3" points="27644,13027 28364,13666 27644,14305 "/><polygon class="fil3" points="27644,18317 28364,18956 27644,19595 "/><polygon class="fil3" points="27644,23607 28364,24246 27644,24885 "/></g><circle class="fil7" cx="33378" cy="7904" r="3845"/><path class="fil3" d="M33793 9252l-888 0c-2,-137 -3,-219 -3,-249 0,-307 47,-558 143,-757 95,-197 284,-420 569,-668 286,-247 456,-409 512,-486 86,-121 129,-256 129,-401 0,-201 -76,-375 -229,-518 -151,-144 -356,-216 -614,-216 -249,0 -456,76 -624,226 -167,152 -282,383 -344,693l-895 -122c26,-444 202,-820 530,-1130 328,-310 759,-464 1292,-464 561,0 1007,157 1338,469 332,313 498,676 498,1092 0,229 -61,448 -183,653 -122,205 -381,485 -780,839 -206,182 -334,330 -383,442 -50,111 -73,310 -68,597zm-888 1397l0 -1040 888 0 0 1040 -888 0z"/><circle class="fil9" cx="3845" cy="22711" r="3845"/><path class="fil3" d="M3557 24013l-266 -2722 0 -1258 1107 0 0 1258 -262 2722 -579 0zm-221 1376l0 -1025 1025 0 0 1025 -1025 0z"/><path class="fil10" d="M7256 3266l8554 0c647,0 1177,530 1177,1177l0 3598c0,647 -530,1177 -1177,1177l-6291 0 -2829 2399 757 -2399 -191 0c-647,0 -1177,-530 -1177,-1177l0 -3598c0,-647 530,-1177 1177,-1177z"/><path class="fil3" d="M7211 4567l8644 0 0 589 -8644 0 0 -589zm0 2761l5748 0 0 589 -5748 0 0 -589zm0 -1380l8644 0 0 588 -8644 0 0 -588z"/><g><rect class="fil7" height="11996" transform="matrix(3.05787E-014 0.868695 -0.490098 6.68749E-014 26906.8 5606.8)" width="1309"/><path class="fil11" d="M26907 5607l0 1137 745 0c127,0 231,-104 231,-232l0 -674c0,-127 -104,-231 -231,-231l-745 0z"/><polygon class="fil3" points="19895,5891 19895,6459 21028,6743 21028,6175 21028,5607 "/><polygon class="fil11" points="19083,6175 19895,5891 19895,6175 19895,6459 "/><rect class="fil12" height="11996" transform="matrix(6.80546E-015 0.19623 -0.490098 6.59131E-014 26906.8 6486.78)" width="1309"/></g></g></g></g></svg>