<?xml version="1.0" ?><!DOCTYPE svg  PUBLIC '-//W3C//DTD SVG 1.1//EN'  'http://www.w3.org/Graphics/SVG/1.1/DTD/svg11.dtd'><svg height="128px" style="shape-rendering:geometricPrecision; text-rendering:geometricPrecision; image-rendering:optimizeQuality; fill-rule:evenodd; clip-rule:evenodd" version="1.1" viewBox="0 0 31544 34583" width="117px" xml:space="preserve" xmlns="http://www.w3.org/2000/svg" xmlns:xlink="http://www.w3.org/1999/xlink"><defs><style type="text/css">
   <![CDATA[
    .fil10 {fill:#4D4D4D}
    .fil5 {fill:#5DA764}
    .fil4 {fill:#6EC276}
    .fil2 {fill:#BA3F4D}
    .fil0 {fill:#E1E3E8}
    .fil7 {fill:#EAA43A}
    .fil1 {fill:#FF576B}
    .fil9 {fill:#FF919E}
    .fil6 {fill:#FFC42E}
    .fil3 {fill:white}
    .fil8 {fill:#4D4D4D;fill-rule:nonzero}
   ]]>
  </style></defs><g id="Layer_x0020_1"><g id="_605877080"><path class="fil0" d="M17294 419l12329 7118c968,559 1522,1519 1522,2637l0 14236c0,1117 -554,2077 -1522,2636l-12329 7118c-968,559 -2076,559 -3044,0l-12329 -7118c-968,-559 -1522,-1519 -1522,-2636l0 -14236c0,-1118 554,-2078 1522,-2637l12329 -7118c968,-559 2076,-559 3044,0z"/><rect class="fil1" height="5560" width="22262" x="9016" y="24998"/><rect class="fil2" height="5560" width="6011" x="3005" y="24998"/><rect class="fil3" height="3391" width="6011" x="3005" y="26082"/><rect class="fil4" height="5560" width="22262" x="6011" y="19438"/><rect class="fil5" height="5560" width="6011" y="19438"/><rect class="fil3" height="3391" width="6011" y="20522"/><rect class="fil5" height="3630" width="705" x="7886" y="20384"/><rect class="fil5" height="3630" width="705" x="9677" y="20384"/><rect class="fil5" height="3630" width="705" x="23514" y="20384"/><rect class="fil5" height="3630" width="705" x="25305" y="20384"/><rect class="fil2" height="3630" width="705" x="11312" y="26053"/><rect class="fil2" height="3630" width="705" x="13103" y="26053"/><rect class="fil2" height="3630" width="705" x="26941" y="26053"/><rect class="fil2" height="3630" width="705" x="28732" y="26053"/><rect class="fil6" height="5560" width="22262" x="9282" y="13877"/><rect class="fil7" height="5560" width="6011" x="3271" y="13877"/><rect class="fil3" height="3391" width="6011" x="3271" y="14962"/><rect class="fil7" height="3630" width="705" x="11578" y="14933"/><rect class="fil7" height="3630" width="705" x="13369" y="14933"/><rect class="fil7" height="3630" width="705" x="27207" y="14933"/><rect class="fil7" height="3630" width="705" x="28998" y="14933"/><path class="fil8" d="M15503 5028c-1,-9 -272,-2172 1404,-3530l669 719c-1465,1187 -1535,2784 -1535,2792l-538 19z"/><path class="fil1" d="M15772 12985c0,0 -203,892 -1672,892 -5232,0 -5921,-13890 1672,-8858 7593,-5032 6903,8858 1672,8858 -1470,0 -1672,-892 -1672,-892z"/><path class="fil9" d="M15772 5475l0 7029c0,0 -179,788 -1475,788 -4617,0 -5225,-12256 1475,-7817z"/><path class="fil3" d="M15772 5475l0 7029c0,0 179,788 1475,788 4616,0 5224,-12256 -1475,-7817z"/><path class="fil10" d="M16731 6579c0,0 695,-1204 1027,-794 333,410 -1027,794 -1027,794z"/><path class="fil10" d="M17338 8093c0,0 1107,-842 1255,-335 148,508 -1255,335 -1255,335z"/><path class="fil10" d="M17303 9770c0,0 1383,-138 1244,372 -139,510 -1244,-372 -1244,-372z"/><path class="fil10" d="M16453 10920c0,0 1156,772 725,1078 -432,305 -725,-1078 -725,-1078z"/></g></g></svg>