<?xml version="1.0" ?><!DOCTYPE svg  PUBLIC '-//W3C//DTD SVG 1.1//EN'  'http://www.w3.org/Graphics/SVG/1.1/DTD/svg11.dtd'><svg height="128px" style="shape-rendering:geometricPrecision; text-rendering:geometricPrecision; image-rendering:optimizeQuality; fill-rule:evenodd; clip-rule:evenodd" version="1.1" viewBox="0 0 21553 24243" width="114px" xml:space="preserve" xmlns="http://www.w3.org/2000/svg" xmlns:xlink="http://www.w3.org/1999/xlink"><defs><style type="text/css">
   <![CDATA[
    .fil7 {fill:#53B4ED}
    .fil9 {fill:#5DA764}
    .fil8 {fill:#72CF7B}
    .fil1 {fill:#833D29}
    .fil2 {fill:#9C6640}
    .fil0 {fill:#E1E3E8}
    .fil11 {fill:#E64E60}
    .fil4 {fill:#F2B22E}
    .fil10 {fill:#FF576B}
    .fil3 {fill:#FFC42E}
    .fil6 {fill:white}
    .fil5 {fill:#FFC42E;fill-rule:nonzero}
   ]]>
  </style></defs><g id="Layer_x0020_1"><g id="_574440792"><path class="fil0" d="M11843 294l8643 4990c678,392 1067,1064 1067,1848l0 9979c0,784 -389,1456 -1067,1848l-8643 4990c-678,392 -1455,392 -2134,0l-8642 -4990c-679,-392 -1067,-1064 -1067,-1848l0 -9979c0,-784 388,-1456 1067,-1848l8642 -4990c679,-392 1456,-392 2134,0z"/><g><g><path class="fil1" d="M7214 18236l7275 0 0 -499c0,-174 -142,-317 -317,-317l-6641 0c-175,0 -317,143 -317,317l0 499z"/><path class="fil2" d="M8189 14188l5325 0c362,0 658,296 658,658l0 2574 -6641 0 0 -2574c0,-362 296,-658 658,-658z"/><path class="fil3" d="M9841 10077l1010 0 1011 0c2902,-875 2700,-4269 2700,-7232 -422,-474 -2852,-921 -3711,-847 -858,-74 -3289,373 -3710,847 0,2963 -203,6357 2700,7232z"/><path class="fil4" d="M10851 14188l-2232 0c0,0 -46,-274 1473,-525l759 0 760 0c1519,251 1473,525 1473,525l-2233 0z"/><path class="fil4" d="M13597 2396c4,2948 114,6818 -2746,7681l857 0 154 0c2902,-875 2700,-4269 2700,-7232 -141,-159 -508,-314 -965,-449z"/><path class="fil5" d="M7105 4094l-1678 0c-290,0 -538,124 -712,355 -173,231 -223,505 -143,783 431,1482 1440,3589 3725,3883 216,245 472,458 775,633 -140,16 -286,21 -438,14 -2600,-110 -4025,-2150 -4659,-4402 -130,-462 -44,-914 246,-1297 289,-382 702,-587 1182,-587l1735 0 1 0c-1,208 -2,417 -1,626l-33 -8z"/><path class="fil5" d="M14555 4094l1678 0c289,0 538,124 711,355 174,231 224,505 143,783 -430,1482 -1439,3589 -3724,3883 -216,245 -472,458 -775,633 140,16 285,21 437,14 2600,-110 4026,-2150 4659,-4402 130,-462 44,-914 -245,-1297 -290,-382 -703,-587 -1182,-587l-1736 0 -1 0c1,208 2,417 1,626l34 -8z"/><rect class="fil1" height="1411" width="4334" x="8685" y="15123"/><rect class="fil3" height="3105" width="1690" x="10007" y="10558"/><path class="fil4" d="M9990 10558l1723 0c145,0 263,-118 263,-263l0 -237c0,-88 -73,-161 -162,-161l-1925 0c-89,0 -162,73 -162,161l0 237c0,145 118,263 263,263z"/><path class="fil6" d="M7786 3309c0,0 -362,3437 758,4813 -423,-1150 -435,-3650 -85,-4933 0,0 -329,26 -673,120z"/></g><polygon class="fil7" points="2831,6202 3043,6873 3715,7085 3043,7297 2831,7969 2619,7297 1947,7085 2619,6873 "/><g><rect class="fil8" height="3003" width="12024" x="7054" y="18236"/><rect class="fil9" height="3003" width="3246" x="3808" y="18236"/><rect class="fil6" height="1832" width="3246" x="3808" y="18822"/><rect class="fil8" height="1961" width="381" x="8134" y="18767"/><rect class="fil8" height="1961" width="381" x="9101" y="18767"/><rect class="fil8" height="1961" width="381" x="16575" y="18767"/><rect class="fil8" height="1961" width="381" x="17543" y="18767"/><rect class="fil10" height="3003" width="12024" x="6225" y="21240"/><rect class="fil11" height="3003" width="3246" x="2978" y="21240"/><rect class="fil6" height="1832" width="3246" x="2978" y="21825"/><rect class="fil11" height="1961" width="381" x="7465" y="21712"/><rect class="fil11" height="1961" width="381" x="8433" y="21712"/><rect class="fil11" height="1961" width="381" x="15906" y="21712"/><rect class="fil11" height="1961" width="381" x="16874" y="21712"/></g><polygon class="fil10" points="18799,7348 19011,8020 19683,8232 19011,8444 18799,9116 18587,8444 17916,8232 18587,8020 "/><polygon class="fil8" points="15436,1540 15592,2035 16087,2191 15592,2347 15436,2843 15279,2347 14784,2191 15279,2035 "/><polygon class="fil3" points="6602,10293 6758,10788 7254,10945 6758,11101 6602,11596 6446,11101 5950,10945 6446,10788 "/><polygon class="fil10" points="6140,1431 6296,1926 6792,2083 6296,2239 6140,2734 5984,2239 5489,2083 5984,1926 "/><polygon class="fil7" points="13921,10913 14077,11408 14572,11564 14077,11721 13921,12216 13765,11721 13269,11564 13765,11408 "/></g></g></g></svg>