<?xml version="1.0" ?><!DOCTYPE svg  PUBLIC '-//W3C//DTD SVG 1.1//EN'  'http://www.w3.org/Graphics/SVG/1.1/DTD/svg11.dtd'><svg height="128px" style="shape-rendering:geometricPrecision; text-rendering:geometricPrecision; image-rendering:optimizeQuality; fill-rule:evenodd; clip-rule:evenodd" version="1.1" viewBox="0 0 150690 169499" width="114px" xml:space="preserve" xmlns="http://www.w3.org/2000/svg" xmlns:xlink="http://www.w3.org/1999/xlink"><defs><style type="text/css">
   <![CDATA[
    .fil0 {fill:#1C3B5C}
    .fil9 {fill:#53B4ED}
    .fil5 {fill:#6EC276}
    .fil4 {fill:#72CF7B}
    .fil8 {fill:#82C9F2}
    .fil7 {fill:#E64E60}
    .fil2 {fill:#F2B22E}
    .fil6 {fill:#FF576B}
    .fil1 {fill:#FFC42E}
    .fil3 {fill:white;fill-rule:nonzero}
   ]]>
  </style></defs><g id="Layer_x0020_1"><g id="_548185392"><path class="fil0" d="M82806 2054l60425 34888c4744,2740 7459,7443 7459,12921l0 69772c0,5478 -2715,10181 -7459,12921l-60425 34888c-4745,2739 -10176,2739 -14921,0l-60426 -34888c-4744,-2740 -7459,-7443 -7459,-12921l0 -69772c0,-5478 2715,-10181 7459,-12921l60426 -34888c4745,-2739 10176,-2739 14921,0z"/><g><circle class="fil1" cx="73884" cy="85422" r="21485"/><path class="fil2" d="M52399 85422c0,11866 9619,21485 21485,21485 11866,0 21485,-9619 21485,-21485 0,-11865 -9619,-21484 -21485,-21484 -814,0 -1618,45 -2408,133 8347,1050 14804,8175 14804,16807 0,9356 -7585,16940 -16941,16940 -8632,0 -15756,-6456 -16807,-14803 -88,790 -133,1593 -133,2407z"/></g><path class="fil3" d="M75345 48477c10016,0 19085,4060 25648,10624 6564,6564 10625,15632 10625,25648 0,10016 -4061,19085 -10625,25648 -6563,6564 -15632,10625 -25648,10625 -10016,0 -19084,-4061 -25648,-10625 -6564,-6563 -10624,-15632 -10624,-25648 0,-10016 4060,-19084 10624,-25648 6564,-6564 15632,-10624 25648,-10624zm23868 12405c-6108,-6108 -14547,-9886 -23868,-9886 -9321,0 -17760,3778 -23867,9886 -6108,6107 -9886,14546 -9886,23867 0,9321 3778,17760 9886,23868 6107,6107 14546,9886 23867,9886 9321,0 17760,-3779 23868,-9886 6108,-6108 9886,-14547 9886,-23868 0,-9321 -3778,-17760 -9886,-23867z"/><path class="fil3" d="M75345 31950c14580,0 27780,5910 37335,15465 9554,9554 15465,22754 15465,37334 0,14580 -5911,27780 -15465,37335 -9555,9554 -22755,15465 -37335,15465 -14580,0 -27780,-5911 -37334,-15465 -9555,-9555 -15465,-22755 -15465,-37335 0,-14580 5910,-27780 15465,-37334 9554,-9555 22754,-15465 37334,-15465zm35554 17245c-9098,-9098 -21669,-14727 -35554,-14727 -13885,0 -26456,5629 -35554,14727 -9098,9099 -14727,21669 -14727,35554 0,13885 5629,26456 14727,35555 9098,9098 21669,14726 35554,14726 13885,0 26456,-5628 35554,-14726 9099,-9099 14727,-21670 14727,-35555 0,-13885 -5628,-26455 -14727,-35554z"/><path class="fil3" d="M75345 12041c20077,0 38255,8138 51413,21296 13157,13157 21296,31335 21296,51412 0,20077 -8139,38255 -21296,51413 -13158,13157 -31336,21296 -51413,21296 -20077,0 -38255,-8139 -51412,-21296 -13158,-13158 -21296,-31336 -21296,-51413 0,-20077 8138,-38255 21296,-51412 13157,-13158 31335,-21296 51412,-21296zm49632 23076c-12701,-12701 -30249,-20558 -49632,-20558 -19382,0 -36930,7857 -49632,20558 -12701,12702 -20558,30250 -20558,49632 0,19383 7857,36931 20558,49632 12702,12702 30250,20558 49632,20558 19383,0 36931,-7856 49632,-20558 12702,-12701 20558,-30249 20558,-49632 0,-19382 -7856,-36930 -20558,-49632z"/><g><circle class="fil4" cx="84977" cy="50426" r="8345"/><path class="fil5" d="M76632 50426c0,4609 3736,8345 8345,8345 4609,0 8345,-3736 8345,-8345 0,-4609 -3736,-8345 -8345,-8345 -316,0 -629,17 -935,52 3242,408 5750,3175 5750,6528 0,3634 -2946,6580 -6580,6580 -3353,0 -6121,-2508 -6529,-5750 -34,306 -51,619 -51,935z"/></g><g><circle class="fil6" cx="123174" cy="103991" r="10250"/><path class="fil7" d="M112924 103991c0,5660 4589,10250 10250,10250 5660,0 10249,-4590 10249,-10250 0,-5661 -4589,-10250 -10249,-10250 -389,0 -772,22 -1149,64 3982,501 7062,3900 7062,8018 0,4463 -3618,8081 -8082,8081 -4117,0 -7516,-3080 -8017,-7062 -42,377 -64,760 -64,1149z"/></g><g><circle class="fil8" cx="37584" cy="145416" r="11588"/><path class="fil9" d="M25996 145416c0,6401 5188,11588 11588,11588 6400,0 11589,-5187 11589,-11588 0,-6400 -5189,-11588 -11589,-11588 -439,0 -872,24 -1299,72 4503,567 7985,4409 7985,9065 0,5046 -4091,9137 -9137,9137 -4656,0 -8499,-3482 -9065,-7985 -48,427 -72,860 -72,1299z"/></g></g></g></svg>