<?xml version="1.0" ?><svg viewBox="0 0 64 64" xmlns="http://www.w3.org/2000/svg"><title/><g id="outline"><path d="M38,44a5,5,0,1,1,5-5A5,5,0,0,1,38,44Zm0-8a3,3,0,1,0,3,3A3,3,0,0,0,38,36Z"/><path d="M39,52H30a1,1,0,0,1-1-1,9,9,0,0,1,9-9,8.92,8.92,0,0,1,3.86.87,1,1,0,1,1-.86,1.8A7.1,7.1,0,0,0,38,44a7,7,0,0,0-6.93,6H39a1,1,0,0,1,0,2Z"/><path d="M51,44a5,5,0,1,1,5-5A5,5,0,0,1,51,44Zm0-8a3,3,0,1,0,3,3A3,3,0,0,0,51,36Z"/><path d="M59,52H43a1,1,0,0,1-1-1,9,9,0,0,1,18,0A1,1,0,0,1,59,52ZM44.07,50H57.93a7,7,0,0,0-13.86,0Z"/><path d="M49,23H37a1,1,0,0,1,0-2H49a1,1,0,0,1,0,2Z"/><path d="M49,27H37a1,1,0,0,1,0-2H49a1,1,0,0,1,0,2Z"/><path d="M34,23a1.05,1.05,0,0,1-.71-.29l-.12-.15a.76.76,0,0,1-.09-.18A.64.64,0,0,1,33,22.2a1.36,1.36,0,0,1,0-.2,1.05,1.05,0,0,1,.29-.71A1,1,0,0,1,34.2,21l.18.06a.76.76,0,0,1,.18.09l.15.12A1.05,1.05,0,0,1,35,22a1.36,1.36,0,0,1,0,.2.64.64,0,0,1-.06.18.76.76,0,0,1-.09.18l-.12.15-.15.12a.76.76,0,0,1-.18.09L34.2,23Z"/><path d="M34,27l-.2,0-.18-.06a.76.76,0,0,1-.18-.09l-.15-.12-.12-.15a.76.76,0,0,1-.09-.18A.64.64,0,0,1,33,26.2a1.36,1.36,0,0,1,0-.2,1,1,0,0,1,.08-.38,1.15,1.15,0,0,1,.21-.33l.15-.12a.76.76,0,0,1,.18-.09L33.8,25a1,1,0,0,1,.58.06.9.9,0,0,1,.54.54A1,1,0,0,1,35,26a1.36,1.36,0,0,1,0,.2.64.64,0,0,1-.06.18.76.76,0,0,1-.09.18,1.58,1.58,0,0,1-.12.15,1.15,1.15,0,0,1-.33.21A1,1,0,0,1,34,27Z"/><path d="M14.89,31a6,6,0,1,1,6-6A6,6,0,0,1,14.89,31Zm0-10a4,4,0,1,0,4,4A4,4,0,0,0,14.89,21Z"/><path d="M20.89,52h-12a1,1,0,0,1-1-1V43.93l-2.27-1a1,1,0,0,1-.55-1.19l2.87-10a1,1,0,0,1,1-.72h12a1,1,0,0,1,.74.33L25,35l4-3.72a2.52,2.52,0,0,1,3.54.15A2.53,2.53,0,0,1,32.45,35l-7.74,7.1a1,1,0,0,1-1.34,0l-1.48-1.3V51A1,1,0,0,1,20.89,52Zm-11-2h10V38.61a1,1,0,0,1,1.66-.75L24,40l7.08-6.5a.45.45,0,0,0,.16-.34.43.43,0,0,0-.13-.36.48.48,0,0,0-.7,0l-4.79,4.39a1,1,0,0,1-.72.26,1,1,0,0,1-.7-.33L20.45,33H9.65L7.23,41.44l2,.9.13.06,4.71,2.11a.6.6,0,0,0,.83-.67.63.63,0,0,0-.26-.39l-4.14-2.6a1,1,0,1,1,1.06-1.7l4.14,2.61a2.6,2.6,0,0,1-2.45,4.57l-3.36-1.5Z"/><path d="M59,18H23a1,1,0,0,1-1-1V13a1,1,0,0,1,1-1H59a1,1,0,0,1,1,1v4A1,1,0,0,1,59,18ZM24,16H58V14H24Z"/><path d="M57,34.72a1,1,0,0,1-1-1V18H26V30.57a1,1,0,0,1-2,0V17a1,1,0,0,1,1-1H57a1,1,0,0,1,1,1V33.72A1,1,0,0,1,57,34.72Z"/></g></svg>