<?xml version="1.0" ?><svg data-name="014" id="_014" viewBox="0 0 128 128" xmlns="http://www.w3.org/2000/svg"><defs><style>.cls-1,.cls-16,.cls-20{opacity:0.3;}.cls-2{fill:#c7bff3;}.cls-12,.cls-16,.cls-19,.cls-3{fill:#fff;}.cls-4{fill:#6d6da8;}.cls-5{fill:#ecf4ff;}.cls-6,.cls-7{fill:#5cbcff;}.cls-15,.cls-6{opacity:0.3;}.cls-8{fill:#ffd397;}.cls-11,.cls-15,.cls-9{fill:#91765f;}.cls-17,.cls-9{opacity:0.2;}.cls-10{opacity:0.4;}.cls-12,.cls-13,.cls-23{opacity:0.5;}.cls-13{fill:#f5a506;}.cls-14{fill:#d4b3ae;}.cls-18{fill:#6eba99;}.cls-19{opacity:0.1;}.cls-20{fill:#768ea6;}.cls-21{fill:#eef6ff;}.cls-22{fill:#2c4b75;opacity:0.2;}.cls-24{fill:#9eb2cc;}</style></defs><title/><g class="cls-1"><path class="cls-2" d="M13.69972,23.69609A31.39087,31.39087,0,0,0,4.71381,58.49877a20.602,20.602,0,0,1,.32841,13.33031,38.72665,38.72665,0,0,0,49.54792,48.207A21.98716,21.98716,0,0,1,72.769,122.0054c14.43145,8.40388,35.28931,3.98861,43.913-17.45477a17.37145,17.37145,0,0,0,.78576-8.36358,21.53219,21.53219,0,0,1,4.00871-14.94476A29.808,29.808,0,0,0,108.79617,36.486,20.98824,20.98824,0,0,1,96.89179,23.43527,30.34475,30.34475,0,0,0,46.84771,10.48368a21.01086,21.01086,0,0,1-13.89843,5.68938A31.21493,31.21493,0,0,0,13.69972,23.69609Z"/><path class="cls-3" d="M27.50977,81a.9904.9904,0,0,1-1-1,1.03174,1.03174,0,0,1,.29-.71,1.00584,1.00584,0,0,1,.89991-.27.59983.59983,0,0,1,.18994.05957.5611.5611,0,0,1,.17041.09033.94921.94921,0,0,1,.15967.12012,1.03175,1.03175,0,0,1,.29.71.99042.99042,0,0,1-1,1Z"/><path class="cls-3" d="M28.50635,84.99951h-9a1,1,0,1,1,0-2h9a1,1,0,0,1,0,2Z"/><path class="cls-3" d="M23.50586,80.999h-5.999a1,1,0,1,1,0-2h5.999a1,1,0,0,1,0,2Z"/><path class="cls-3" d="M15.50537,84.999h-.999a1,1,0,1,1,0-2h.999a1,1,0,0,1,0,2Z"/><path class="cls-3" d="M29.50635,89H17.50586a1,1,0,0,1,0-2H29.50635a1,1,0,0,1,0,2Z"/><path class="cls-3" d="M105.50879,77.999h-1a1,1,0,0,1,0-2h1a1,1,0,0,1,0,2Z"/><path class="cls-3" d="M106.50684,81.99951H95.50635a1,1,0,0,1,0-2h11.00049a1,1,0,0,1,0,2Z"/><path class="cls-3" d="M100.50635,77.999H95.50684a1,1,0,1,1,0-2h4.99951a1,1,0,0,1,0,2Z"/><path class="cls-3" d="M92.50586,81.999h-.99951a1,1,0,0,1,0-2h.99951a1,1,0,1,1,0,2Z"/><path class="cls-3" d="M102.50635,86H94.50586a1,1,0,1,1,0-2h8.00049a1,1,0,0,1,0,2Z"/><path class="cls-4" d="M75.37695,24c-.47216,0-1.91015,0-2.18554-1.15576-.07178-.30078-.18213-.76367.55224-1.5708-.90283-.56983-2.0332-1.21-3.19287-1.79346a1.00012,1.00012,0,0,1,.89844-1.78711,35.76656,35.76656,0,0,1,3.92627,2.2334,36.35656,36.35656,0,0,1,4.05029-2.31885,1.00013,1.00013,0,0,1,.90234,1.78516c-1.208.61084-2.3833,1.28125-3.314,1.87353.74316.8086.63281,1.27393.56152,1.57569C77.30078,24,75.85254,24,75.37695,24Zm.27637-1.24414h0Z"/><path class="cls-4" d="M41.86621,14c-1.0376,0-1.64746-.34863-1.81152-1.03613a1.155,1.155,0,0,1,.21777-1.08741c-.57031-.34765-1.23926-.72167-1.90478-1.05712a1.00012,1.00012,0,1,1,.90039-1.78614A26.51574,26.51574,0,0,1,41.86426,10.498a26.97187,26.97187,0,0,1,2.68359-1.52393,1.00013,1.00013,0,0,1,.9043,1.78418c-.69678.35352-1.397.74756-1.98877,1.11133a1.15527,1.15527,0,0,1,.22314,1.09228C43.523,13.65088,42.91016,14,41.86621,14Zm-.07129-1.00928h0Z"/><path class="cls-5" d="M15.11405,11.6359A6.02242,6.02242,0,0,1,26.73614,8.86578a3.21345,3.21345,0,0,1,5.20891,2.50533c0,.09248-.0062.18342-.01393.274a4.79481,4.79481,0,0,1-1.59274,9.32607H16.68174a4.79514,4.79514,0,0,1-1.56769-9.33523Z"/><path class="cls-3" d="M15.114,13.6361A6.02243,6.02243,0,0,1,26.73613,10.866a3.21349,3.21349,0,0,1,5.20893,2.50531c0,.09253-.00623.18347-.01392.274a4.80573,4.80573,0,0,1,3.11347,3.54413A4.764,4.764,0,0,0,31.93114,11.645c.00769-.09051.01392-.18145.01392-.27392a3.21349,3.21349,0,0,0-5.20893-2.50531A6.01712,6.01712,0,0,0,15.114,11.63592a4.765,4.765,0,0,0-3.13856,5.55334A4.80626,4.80626,0,0,1,15.114,13.6361Z"/><path class="cls-6" d="M30.33837,18.97094H16.68173a4.81366,4.81366,0,0,1-4.70625-3.78186,4.75182,4.75182,0,0,0-.1137.98206,4.81,4.81,0,0,0,4.82,4.8H30.33837a4.81,4.81,0,0,0,4.82-4.8,4.75,4.75,0,0,0-.11377-.98194A4.81359,4.81359,0,0,1,30.33837,18.97094Z"/><path class="cls-4" d="M30.33838,21.97119H16.68164A5.79456,5.79456,0,0,1,14.0752,10.98877v-.01758a7.02489,7.02489,0,0,1,13.09912-3.5039A4.2189,4.2189,0,0,1,32.92676,10.981a5.79386,5.79386,0,0,1-2.58838,10.99023Zm-9.23828-16a4.98312,4.98312,0,0,0-4.99219,5.55322.99955.99955,0,0,1-.66943,1.05713,3.79536,3.79536,0,0,0,1.24316,7.38965H30.33838a3.79479,3.79479,0,0,0,1.26318-7.38183,1,1,0,0,1-.6665-1.03028c.00537-.062.00976-.12451.00976-.188A2.21331,2.21331,0,0,0,27.35645,9.6499a.99934.99934,0,0,1-1.55567-.43115A5.04733,5.04733,0,0,0,21.1001,5.97119Z"/><path class="cls-5" d="M16.68174,11.37111a4.831,4.831,0,0,0-1.58084.26413"/><path class="cls-4" d="M15.10107,12.63574a1.00025,1.00025,0,0,1-.32714-1.94531,5.81583,5.81583,0,0,1,1.90771-.31934,1,1,0,0,1,0,2,3.82555,3.82555,0,0,0-1.25342.209A.99707.99707,0,0,1,15.10107,12.63574Z"/><path class="cls-5" d="M31.93187,11.63965a4.83111,4.83111,0,0,0-1.59349-.26854"/><path class="cls-4" d="M31.93164,12.64014a.99428.99428,0,0,1-.3291-.05616,3.835,3.835,0,0,0-1.26416-.21289,1,1,0,0,1,0-2,5.81969,5.81969,0,0,1,1.92236.32422,1.00032,1.00032,0,0,1-.3291,1.94483Z"/><path class="cls-5" d="M26.75727,8.84631a3.217,3.217,0,0,0-.87391,1.04223"/><path class="cls-4" d="M25.88232,10.88867a.99991.99991,0,0,1-.88427-1.46533,4.24691,4.24691,0,0,1,1.146-1.3667.99975.99975,0,1,1,1.22657,1.5791,2.233,2.233,0,0,0-.60206.71826A1.00007,1.00007,0,0,1,25.88232,10.88867Z"/><path class="cls-5" d="M90.083,15.73635a5.98825,5.98825,0,0,1,8.90654-6.63542,7.867,7.867,0,0,1,14.1019,3.93789A5.6222,5.6222,0,0,1,111.259,23.977l-21.00068.00016a4.12224,4.12224,0,0,1-.17534-8.24086Z"/><path class="cls-3" d="M90.08293,17.98656a5.71855,5.71855,0,0,1-.15184-2.22889,4.102,4.102,0,0,0-3.631,5.24753A4.11249,4.11249,0,0,1,90.08293,17.98656Z"/><path class="cls-3" d="M95.8835,10.4774a5.962,5.962,0,0,1,3.106.87374,7.867,7.867,0,0,1,14.1019,3.93791,5.625,5.625,0,0,1,3.67278,4.217,5.62035,5.62035,0,0,0-3.67278-6.4672,7.867,7.867,0,0,0-14.1019-3.93791,5.99035,5.99035,0,0,0-9.10557,5.126,5.79009,5.79009,0,0,0,.11512,1.08559A6,6,0,0,1,95.8835,10.4774Z"/><path class="cls-7" d="M90.08293,13.4861c-.03589-.13833-.057-.28207-.08391-.42379-.02879.1463-.05.29521-.06793.44513C89.98268,13.50332,90.03084,13.4883,90.08293,13.4861Z"/><path class="cls-6" d="M111.259,21.72682,90.2583,21.727a4.12416,4.12416,0,0,1-3.95824-2.972,4.07671,4.07671,0,0,0-.16649,1.09739,4.12478,4.12478,0,0,0,4.12473,4.12482L111.259,23.977a5.5728,5.5728,0,0,0,5.50517-6.72126A5.626,5.626,0,0,1,111.259,21.72682Z"/><path class="cls-4" d="M111.25879,24.977H90.2583A5.12335,5.12335,0,0,1,88.919,14.9082a6.67861,6.67861,0,0,1-.03516-.68115A6.98922,6.98922,0,0,1,98.73926,7.8418a8.86722,8.86722,0,0,1,15.26318,4.48535,6.62179,6.62179,0,0,1-2.74365,12.6499ZM95.8833,9.22705a4.979,4.979,0,0,0-4.83252,6.25781,1,1,0,0,1-.92578,1.25049,3.12223,3.12223,0,0,0,.1333,6.2417h21.00049a4.622,4.622,0,0,0,1.50635-8.99267.99937.99937,0,0,1-.66846-.84327,6.86719,6.86719,0,0,0-12.311-3.43554,1.00181,1.00181,0,0,1-1.31543.25A4.9862,4.9862,0,0,0,95.8833,9.22705Z"/><path class="cls-4" d="M112.749,17.28955a1.00114,1.00114,0,0,1-.95117-1.30957,6.88072,6.88072,0,0,0-6.53906-9.00293,1,1,0,0,1,0-2,8.88146,8.88146,0,0,1,8.44141,11.62109A1.00132,1.00132,0,0,1,112.749,17.28955Z"/><path class="cls-4" d="M92.97461,17.749a.99576.99576,0,0,1-.65869-.248,3.11851,3.11851,0,0,0-2.05762-.77344,1,1,0,1,1,0-2,5.11667,5.11667,0,0,1,3.376,1.26953,1,1,0,0,1-.65967,1.752Z"/><path class="cls-4" d="M100.7627,11.7334a.99917.99917,0,0,1-.81348-.417A5.01655,5.01655,0,0,0,95.8833,9.22705a1,1,0,0,1,0-2,7.02109,7.02109,0,0,1,5.69092,2.92334,1,1,0,0,1-.81152,1.583Z"/></g><rect class="cls-8" height="8.005" width="120" x="3.998" y="102.026"/><rect class="cls-9" height="2" width="120" x="4" y="105.00031"/><g class="cls-10"><path class="cls-11" d="M13.09033,107.00049H13a1,1,0,0,1,0-2,1.03938,1.03938,0,0,1,1.04492,1A.96229.96229,0,0,1,13.09033,107.00049Z"/><path class="cls-11" d="M69.09033,107.00049H69a1,1,0,0,1,0-2,1.03938,1.03938,0,0,1,1.04492,1A.96229.96229,0,0,1,69.09033,107.00049Z"/><path class="cls-11" d="M118.5,107.00049h-8a1,1,0,0,1,0-2h8a1,1,0,0,1,0,2Z"/><path class="cls-11" d="M35,107.00049H24a1,1,0,0,1,0-2H35a1,1,0,1,1,0,2Z"/><path class="cls-11" d="M81,107.00049H78a1,1,0,0,1,0-2h3a1,1,0,0,1,0,2Z"/><path class="cls-11" d="M102,107.00049H90a1,1,0,0,1,0-2h12a1,1,0,0,1,0,2Z"/><path class="cls-11" d="M62,107.00049H45.14062a1,1,0,0,1,0-2H62a1,1,0,1,1,0,2Z"/><path class="cls-11" d="M9,107.00049H5a1,1,0,0,1,0-2H9a1,1,0,0,1,0,2Z"/></g><rect class="cls-12" height="8.00513" width="3" x="3.99805" y="102.02588"/><rect class="cls-13" height="8.00513" width="3" x="120.99805" y="102.02588"/><rect class="cls-14" height="5.005" width="112" x="7.998" y="110.026"/><rect class="cls-15" height="5.00513" width="3" x="116.99805" y="110.02588"/><rect class="cls-16" height="5.00513" width="3" x="7.99805" y="110.02588"/><rect class="cls-8" height="73.005" width="112" x="7.998" y="29.026"/><g class="cls-17"><rect class="cls-11" height="2" width="112" x="8" y="42.00031"/><rect class="cls-11" height="2" width="112" x="8" y="37.00031"/><rect class="cls-11" height="2" width="112" x="8" y="32.00031"/><rect class="cls-11" height="2" width="112" x="8" y="47.00031"/><rect class="cls-11" height="2" width="112" x="8" y="52.00031"/><rect class="cls-11" height="2" width="112" x="8" y="66.00031"/><rect class="cls-11" height="2" width="112" x="8" y="61.00031"/><rect class="cls-11" height="2" width="112" x="8" y="56.00031"/><rect class="cls-11" height="2" width="112" x="8" y="71.00031"/><rect class="cls-11" height="2" width="112" x="8" y="76.00031"/><rect class="cls-11" height="2" width="112" x="8" y="90.00031"/><rect class="cls-11" height="2" width="112" x="8" y="85.00031"/><rect class="cls-11" height="2" width="112" x="8" y="80.00031"/><rect class="cls-11" height="2" width="112" x="8" y="95.00031"/></g><g class="cls-10"><path class="cls-11" d="M17,44.00049H8a1,1,0,0,1,0-2h9a1,1,0,0,1,0,2Z"/><path class="cls-11" d="M15,39a.99042.99042,0,0,1-1-1,.9996.9996,0,0,1,.07959-.38037.90759.90759,0,0,1,.54-.54,1.00443,1.00443,0,0,1,.76025,0A1.03548,1.03548,0,0,1,15.71,37.29a.98544.98544,0,0,1-.33008,1.62988A.83792.83792,0,0,1,15,39Z"/><path class="cls-11" d="M17.09033,34.00049H17a1,1,0,0,1,0-2,1.03938,1.03938,0,0,1,1.04492,1A.96229.96229,0,0,1,17.09033,34.00049Z"/><path class="cls-11" d="M116,54.00049H103a1,1,0,0,1,0-2h13a1,1,0,0,1,0,2Z"/><path class="cls-11" d="M115.5,34.00049h-1a1,1,0,0,1,0-2h1a1,1,0,0,1,0,2Z"/><path class="cls-11" d="M28,34.00049H26a1,1,0,0,1,0-2h2a1,1,0,0,1,0,2Z"/><path class="cls-11" d="M54,34.00049H37a1,1,0,0,1,0-2H54a1,1,0,0,1,0,2Z"/><path class="cls-11" d="M87,34.00049H76a1,1,0,0,1,0-2H87a1,1,0,0,1,0,2Z"/><path class="cls-11" d="M105,34.00049H98a1,1,0,0,1,0-2h7a1,1,0,0,1,0,2Z"/><path class="cls-11" d="M65.14062,34.00049H65a1,1,0,0,1,0-2h.14062a1,1,0,0,1,0,2Z"/><path class="cls-11" d="M13,34.00049H9a1,1,0,0,1,0-2h4a1,1,0,0,1,0,2Z"/><path class="cls-11" d="M116,44.00049h-3a1,1,0,0,1,0-2h3a1,1,0,0,1,0,2Z"/><path class="cls-11" d="M14,44a1.00405,1.00405,0,0,1-.71-1.71,1.15317,1.15317,0,0,1,.32959-.21045A1.03785,1.03785,0,0,1,14.71,42.29,1,1,0,0,1,14,44Z"/><path class="cls-11" d="M11.13428,54.00049H11a1,1,0,0,1,0-2h.13428a1,1,0,1,1,0,2Z"/><path class="cls-11" d="M120,49.00049h-3a1,1,0,0,1,0-2h3a1,1,0,0,1,0,2Z"/><path class="cls-11" d="M11,49.00049H8a1,1,0,0,1,0-2h3a1,1,0,0,1,0,2Z"/><path class="cls-11" d="M11.60254,63.00049H11a1,1,0,0,1,0-2h.60254a1,1,0,1,1,0,2Z"/><path class="cls-11" d="M120,78.00049h-2a1,1,0,0,1,0-2h2a1,1,0,0,1,0,2Z"/><path class="cls-11" d="M117,63.00049h-9a1,1,0,0,1,0-2h9a1,1,0,0,1,0,2Z"/><path class="cls-11" d="M13,58.00049H12a1,1,0,0,1,0-2h1a1,1,0,0,1,0,2Z"/><path class="cls-11" d="M119,68.00049h-1a1,1,0,0,1,0-2h1a1,1,0,0,1,0,2Z"/><path class="cls-11" d="M11.10889,78.00049H11a1,1,0,0,1,0-2h.10889a1,1,0,1,1,0,2Z"/><path class="cls-11" d="M11,73.00049H8a1,1,0,0,1,0-2h3a1,1,0,0,1,0,2Z"/><path class="cls-11" d="M15,87.00049H13a1,1,0,0,1,0-2h2a1,1,0,0,1,0,2Z"/><path class="cls-11" d="M15,87a1.00405,1.00405,0,0,1-.71-1.71,1.15317,1.15317,0,0,1,.32959-.21045,1.00443,1.00443,0,0,1,.76025,0A1.03548,1.03548,0,0,1,15.71,85.29,1,1,0,0,1,15,87Z"/><path class="cls-11" d="M115.5,82.00049h-1a1,1,0,0,1,0-2h1a1,1,0,0,1,0,2Z"/><path class="cls-11" d="M119,92.00049h-6a1,1,0,0,1,0-2h6a1,1,0,0,1,0,2Z"/><path class="cls-11" d="M116,97.00049h-6a1,1,0,0,1,0-2h6a1,1,0,0,1,0,2Z"/><path class="cls-11" d="M11,97.00049H8a1,1,0,0,1,0-2h3a1,1,0,0,1,0,2Z"/></g><rect class="cls-12" height="3" width="112" x="7.99805" y="29.02588"/><rect class="cls-13" height="3" width="112" x="7.99805" y="99.02588"/><path class="cls-4" d="M119.99805,103.03076h-112a1,1,0,0,1-1-1V29.02588a1,1,0,0,1,1-1h112a1.00005,1.00005,0,0,1,1,1v73.00488A1.00005,1.00005,0,0,1,119.99805,103.03076Zm-111-2h110V30.02588h-110Z"/><rect class="cls-18" height="67.005" width="100" x="13.998" y="35.026"/><path class="cls-19" d="M40.7233,54.81018,66.8591,50.87l-1.32919-4.8214A201.3176,201.3176,0,0,1,31.77719,56.90177c-3.166.7183-1.79873,5.39909,1.3292,4.82139q29.4059-5.431,59.10808-8.95118l-.6646-4.9107c-8.66508,3.45429-17.9613,4.882-27.10358,6.49779q-15.09989,2.66874-30.29662,4.72525l1.3292,4.8214c10.65218-2.844,21.67658-3.26214,32.62866-3.9185,10.95725-.65667,21.9197-1.20413,32.89247-1.519l-1.2618-4.65867c-4.682,2.5779-11.55352,2.59634-16.77185,3.43577q-9.07814,1.46033-18.18055,2.764-18.83136,2.69613-37.75112,4.69908l.6646,4.91069c18.719-4.24512,37.8161-5.91922,56.90668-7.50657l-.6646-4.9107c-8.164,3.30836-16.9981,4.3885-25.65683,5.66091-9.81538,1.44239-19.66342,2.64588-29.50995,3.85232-3.11233.38134-3.26453,5.24554,0,5,19.41843-1.4605,38.843-2.8825,58.32109-3.17479l-1.76776-4.26777c-1.725,1.51853-5.53392,1.38727-7.72058,1.688q-5.07791.69843-10.17639,1.22571c-6.06389.63037-12.14149,1.07284-18.23,1.37856l.6646,4.9107a212.39806,212.39806,0,0,1,36.31873-5.339l-.6646-4.91069a481.80021,481.80021,0,0,1-62.478,8.34836v5A582.21163,582.21163,0,0,1,91.23464,72.5804L90.57,67.6697c-7.527,2.75994-15.7777,3.64618-23.678,4.76754C58.08959,73.68666,49.25274,74.676,40.4187,75.671l.6646,4.9107a178.351,178.351,0,0,1,33.24446-3.15748l-.6646-4.9107c-16.42742,5.0367-33.45914,6.9027-50.48979,8.62917l.6646,4.91069c11.56133-2.1189,23.40815-2.09749,35.121-2.51985l33.98265-1.22542-.6646-4.9107C82.15334,80.798,71.137,81.4429,60.57531,82.57743c-10.48322,1.1261-20.98521,2.06378-31.491,2.95144l.6646,4.9107q16.02708-2.8619,32.24822-4.165c3.18542-.25662,3.213-5.25884,0-5q-16.89324,1.36092-33.57742,4.34355c-2.74959.491-2.14681,5.14824.6646,4.9107,11.14239-.94146,22.28064-1.93962,33.39659-3.15818,10.358-1.13548,21.19461-1.81617,31.12529-5.15191,2.56113-.86029,2.28491-5.01706-.6646-4.9107L57.01711,78.60352c-11.53671.416-23.12153.54152-34.50834,2.62844-2.73972.50212-2.1486,5.19588.6646,4.9107,17.463-1.77031,34.97236-3.64254,51.819-8.80778,2.65681-.81458,2.21754-4.91623-.6646-4.91069A185.57856,185.57856,0,0,0,39.7541,75.76028c-2.73029.52224-2.14983,5.22767.6646,4.91069,8.63194-.97216,17.26384-1.95043,25.86892-3.14126,8.52021-1.17908,17.49942-2.06411,25.61162-5.03862,2.54319-.93251,2.304-4.91016-.6646-4.91069a582.21188,582.21188,0,0,0-68.19293,3.99365c-3.11715.36694-3.26715,5.22061,0,5a492.19313,492.19313,0,0,0,63.80715-8.527c2.74089-.55065,2.15369-5.09965-.6646-4.9107A220.32222,220.32222,0,0,0,48.53633,68.654c-2.70337.66053-2.18032,5.05355.6646,4.91069,7.691-.38619,15.3645-1.00213,23.01222-1.91013,5.16041-.61269,12.57511-.25921,16.65029-3.84664,1.64613-1.4491.31814-4.29906-1.76777-4.26776C67.61759,63.83249,48.193,65.25449,28.77458,66.715v5c9.64076-1.18123,19.28214-2.36506,28.89642-3.74853,9.28353-1.33588,18.84812-2.39689,27.59956-5.9433,2.36561-.95863,2.40794-5.16617-.6646-4.9107-19.53167,1.624-39.08467,3.342-58.23587,7.68518-2.69348.61083-2.17261,5.21462.66459,4.9107q19.5816-2.09762,39.08032-4.87768,9.58111-1.371,19.13614-2.91769c5.50529-.89115,12.04308-1.051,17.01066-3.7861A2.51879,2.51879,0,0,0,101,53.46819c-11.63789.334-23.264.93151-34.88461,1.63948-10.7408.65437-21.52219,1.18839-31.96572,3.97665-3.20566.85587-1.75573,5.24283,1.3292,4.8214q15.19248-2.07545,30.29662-4.72525c9.14228-1.6158,18.4385-3.04351,27.10358-6.49779,2.35729-.93972,2.39038-5.27159-.6646-4.9107q-30.362,3.58676-60.43728,9.12979l1.3292,4.82139A201.31771,201.31771,0,0,0,66.8591,50.87a2.5024,2.5024,0,0,0-1.32919-4.8214L39.3941,49.98878c-3.17107.47807-1.82366,5.29672,1.3292,4.8214Z"/><rect class="cls-20" height="3.005" width="100" x="13.998" y="35.026"/><path class="cls-4" d="M113.99805,103.03076h-100a1,1,0,0,1-1-1V35.02588a1,1,0,0,1,1-1h100a1.00005,1.00005,0,0,1,1,1v67.00488A1.00005,1.00005,0,0,1,113.99805,103.03076Zm-99-2h98V36.02588h-98Z"/><path class="cls-4" d="M123.99805,111.03076h-120a1,1,0,0,1-1-1v-8.00488a1,1,0,0,1,1-1h120a1.00005,1.00005,0,0,1,1,1v8.00488A1.00005,1.00005,0,0,1,123.99805,111.03076Zm-119-2h118v-6.00488h-118Z"/><rect class="cls-21" height="4.005" width="18" x="33.998" y="98.026"/><rect class="cls-3" height="4.00513" width="3" x="33.99805" y="98.02588"/><rect class="cls-22" height="4.00513" width="3" x="48.99805" y="98.02588"/><path class="cls-4" d="M51.99805,103.03076h-18a1,1,0,0,1-1-1V98.02588a1,1,0,0,1,1-1h18a1.00005,1.00005,0,0,1,1,1v4.00488A1.00005,1.00005,0,0,1,51.99805,103.03076Zm-17-2h16V99.02588h-16Z"/><rect class="cls-21" height="6.005" width="20" x="86.998" y="96.026"/><rect class="cls-3" height="6.00513" width="3" x="86.99805" y="96.02588"/><rect class="cls-22" height="6.00513" width="3" x="103.99805" y="96.02588"/><path class="cls-4" d="M106.99805,103.03076h-20a1,1,0,0,1-1-1V96.02588a1,1,0,0,1,1-1h20a1.00005,1.00005,0,0,1,1,1v6.00488A1.00005,1.00005,0,0,1,106.99805,103.03076Zm-19-2h18V97.02588h-18Z"/><g class="cls-23"><path class="cls-4" d="M91,100.03125a1,1,0,0,1-1-1v-3a1,1,0,0,1,2,0v3A1,1,0,0,1,91,100.03125Z"/><path class="cls-4" d="M99,100.03125a1,1,0,0,1-1-1v-3a1,1,0,0,1,2,0v3A1,1,0,0,1,99,100.03125Z"/><path class="cls-4" d="M103,103.03125a1,1,0,0,1-1-1v-3a1,1,0,0,1,2,0v3A1,1,0,0,1,103,103.03125Z"/><path class="cls-4" d="M95,103.03125a1,1,0,0,1-1-1v-1a1,1,0,0,1,2,0v1A1,1,0,0,1,95,103.03125Z"/><path class="cls-4" d="M95,99.03125a1,1,0,0,1-1-1v-2a1,1,0,0,1,2,0v2A1,1,0,0,1,95,99.03125Z"/></g><rect class="cls-24" height="4.005" width="22" x="85.998" y="92.026"/><rect class="cls-16" height="4.00513" width="3" x="85.99805" y="92.02588"/><rect class="cls-22" height="4.00513" width="3" x="104.99805" y="92.02588"/><path class="cls-4" d="M107.99805,97.03076h-22a1,1,0,0,1-1-1V92.02588a1,1,0,0,1,1-1h22a1.00005,1.00005,0,0,1,1,1v4.00488A1.00005,1.00005,0,0,1,107.99805,97.03076Zm-21-2h20V93.02588h-20Z"/><path class="cls-4" d="M103.99805,93.03076a1,1,0,0,1-1-1V90.02588h-12v2.00488a1,1,0,1,1-2,0V90.02588a2.002,2.002,0,0,1,2-2h12a2.002,2.002,0,0,1,2,2v2.00488A1.00005,1.00005,0,0,1,103.99805,93.03076Z"/><path class="cls-4" d="M119.99805,116.03076h-112a1,1,0,0,1-1-1v-5.00488a1,1,0,0,1,1-1h112a1.00005,1.00005,0,0,1,1,1v5.00488A1.00005,1.00005,0,0,1,119.99805,116.03076Zm-111-2h110v-3.00488h-110Z"/><path class="cls-3" d="M25.30242,71.81273c2.21093-2.32739,4.20444-4.67714,4.67917-7.94524l-2.45535-.3323a63.88905,63.88905,0,0,0,1.27232,19.13388c.33457,1.57279,2.74506.90721,2.4107-.6646a61.8269,61.8269,0,0,1-1.183-18.46928c.15535-1.38635-2.25279-1.72675-2.45535-.3323-.41345,2.84628-2.11026,4.81464-4.03624,6.84207-1.10793,1.16628.65694,2.9371,1.76777,1.76777Z"/><path class="cls-3" d="M37.42345,73.30789a46.02722,46.02722,0,0,1,9.97606-2.03148c1.59-.141,1.60484-2.6423,0-2.5a49.04492,49.04492,0,0,0-10.64066,2.12078c-1.52682.48748-.87423,2.902.6646,2.4107Z"/><path class="cls-3" d="M44.54323,75.81139a46.02746,46.02746,0,0,1-2.03148-9.97606c-.141-1.59-2.64229-1.60485-2.5,0A49.045,49.045,0,0,0,42.13253,76.476c.48748,1.52682,2.902.87423,2.4107-.66459Z"/><path class="cls-3" d="M55.22549,65.30173c-.42878-1.26843-1.07225-2.05393-.28352-3.234a3.573,3.573,0,0,1,3.10882-1.3571c3.96317.00554,3.20834,3.91741,2.79912,6.411a11.48289,11.48289,0,0,1-2.47309,5.9487,22.18327,22.18327,0,0,0-2.91508,3.36313,1.25913,1.25913,0,0,0,1.07934,1.8809q6.30912-.6979,12.52744-1.925c1.57674-.31272.9093-2.72286-.6646-2.4107q-5.89734,1.16962-11.86284,1.83566l1.07934,1.8809c1.06172-1.81561,2.887-2.96158,3.95709-4.78418a14.61409,14.61409,0,0,0,1.63391-4.75539c.461-2.48975,1.51878-6.789-.66064-8.76435-1.86166-1.68731-5.198-1.45989-7.34718-.62873-3.96091,1.53183-3.5903,3.64951-2.3888,7.20372.51248,1.516,2.928.86553,2.41069-.6646Z"/><path class="cls-3" d="M74.7202,62.33632q4.90221-1.35087,9.88615-2.34732c1.57633-.31518.9091-2.72535-.6646-2.4107q-4.98623.997-9.88615,2.34732a1.25107,1.25107,0,0,0,.6646,2.4107Z"/><path class="cls-3" d="M76.15533,68.64241q4.36077-1.26484,8.80614-2.17646c1.575-.32292.90841-2.73322-.6646-2.41069q-4.448.912-8.80614,2.17646a1.25107,1.25107,0,0,0,.6646,2.41069Z"/></svg>