<?xml version="1.0" ?><svg viewBox="0 0 512 512" xmlns="http://www.w3.org/2000/svg"><defs><style>.cls-1{fill:#767c93;}.cls-2{opacity:0.3;}.cls-3{fill:#3f456b;}.cls-4{opacity:0.2;}.cls-5{fill:#fff;}.cls-6{fill:#f4b78e;}.cls-7{fill:#f2f2f2;}.cls-8{opacity:0.7;}.cls-9{fill:#f9f9f9;}.cls-10{opacity:0.1;}</style></defs><title/><g id="Colors"><path class="cls-1" d="M460.49,43.28A19.32,19.32,0,0,1,480.35,62l9.5,332.1A19.32,19.32,0,0,1,471.1,414L46.32,426.15a19.32,19.32,0,0,1-19.86-18.76L17,75.3A19.31,19.31,0,0,1,35.72,55.44L460.49,43.28"/><g class="cls-2"><path class="cls-3" d="M370.72,419.18l89.83-2.41s28.71,2.08,29-21.58-8.83-327.31-8.83-327.31,2.86-26.61-31.29-22.28c0,0,15.46,2.43,16.15,23s8.32,305.87,8.32,305.87,3.08,25.1-14.82,25.58c-5.2.14-41.28,1.25-89.84,2.75"/></g><g class="cls-4"><path class="cls-5" d="M458,43.18C430,44.37,46.13,54.6,46.13,54.6s-28.71-2.08-29,21.58,8.83,327.31,8.83,327.31-2.86,26.62,31.29,22.29c0,0-12.25-.78-12.94-21.39s-9.41-320-9.41-320-.65-13.14,10.18-13.14c17.9,0,403.31-12.42,403.31-12.42s34.83-4.6,32.57,27.95c0,0,5.09-44.83-22.94-43.64"/></g><path class="cls-6" d="M56.57,425.85,37,427.32a9,9,0,0,0-8.77,9.33l1.66,38.72a9.06,9.06,0,0,0,9.33,8.77l312.33-9.58L410,472.77l79.11-2.43a9.06,9.06,0,0,0,8.78-9.33l-1.67-38.73a9.06,9.06,0,0,0-9.33-8.77l-14,.35"/><g class="cls-2"><rect class="cls-3" height="12.29" transform="translate(-14.21 8.27) rotate(-1.74)" width="466.54" x="31.12" y="464.68"/></g><g class="cls-4"><rect class="cls-5" height="12.29" transform="translate(-12.84 8.22) rotate(-1.74)" width="466.54" x="30.12" y="419.67"/></g><g class="cls-2"><path class="cls-3" d="M369.27,400.84c-118.39,3.67-310.95,9.67-310.95,9.67s-34.83,4.6-32.57-28c0,0-5.09,44.84,22.94,43.65,19.27-.82,206.76-5.92,322-9"/></g><g class="cls-2"><path class="cls-3" d="M421.61,430.44a8.19,8.19,0,0,1-6,9.94l-32.6,8.13a8.21,8.21,0,0,1-9.94-6L337,297.84a8.18,8.18,0,0,1,6-9.93l32.59-8.13a8.2,8.2,0,0,1,9.94,6Z"/></g><path class="cls-7" d="M402.61,419.44a8.19,8.19,0,0,1-6,9.94l-32.6,8.13a8.21,8.21,0,0,1-9.94-6L318,286.84a8.18,8.18,0,0,1,6-9.93l32.59-8.13a8.2,8.2,0,0,1,9.94,6Z"/><g class="cls-8"><rect class="cls-9" height="165.52" transform="translate(-75.48 95.85) rotate(-14.01)" width="10.65" x="347.04" y="272.36"/></g><g class="cls-10"><rect class="cls-3" height="12.29" transform="translate(-94.48 107.95) rotate(-14.43)" width="47.38" x="355.45" y="421"/></g><g class="cls-10"><rect class="cls-3" height="165.52" transform="translate(-73.4 101.25) rotate(-14.01)" width="15.57" x="367.64" y="266.61"/></g><g class="cls-8"><rect class="cls-9" height="12.29" transform="translate(-58.75 94.18) rotate(-14.43)" width="47.38" x="318.95" y="272.99"/></g><g class="cls-8"><path class="cls-5" d="M76,278a5,5,0,0,1-5-4.94c0-4.63-.72-113.25,55.72-114.78,8.36-.49,25.22,5.45,30,31.53,5.24,28.85,5.31,69.71,5.31,71.43a5,5,0,0,1-10,0c0-.41-.07-41.68-5.15-69.64-4.37-24.06-19.42-23.34-19.57-23.33h-.2C108,168.75,94.46,186,86.79,219.59,80.76,246,81,272.67,81,272.94A5,5,0,0,1,76.06,278Z"/><path class="cls-5" d="M79.22,237.55a5,5,0,0,1-.72-9.94c.45-.07,45.37-6.62,76.64-9.22a5,5,0,1,1,.83,10c-31,2.57-75.57,9.07-76,9.14A4.56,4.56,0,0,1,79.22,237.55Z"/><path class="cls-5" d="M222.34,272.66c-1.87,0-3.67-.08-5.41-.23a5,5,0,0,1-4.41-3.71L175.66,128a5,5,0,0,1,.48-3.72c.47-.84,11.9-20.51,40.06-20.51,11.12,0,20.73,3.75,27.79,10.85,7.32,7.37,11.32,17.76,11.25,29.27-.07,12-5.39,23-15.08,31.7a48.85,48.85,0,0,1,16.09,3.31c12.4,5,21.17,15.21,26.06,30.45,5,15.57,2.94,29.67-5.93,40.8C264.28,265.28,240.7,272.66,222.34,272.66Zm-1.06-10c21.71.63,40.51-10.3,47.28-18.79s8.21-19.1,4.23-31.5S262,192,252.53,188.15c-18-7.2-41.13,2.11-49.23,5.88Zm-35.38-135,14.83,56.58a110.5,110.5,0,0,1,15.62-5.6l.23-.11c18.13-7.6,28.58-20.25,28.66-34.69,0-8.82-2.91-16.69-8.34-22.16-5.15-5.17-12.3-7.9-20.7-7.9C198.08,113.74,188.86,123.67,185.9,127.62Z"/><path class="cls-5" d="M367.5,223.52c-17.44,0-37.85-2.65-52.85-12.63a45.57,45.57,0,0,1-20.1-30.29c-3.14-16.22-.43-30,8.07-41.1,16.93-22,50.61-24.55,52-24.65a5,5,0,0,1,.69,10h0c-.31,0-30.68,2.37-44.83,20.8-6.65,8.67-8.72,19.8-6.15,33.07a35.4,35.4,0,0,0,15.81,23.85c27.77,18.51,80.28,7.92,80.8,7.81a5,5,0,0,1,2,9.8A191.78,191.78,0,0,1,367.5,223.52Z"/></g><g class="cls-8"><path class="cls-5" d="M105,335a5,5,0,0,1-1.34-9.82c.73-.2,73.32-20.19,145-25.17a5,5,0,1,1,.7,10c-70.68,4.91-142.3,24.63-143,24.83A5.2,5.2,0,0,1,105,335Z"/></g><g class="cls-8"><path class="cls-5" d="M157,354a5,5,0,0,1-1.15-9.87c.38-.09,38.78-9.12,78.65-13.11a5,5,0,0,1,1,10,677.94,677.94,0,0,0-77.35,12.89A5,5,0,0,1,157,354Z"/></g></g><g id="Lines"><path class="cls-3" d="M362.07,442.75a13.21,13.21,0,0,1-12.81-10l-36.09-144.7a13.21,13.21,0,0,1,9.6-16l32.6-8.14a13.22,13.22,0,0,1,16,9.61l36.1,144.7a13.22,13.22,0,0,1-9.61,16l-32.6,8.13A13,13,0,0,1,362.07,442.75Zm-3.5-169.22a3,3,0,0,0-.78.1l-32.6,8.13a3.19,3.19,0,0,0-2.32,3.87L359,430.33a3.19,3.19,0,0,0,3.87,2.33l32.6-8.13a3.21,3.21,0,0,0,2-1.46,3.16,3.16,0,0,0,.36-2.42h0L361.67,276a3.22,3.22,0,0,0-3.1-2.42Z"/><path class="cls-3" d="M403.22,420.94l-.29-10L471,409a14.31,14.31,0,0,0,13.9-14.72l-9.5-332.1a14.34,14.34,0,0,0-14.72-13.9l-.28-10a24.34,24.34,0,0,1,25,23.61L494.85,394a24.32,24.32,0,0,1-23.61,25Z"/><path class="cls-3" d="M45.76,431.16a24.34,24.34,0,0,1-24.3-23.62L12,75.44a24.32,24.32,0,0,1,23.61-25L460.35,38.29l.28,10L35.86,60.43A14.33,14.33,0,0,0,22,75.15l9.5,332.1a14.31,14.31,0,0,0,14.72,13.9L349.85,412l.3,10L46.47,431.15Z"/><path class="cls-3" d="M39,489.15a14.07,14.07,0,0,1-14-13.63l-1.67-38.66a14.07,14.07,0,0,1,13.5-14.54l19.46-1.45.74,10L37.38,432.3h-.21a4,4,0,0,0-2.83,1.28,4,4,0,0,0-1.1,2.9l1.66,38.66a4.1,4.1,0,0,0,4.18,4L489,465.34a4,4,0,0,0,3.93-4.18l-1.67-38.66a4,4,0,0,0-1.27-2.89,4.1,4.1,0,0,0-2.91-1.1l-14,.35-.25-10,14-.35a14.05,14.05,0,0,1,14.45,13.62l1.66,38.66a14.06,14.06,0,0,1-13.62,14.55L39.39,489.14Z"/><path class="cls-3" d="M57.53,459.5a5,5,0,0,1-5-4.65l-.07-1a5,5,0,1,1,10-.7l.07,1a5,5,0,0,1-4.64,5.34Z"/><path class="cls-3" d="M468.53,446.5a5,5,0,0,1-5-4.65l-.07-1a5,5,0,1,1,10-.7l.07,1a5,5,0,0,1-4.64,5.34Z"/></g></svg>