<?xml version="1.0" ?><svg enable-background="new 0 0 318.0118 299.5581" id="Layer_1" version="1.1" viewBox="0 0 318.0118 299.5581" xml:space="preserve" xmlns="http://www.w3.org/2000/svg" xmlns:xlink="http://www.w3.org/1999/xlink"><g><polygon points="87.1068,215.1199 160.1199,215.1199 160.1199,289.8914 111.8223,289.8914 111.8223,298.5581 215.2789,298.5581    215.2789,289.8914 175.6199,289.8914 175.6199,215.1199 215.2789,215.1199 215.2789,209.4235 87.1068,209.4235  "/><path d="M196.3692,200.2087h-44.5615v6h46.333c1.0928,0,2.0986-0.5942,2.627-1.5508l24.917-45.1665l-5.2539-2.8984   L196.3692,200.2087z"/><path d="M103.7071,206.2627c0.3418,0.0576,0.6807,0.0859,1.0156,0.0859c0.4183,0,0.8254-0.0559,1.2244-0.1399h30.2881v-1.8335   h-27.0909c0.7472-0.8195,1.2864-1.8447,1.4867-3.0188c0.0537-0.3149,0.0742-0.6272,0.0781-0.9369l-17.3135,4.0852   L103.7071,206.2627z"/><ellipse cx="79.9184" cy="143.5953" rx="20.9092" ry="20.9102" transform="matrix(0.9996 -0.0294 0.0294 0.9996 -4.1833 2.4094)"/><path d="M94.9503,224.8877c-1.5342-3.7646-5.1953-6.2256-9.2607-6.2256l-16.1274,0.0006   c0.0819-6.3204,1.1035-12.8483,2.3723-18.9786l-14.438-12.5586c-1.6729-1.4551-2.6787-3.4746-2.833-5.6855   c-0.1543-2.2119,0.5625-4.3516,2.0176-6.0244c1.5771-1.8125,3.8613-2.8525,6.2666-2.8525c2,0,3.9336,0.7236,5.4434,2.0371   l11.8472,10.3049l-4.9514-11.7068c-1.3716-3.7622-4.1074-6.7124-8.0254-7.5396c-7.5929-1.6024-18.6984,2.291-23.381,14.1494   c-6.3348,16.3398-7.8115,26.9365-5.791,44.7988c0.7491,3.7461,2.109,6.5016,3.8583,8.5281   c-6.8905,0.3088-12.9851,0.9019-16.8209,1.7795l-11.2096-29.8531c4.7797,7.4564,9.705,11.6842,13.022,10.4387   c5.3257-1.9998-17.6995-63.3193-23.0251-61.3196c-4.3408,1.63-4.5862,12.1285-1.0862,25.1244   c-0.3951-0.053-0.8064-0.0237-1.2056,0.1257c-1.293,0.4854-1.9473,1.9268-1.4619,3.2197l20.8574,55.5469   c0.0574,0.1526,0.1318,0.293,0.2141,0.427c1.9565,4.2896,12.3118,7.7253,25.6604,8.6052v4.6886h4.2505v24.2098l-29.25,9v3.6836   c-1.8743,0.9243-3.1672,2.8486-3.1672,5.0798c0,3.1296,2.5371,5.6667,5.6667,5.6667s5.6667-2.5371,5.6667-5.6667   c0-2.2262-1.2869-4.147-3.1545-5.0737l24.2383-7.4579v7.4518c-1.8743,0.9243-3.1672,2.8486-3.1672,5.0798   c0,3.1296,2.5371,5.6667,5.6667,5.6667s5.6667-2.5371,5.6667-5.6667c0-2.2307-1.2924-4.1549-3.1663-5.0793v-7.4523l24.2378,7.4578   c-1.8679,0.9266-3.155,2.8475-3.155,5.0739c0,3.1296,2.5371,5.6667,5.6667,5.6667s5.6667-2.5371,5.6667-5.6667   c0-2.2307-1.2924-4.1549-3.1663-5.0793v-3.6841l-29.25-9v-24.2098h4.2495v-4.6886c8.4128-0.5546,15.6375-2.124,20.3206-4.2832   l11.0598,27.1406c1.5811,3.8789,5.3193,6.2285,9.2646,6.2285c1.2559,0,2.5342-0.2393,3.7705-0.7422   c5.1143-2.085,7.5703-7.9199,5.4863-13.0352L94.9503,224.8877z"/><path d="M111.421,183.2285l-13.7988-16.6692l-3.3379,2.7632l12.4078,14.989l4.1783-0.9858   C111.052,183.2827,111.237,183.2593,111.421,183.2285z"/><path d="M118.4642,197.4358l4.5457,3.1898l-2.6521-5.874C119.911,195.7603,119.2692,196.6741,118.4642,197.4358z"/><path d="M66.8812,176.3354c-2.499-2.1748-6.29-1.9102-8.4648,0.5898s-1.9102,6.29,0.5898,8.4648l20.166,17.541   c1.1035,0.96,2.5059,1.4727,3.9375,1.4727c0.459,0,0.9219-0.0527,1.3779-0.1602l29.667-7   c3.2246-0.7607,5.2227-3.9922,4.4619-7.2178c-0.7617-3.2246-3.998-5.2227-7.2178-4.4619l-26.6729,6.2939L66.8812,176.3354z"/><rect height="2.0097" transform="matrix(0.9612 -0.276 0.276 0.9612 -34.7662 50.6655)" width="1.9998" x="161.6193" y="147.8438"/><polygon points="168.0382,171.3418 168.6055,173.3057 170.5079,172.6904 169.96,170.791  "/><rect height="2.0097" transform="matrix(0.9612 -0.276 0.276 0.9612 -38.8597 52.4906)" width="1.9998" x="166.0568" y="163.2998"/><rect height="2.0106" transform="matrix(0.9612 -0.2757 0.2757 0.9612 -36.7848 51.524)" width="1.9995" x="163.8382" y="155.5713"/><path d="M172.3653,175.6143c-0.4297-0.3945-0.8066-0.8438-1.1211-1.3369l-1.6855,1.0762c0.4072,0.6387,0.8965,1.2227,1.4531,1.7334   L172.3653,175.6143z"/><rect height="2.0097" transform="matrix(0.9612 -0.276 0.276 0.9612 -39.8832 52.9472)" width="1.9998" x="167.1672" y="167.1641"/><rect height="2.0102" transform="matrix(0.9612 -0.276 0.276 0.9612 -37.8365 52.0343)" width="1.9994" x="164.9477" y="159.4361"/><rect height="2.0097" transform="matrix(0.9612 -0.276 0.276 0.9612 -35.7896 51.1217)" width="1.9998" x="162.7287" y="151.708"/><rect height="2" width="2.0098" x="181.2266" y="177.3799"/><rect height="2" width="2.0107" x="177.2061" y="177.3799"/><path d="M173.7921,176.6172l-0.9277,1.7715c0.6719,0.3516,1.3877,0.6143,2.126,0.7803l0.4395-1.9512   C174.8604,177.0898,174.3096,176.8877,173.7921,176.6172z"/><rect height="2.0106" transform="matrix(0.9612 -0.2759 0.2759 0.9612 -33.7301 50.183)" width="1.9992" x="160.5102" y="143.9795"/><rect height="0.9999" transform="matrix(0.961 -0.2764 0.2764 0.961 -32.8825 49.8877)" width="1.9998" x="159.5358" y="141.0948"/><path d="M190.2677,182.8799c2.4814,0,4.5-2.0186,4.5-4.5s-2.0186-4.5-4.5-4.5c-2.1367,0-3.922,1.5-4.3792,3.5h-0.6414v2h0.6414   C186.3457,181.3799,188.1309,182.8799,190.2677,182.8799z M192.7677,178.3799c0,1.3789-1.1211,2.5-2.5,2.5s-2.5-1.1211-2.5-2.5   s1.1211-2.5,2.5-2.5S192.7677,177.001,192.7677,178.3799z"/><path d="M119.2364,131.8799h175.5215L318.0118,0H142.4903L119.2364,131.8799z M316.8204,1l-22.9023,129.8799H120.4278L143.3302,1   H316.8204z"/><path d="M290.2979,126.4609l19.5918-111.1084H145.1993l-19.5918,111.1084H290.2979z M248.4161,113.2478   c-0.191,1.0833-1.2246,1.9619-2.3079,1.9619c-1.0835,0-1.8071-0.8787-1.6162-1.9619c0.1912-1.0835,1.2247-1.9622,2.3081-1.9622   C247.8834,111.2856,248.6071,112.1643,248.4161,113.2478z M247.1644,98.0924c0.1912-1.0839,1.2246-1.962,2.308-1.962   s1.8071,0.8782,1.6161,1.962c-0.1912,1.0834-1.2246,1.9615-2.3079,1.9615C247.6972,100.054,246.9733,99.1758,247.1644,98.0924z    M265.3775,124.9609c0.7292-4.8655,3.1746-11.114,5.9761-17.062l0.9271,17.062H265.3775z M146.4571,16.8525h161.6455   l-19.0625,108.1084h-3.3167l-1.7445-32.1194c-0.0968-1.7727-0.9357-3.2092-2.2128-4.0962   c0.0162-0.0256,0.0328-0.0527,0.0328-0.0527s-5.5082-4.5818-17.0184-6.7695l-4.9978,16.425l-6.8804-9.6057l8.4767-7.366   c-2.7749-0.3674-5.8358-0.5918-9.1998-0.5918c-3.3652,0-6.5042,0.2244-9.4098,0.5923l5.8793,7.3655l-10.2689,9.6057l0.7953-16.4246   c-9.0198,1.6068-15.2537,4.5001-17.9287,5.9268c-1.0642,0.4167-2.0847,1.0814-2.9557,1.9862l-15.5846,16.1984l-12.7065-16.1334   c-2.0502-2.6031-6.1837-2.6813-9.2301-0.1698c-3.0471,2.5101-3.8539,6.656-1.8031,9.2605l16.9709,21.5471   c1.0115,1.2836,2.5876,2.0039,4.3618,2.0039c0.1101,0,0.2208-0.0031,0.332-0.0085c1.908-0.0953,3.8257-1.005,5.2593-2.4941   l16.8013-17.4634c1.1866,7.3062,2.0012,16.0298,0.7146,22.3838h-96.0117L146.4571,16.8525z"/><polygon points="289.9155,4.8884 283.3038,4.8884 282.138,11.5001 288.7496,11.5001  "/><polygon points="299.8623,4.8884 293.2506,4.8884 292.0848,11.5001 298.6964,11.5001  "/><polygon points="309.8089,4.8884 303.1974,4.8884 302.0316,11.5001 308.6432,11.5001  "/><path d="M153.8389,64.0117c2.3828,0,2.9453-0.249,7.1055-0.2881c2.3682-0.0195,3.4404-0.8652,3.5693-1.5957   c0.1016-0.5762-0.3867-1.0762-1.291-1.0762c-0.7305,0-1.6133,0.2119-2.1387,0.25l-5.3311,0.4619   c-0.0088-0.0576,0.0049-0.1348,0.0186-0.2119c0.4063-2.3066,8.1445-3.8818,8.9883-8.668c0.4336-2.46-1.9063-3.3633-4.3486-3.3633   c-2.2881,0-4.6602,0.8066-4.8467,1.8643c-0.1045,0.5957,0.1064,0.9229,0.7607,0.9229c0.9033,0,2.3574-0.9424,3.7422-0.9424   c1.249,0,2.1426,0.7119,1.9707,1.6914c-0.583,3.3057-6.5908,4.2285-9.3271,8.8418c-0.1885,0.3066-0.3203,0.6143-0.374,0.9219   C152.1807,63.7041,152.5499,64.0117,153.8389,64.0117z"/><path d="M167.4854,59.2266c0.6348,0,1.4434,0,2.208,0.0186l-0.3184,1.8066c-0.1455,0.8271-0.1025,1.6719,0.7627,1.6719   c0.6729,0,1.1631-0.5957,1.2773-1.249l0.3936-2.2295c0.8652,0,1.9443-0.0186,2.667-0.0762   c0.5254-0.0391,0.9395-0.4229,1.0449-1.0186c0.0918-0.5195-0.1543-0.9805-0.6738-0.9805c-0.7881,0-1.708-0.0195-2.6504-0.0195   c0.1348-0.8643,0.3047-1.9404,0.3916-2.6523c0.0527-0.5186-0.2705-0.8643-0.8672-0.8643c-0.5186,0-1.0381,0.3262-1.1289,0.8457   l-0.5059,2.6514c-0.6699-0.0186-1.2852-0.0186-1.8047-0.0186c-0.8262,0-1.7061,0.1924-1.8594,1.0566   C166.3038,58.8418,166.8331,59.2266,167.4854,59.2266z"/><path d="M177.505,64.0117c2.3828,0,2.9453-0.249,7.1055-0.2881c2.3682-0.0195,3.4404-0.8652,3.5693-1.5957   c0.1016-0.5762-0.3867-1.0762-1.291-1.0762c-0.7305,0-1.6133,0.2119-2.1387,0.25l-5.3311,0.4619   c-0.0088-0.0576,0.0049-0.1348,0.0186-0.2119c0.4063-2.3066,8.1445-3.8818,8.9883-8.668c0.4336-2.46-1.9063-3.3633-4.3486-3.3633   c-2.2881,0-4.6602,0.8066-4.8467,1.8643c-0.1045,0.5957,0.1064,0.9229,0.7607,0.9229c0.9033,0,2.3574-0.9424,3.7422-0.9424   c1.249,0,2.1426,0.7119,1.9707,1.6914c-0.583,3.3057-6.5908,4.2285-9.3271,8.8418c-0.1885,0.3066-0.3203,0.6143-0.374,0.9219   C175.8468,63.7041,176.2159,64.0117,177.505,64.0117z"/><path d="M191.7003,56.1123c1.1152,0,2.1689,0.0195,3.1875,0.0195c0.8848,0,1.7725-0.0195,2.6475-0.0771   c0.5264-0.0381,0.9404-0.4219,1.0449-1.0186c0.0918-0.5186-0.1533-0.9805-0.6729-0.9805   c-1.9766-0.0186-3.6816-0.0566-5.4121-0.0566c-0.8262,0-1.7061,0.1914-1.8584,1.0566   C190.5177,55.7285,191.047,56.1123,191.7003,56.1123z"/><path d="M190.796,61.1289c1.1152,0,2.1699,0.0195,3.1895,0.0195c0.8828,0,1.7715-0.0195,2.6465-0.0771   c0.5254-0.0381,0.9404-0.4229,1.0449-1.0186c0.0918-0.5186-0.1543-0.9805-0.6738-0.9805   c-1.9756-0.0195-3.6807-0.0576-5.4111-0.0576c-0.8262,0-1.7061,0.1924-1.8584,1.0576   C189.6143,60.7451,190.1427,61.1289,190.796,61.1289z"/><path d="M199.8516,59.4951c0.8291,0.0957,1.4209,0.1152,2.0361,0.1152c1.9229,0,3.332,0.0771,4.5459,0.1729   c-0.1943,0.8848-0.3691,1.7686-0.5186,2.6143c-0.1563,0.8838-0.3301,1.9795,0.9961,1.9795c0.9238,0,1.1299-0.8457,1.2051-1.2686   c0.0811-0.4609,0.2393-1.249,0.5869-3.1133c0.8164,0.0576,1.6553,0.0967,2.6357,0.0967c0.5771,0,1.0645-0.25,1.1826-0.9229   c0.21-1.1924-0.875-1.3652-1.8359-1.3652c-0.5,0-1,0-1.5156-0.0186c0.3818-1.7305,0.9141-4.0938,1.666-7.3809   c0.1465-0.8262-0.5439-1.0566-1.3701-1.0566c-0.6348,0-1.2168,0.25-1.8174,0.7109c-2.8545,2.2295-4.7051,3.7861-7.7617,6.7266   c-0.4131,0.3848-0.7002,0.8076-0.7842,1.2881C198.9903,58.707,199.1534,59.4189,199.8516,59.4951z M202.3761,57.1699   c0.0605-0.3457,5.1338-4.6895,5.3652-4.6895c0.1152,0,0.2168,0.0771,0.1797,0.2881c-0.2949,1.6719-0.6641,3.3252-1.0293,4.958   c-1.4307-0.0566-2.8633-0.1143-4.209-0.1143C202.3751,57.6123,202.3389,57.3809,202.3761,57.1699z"/><path d="M249.0539,41.0767c3.5333,0,6.1346,2.2503,6.7142,5.3926h4.3992c1.6865-3.1423,5.0825-5.3926,8.6149-5.3926   c3.5333,0,6.1346,2.2503,6.7142,5.3926h2.9528c-1.6779-8.1457-8.5228-13.9407-17.7621-13.9407   c-9.2404,0-18.1289,5.795-22.6785,13.9407h2.4304C242.1257,43.327,245.5216,41.0767,249.0539,41.0767z"/><path d="M253.0477,75.854c11.9639,0,23.3728-9.6987,25.4824-21.6626c0.3181-1.8047,0.3805-3.5476,0.2598-5.2234h-3.2579   c-0.0126,0.0881-0.017,0.1742-0.0326,0.2632c-0.7942,4.5037-5.0883,8.1541-9.5928,8.1541c-4.5035,0-7.5104-3.6504-6.7163-8.1541   c0.0157-0.089,0.0417-0.175,0.0603-0.2632h-3.4468c-0.0127,0.0881-0.0171,0.1742-0.0327,0.2632   c-0.7941,4.5037-5.0883,8.1541-9.5928,8.1541c-4.5035,0-7.5103-3.6504-6.7163-8.1541c0.0157-0.089,0.0417-0.175,0.0603-0.2632   h-2.7365c-0.7107,1.6758-1.2631,3.4187-1.5812,5.2234C233.095,66.1553,241.0838,75.854,253.0477,75.854z M268.353,61.8252   c-3.4193,4.3074-8.678,7.1935-14.1001,7.1935c-5.423,0-9.6639-2.8861-11.5634-7.1935H268.353z"/><path d="M261.1632,49.2312c-0.6021,3.4143,1.678,6.1812,5.0913,6.1812c3.4143,0,6.6699-2.7668,7.272-6.1812   c0.6021-3.4138-1.6777-6.1816-5.092-6.1816C265.0211,43.0496,261.7651,45.8174,261.1632,49.2312z"/><path d="M241.4349,49.2312c-0.6021,3.4143,1.678,6.1812,5.0913,6.1812c3.4143,0,6.6699-2.7668,7.272-6.1812   c0.6021-3.4138-1.6777-6.1816-5.092-6.1816C245.2928,43.0496,242.0368,45.8174,241.4349,49.2312z"/></g></svg>