<?xml version="1.0" ?><svg viewBox="0 0 512 512" xmlns="http://www.w3.org/2000/svg"><g id="solid"><path d="M488,12H256a3.99,3.99,0,0,0-1.216.189l-232,74A3.952,3.952,0,0,0,20.008,90H20V467a4,4,0,0,0,1.366,3.011l24,21a3.862,3.862,0,0,0,3.8.791l.007.021L116,471.265V496a4,4,0,0,0,5.871,3.535L164,477.233V496a4,4,0,0,0,6.533,3.1l86.9-71.1H320.6l-4.592,59.693A4,4,0,0,0,320,492h56a4,4,0,0,0,4-3.829L381.89,444H388v44a4,4,0,0,0,4,4h56.1a4,4,0,0,0,4-4V428H488a4,4,0,0,0,4-4V16A4,4,0,0,0,488,12ZM117.972,116.553A4,4,0,0,0,116,120v13.117L70.735,148.205a4,4,0,1,0,2.53,7.59L116,141.55v15.567L70.735,172.205a4,4,0,1,0,2.53,7.59L116,165.55v15.567L70.735,196.205a4,4,0,1,0,2.53,7.59L116,189.55v15.567L70.735,220.205a4,4,0,1,0,2.53,7.59L116,213.55v15.567L70.735,244.205a4,4,0,1,0,2.53,7.59L116,237.55v31.567l-21.265,7.088a4,4,0,1,0,2.53,7.59L116,277.55v15.567L70.735,308.205a4,4,0,1,0,2.53,7.59L116,301.55v15.567L70.735,332.205a4,4,0,1,0,2.53,7.59L116,325.55v15.567L70.735,356.205a4,4,0,1,0,2.53,7.59L116,349.55v15.567L70.735,380.205a4,4,0,1,0,2.53,7.59L116,373.55v15.567L70.735,404.205a4,4,0,1,0,2.53,7.59L116,397.55V462.9L52,482.584V114.849L219.345,56.921Zm47.338.487A4,4,0,0,0,164,120V297.482L128.242,359.7a4,4,0,0,0,1.476,5.462l24.91,14.31a4,4,0,0,0,5.46-1.476L164,371.185v97l-40,21.174V122.288L224.689,63.059ZM414.8,157.266a29.982,29.982,0,0,0-24.724-13.156l-20.339-.06h-.069a21.1,21.1,0,0,0-13.1,37.651V188H340.776A80.617,80.617,0,0,0,276,72.79V68H468V188H416.749l1.137-2.884A30,30,0,0,0,414.8,157.266ZM388.564,220h-10a14.016,14.016,0,0,1-14-14V185.634a21.34,21.34,0,0,0,2.124.426l9.876,1.41v3.56a22.489,22.489,0,0,0,.131,2.4v.014a4,4,0,0,0,6.672,2.532l.409.008c.284.008.55.015.787.015a4,4,0,0,1,4,4,3.943,3.943,0,0,1-1.583,3.182,4,4,0,0,0,.381,6.649,21.309,21.309,0,0,0,13.2,2.832V236h-16v-8h4a4,4,0,1,0,0-8ZM225.336,267.737l-1.189-1.219,2.721-4.735a4,4,0,0,0-1.474-5.461l-.682-.391,15.667-27.263A79.9,79.9,0,0,0,252,231.97v87.872l-26.277-33.7,1.976-4.161A12.683,12.683,0,0,0,225.336,267.737ZM221.858,126.4A53.216,53.216,0,0,1,252,102.14V203.959a53.872,53.872,0,0,1-10.434-4.6A53.444,53.444,0,0,1,221.858,126.4ZM272,196h27.987A53.608,53.608,0,0,1,260,205.848V100.263a53.582,53.582,0,0,1,8-.662V192A4,4,0,0,0,272,196Zm4-8V100.16a53.43,53.43,0,0,1,38.532,79.493A53.912,53.912,0,0,1,308.616,188Zm-58.223,63.943-9.666-5.554,15.1-26.268,9.666,5.555ZM260,233.19A80.721,80.721,0,0,0,336.364,196h20.2v10a22.028,22.028,0,0,0,20,21.905V236H333.142a34.071,34.071,0,0,0-32.019,22.564l-12.89,36.09L270.681,343.8,260,330.1Zm-8-159.1c-1.61.333-3.218.7-4.819,1.13a80.579,80.579,0,0,0-30.329,139.9L201.174,242.4l-.681-.391a4,4,0,0,0-5.461,1.474l-4.111,7.155c-.073,0-.144,0-.217,0a11.961,11.961,0,0,0-9.679,6.085L172,272.75V121.77l80-72.728ZM252,422.1l-80,65.455v-130.3l19.138-33.3,49.831,63.486A43.7,43.7,0,0,0,252,397.425Zm72-38.258L321.219,420H260V401.375a43.619,43.619,0,0,0,56.693-27.361L324,351.543ZM309.086,371.54a35.58,35.58,0,0,1-61.824,10.965l-72.813-92.767a3.99,3.99,0,0,1-.339-4.434L188,260.654a3.935,3.935,0,0,1,3.226-2.028,3.887,3.887,0,0,1,3.462,1.594l15.072,20.138a4,4,0,0,0,6.67-.4l3.559-6.193a4.652,4.652,0,0,1,.489,4.783l-3.036,6.391a4,4,0,0,0,.458,4.176l50.95,65.348a4,4,0,0,0,6.921-1.114l18.549-51.939L327.146,316ZM448.1,268a4,4,0,0,0-4,4v31.138a3.8,3.8,0,0,0,0,1.724V380H332V326.94l11.158-34.315a4,4,0,1,0-7.607-2.475l-5.918,18.2-32.618-14.5,11.641-32.6A26.057,26.057,0,0,1,333.142,244H432a36.04,36.04,0,0,1,36,36v20H452.1V272A4,4,0,0,0,448.1,268ZM468,308v62a26.109,26.109,0,0,1-15.9,23.947V308Zm16,112H452.1V402.468A34.139,34.139,0,0,0,476,370V280a44.049,44.049,0,0,0-44-44H408.564V208.761L413.6,196H472a4,4,0,0,0,4-4V64a4,4,0,0,0-4-4H272a4,4,0,0,0-4,4v8.419q-4,.017-8,.432V44H484Z"/><path d="M460,80a4,4,0,0,0-4-4H328a4,4,0,0,0,0,8H456A4,4,0,0,0,460,80Z"/><path d="M404,96a4,4,0,0,0-4-4H344a4,4,0,0,0,0,8h56A4,4,0,0,0,404,96Z"/><path d="M456,92H416a4,4,0,0,0,0,8h40a4,4,0,0,0,0-8Z"/><path d="M352,108a4,4,0,0,0,0,8h40a4,4,0,0,0,0-8Z"/><path d="M456,108H408a4,4,0,0,0,0,8h48a4,4,0,0,0,0-8Z"/><path d="M460,128a4,4,0,0,0-4-4H352a4,4,0,0,0,0,8H456A4,4,0,0,0,460,128Z"/></g></svg>