<?xml version="1.0" ?><svg enable-background="new 0 0 164.8943 326.6125" id="Layer_1" version="1.1" viewBox="0 0 164.8943 326.6125" xml:space="preserve" xmlns="http://www.w3.org/2000/svg" xmlns:xlink="http://www.w3.org/1999/xlink"><g><path d="M94.9705,140.1315l25.3208,12.1104c1.1021,0.5273,2.2803,0.7832,3.4492,0.7832c2.0923,0,4.1538-0.8203,5.6914-2.375   l10.1752-10.2911c1.6629,8.1875,3.6603,17.8776,4.546,27.6771l-0.1906,2.3053l-0.0469,0.5675l-24.5215,35.0537   c-2.5327,3.6206-1.6509,8.6084,1.9692,11.1411c1.396,0.9766,2.9956,1.4453,4.5791,1.4453c2.523,0,5.0059-1.1904,6.562-3.4146   l13.4465-19.2218v-83.1532c-0.5115,0.2537-1.002,0.5442-1.4688,0.8721c-0.9987,0.3958-1.9346,0.9958-2.7383,1.8086l-19.686,19.9111   l-15.6357-7.4785v-2.4434c0-4.418-3.5815-8-8-8c-2.4708,0-4.6784,1.1213-6.1459,2.8813c0.8085,1.5303,1.2714,3.2705,1.2714,5.1184   v7.4858c0,1.8092-0.4557,3.559-1.274,5.1119C92.9982,138.8984,93.909,139.6239,94.9705,140.1315z"/><path d="M109.6194,87.7198c0,12.4267,10.0723,22.5,22.5,22.5c5.2169,0,10.0153-1.7805,13.8316-4.7604V69.9802   c-3.8163-2.9799-8.6147-4.7604-13.8316-4.7604C119.6917,65.2198,109.6194,75.293,109.6194,87.7198z"/><path d="M134.3304,233.3395l4.5,57.7002c0.3609,4.6301,3.2056,8.4634,7.1206,10.3199V199.9248l-6.5791,9.4047l-4.7471,20.175   C134.3294,230.7604,134.2298,232.0543,134.3304,233.3395z"/><polygon points="94.138,90.8758 85.2611,75.2792 84.7494,76.7468 93.5397,92.3831  "/><polygon points="96.8741,83.9813 87.596,68.581 87.0624,70.1119 96.2477,85.5593  "/><polygon points="101.0115,96.8984 82.0882,64.5772 81.6073,66.05 100.3438,98.4604  "/><path d="M65.6205,106.9053v21.9121l2.6289-1.2572v-23.3167C67.4388,105.1937,66.5602,106.0829,65.6205,106.9053z"/><path d="M65.6205,53.8638v14.671c0.9397,0.8224,1.8184,1.7116,2.6289,2.6618V59.2773l81.0014-43.6548v295.3748l-81.0014-43.6572   V151.947l-2.6289,1.2573v119.5449l0.5293,0.4248l88.7446,53.2778v0.1606h10V0h-10v0.1602L66.1498,53.439L65.6205,53.8638z"/><polygon points="85.2355,215.4457 94.0258,231.0822 94.6241,229.5748 85.7472,213.9781  "/><polygon points="97.3601,222.6803 88.0821,207.2799 87.5484,208.8109 96.7338,224.2584  "/><polygon points="100.8299,237.1594 101.4975,235.5974 82.5743,203.2762 82.0934,204.749  "/><circle cx="48.8504" cy="87.7198" r="22.5"/><path d="M20.8193,179.6271c-1.0435-1.4917-1.6748-3.2402-1.8247-5.0557l-3.3437-40.4561   c-0.2271-2.7417,0.6274-5.4077,2.4062-7.5068s4.2681-3.3799,7.0098-3.6064c0.2881-0.0239,0.5752-0.0356,0.8594-0.0356   c5.312,0,9.8164,4.1514,10.2539,9.4517l2.0352,24.6174c0.7336-4.5798,1.5974-9.0061,2.4301-13.1353   c0.2441-1.2104,0.483-2.3877,0.7173-3.5417l10.1752,10.2913c1.5371,1.5552,3.5986,2.3755,5.6904,2.3755   c1.1689,0,2.3477-0.2559,3.4502-0.7827l25.3213-12.1104c2.7783-1.3296,4.5479-4.1367,4.5479-7.2173v-7.4858c0-4.4185-3.582-8-8-8   s-8,3.5815-8,8v2.4443l-15.6357,7.478l-19.6865-19.9102c-0.803-0.8126-1.7382-1.4126-2.7361-1.8083   c-1.0977-0.7716-2.3201-1.3479-3.6609-1.6819c-1.461-0.3644-3.0358-0.5253-4.6656-0.4771   c-7.8935,0.2334-17.1082,5.4907-21.2817,17.6273c-6.8047,20.174-8.2676,33.3047-5.6816,55.5197   c1.9562,10.0667,7.0029,14.4854,12.7505,16.355l7.6142,32.3606l-4.3491,55.7598c-0.5366,6.8828,4.6079,12.8975,11.4907,13.4336   c0.3306,0.0264,0.6587,0.0391,0.9854,0.0391c6.4619-0.001,11.9375-4.9775,12.4487-11.5293l4.5-57.7002   c0.1001-1.2852,0.0005-2.5791-0.2949-3.835l-4.7467-20.1743L20.8193,179.6271z"/><path d="M61.5757,205.9625l-24.5215-35.0537l-3.166-38.3013c-0.3638-4.4028-4.2261-7.6787-8.6318-7.3135   c-4.4028,0.3638-7.6777,4.2285-7.3135,8.6318l3.3438,40.4561c0.1167,1.4111,0.6055,2.7661,1.4175,3.9268l25.7612,36.8257   c1.5562,2.2241,4.0391,3.4146,6.562,3.4146c1.5835,0,3.1831-0.4688,4.5791-1.4453   C63.2265,214.5709,64.1084,209.5831,61.5757,205.9625z"/></g></svg>