<?xml version="1.0" ?><svg enable-background="new 0 0 285.9362 326.6125" id="Layer_1" version="1.1" viewBox="0 0 285.9362 326.6125" xml:space="preserve" xmlns="http://www.w3.org/2000/svg" xmlns:xlink="http://www.w3.org/1999/xlink"><g><path d="M236.9506,111.7017c-13.3964-4.1642-44.5967-16.8127-41.7358-52.1328l-2.6238,1.3662v45.0029   c4.9646,4.9719,10.7009,8.6294,16.3176,11.4609c-2.0022,7.7832-13.4907,54.0582-16.3176,101.1243v38.0549   c0.2388,3.254,0.5509,6.4561,0.9414,9.5945l28.4292,14.8047c-6.5496-21.0979-5.9829-50.8442-2.9656-78.8635   c3.2793-0.3215,6.7603-0.7408,10.1992-1.2329c2.5117,30.2571,11.4263,65.0522,34.9165,94.2612   c0.8392,1.0435,1.8193,1.9023,2.8811,2.6006v-45.8383c-23.7775-54.0878-8.9789-117.0675-8.7981-117.8097   c0.0601-0.2474,0.0967-0.4946,0.1411-0.7419c2.7949,0.2729,5.666,0.4304,8.5796,0.4304c0.0256,0,0.0516-0.0009,0.0774-0.0009   v-16.2216C256.2331,117.3179,245.4833,114.354,236.9506,111.7017z M220.9413,144.3896l11.4709,19.0403l-0.7744,1.951   l-11.3563-19.0985L220.9413,144.3896z M228.2899,173.8176l-10.868-19.3322l0.6327-1.8145l10.975,19.283L228.2899,173.8176z    M236.7022,181.3313l-23.165-40.0708l0.5946-1.8208l23.3958,39.9604L236.7022,181.3313z"/><polygon points="249.3875,37.1137 258.1779,52.7501 258.7761,51.2427 249.8991,35.6462  "/><polygon points="260.8859,45.9263 261.5121,44.3483 252.6603,29.6556 251.8383,30.0837 251.7005,30.4789  "/><polygon points="265.6496,57.2654 250.2267,30.9229 249.1688,31.4738 264.982,58.8274  "/><path d="M251.0257,64.1603c-12.2103-2.281-23.9624,5.7686-26.245,17.9804s5.7666,23.9625,17.9788,26.2441   c10.0854,1.8861,19.8508-3.2793,24.2334-12.0131V76.1807C263.9448,70.1219,258.2062,65.5036,251.0257,64.1603z M254.1833,95.9001   c-0.9922,3.9268-7.2948,5.7197-14.078,4.0049c-6.7811-1.7158-11.4746-6.289-10.4824-10.2158   c0.9941-3.9258,5.4979,1.3916,12.2811,3.1065C248.6854,94.5105,255.1776,91.9734,254.1833,95.9001z"/><path d="M142.4457,46.4551c-0.9893-4.3052-5.2783-6.9897-9.5898-6.0024c-4.3057,0.9907-6.9932,5.2847-6.0019,9.5903   c9.8086,42.6304-25.6951,57.1399-40.2324,61.6587c-14.5372,4.5188-35.5098,9.9531-52.0029,1.2681   c-9.9141-5.2217-16.2207-14.9434-18.7451-28.8945c-0.7861-4.3477-4.9434-7.2383-9.2969-6.4478   c-4.3477,0.7866-7.2344,4.9487-6.4473,9.2964c3.4463,19.0435,12.541,32.5693,27.0332,40.2021   c9.2832,4.8892,19.6172,6.6572,29.4941,6.6572c2.9136,0,5.7847-0.1575,8.5796-0.4304c0.0444,0.2473,0.0811,0.4945,0.1411,0.7419   c0.2129,0.874,20.707,88.0488-25.3994,145.3804c-4.3262,5.3794-3.4717,13.248,1.9072,17.5742   c2.3096,1.8574,5.0771,2.7598,7.8262,2.7598c3.6553,0,7.2793-1.5962,9.749-4.667c23.4902-29.209,32.4048-64.0042,34.9165-94.2612   c3.439,0.4921,6.9199,0.9114,10.1992,1.2329c3.1978,29.6951,3.647,61.3346-4.2144,82.5581   c-2.3984,6.4736,0.9062,13.6655,7.3799,16.0635c1.4316,0.5303,2.8984,0.7817,4.3398,0.7817c5.0801,0,9.8564-3.1196,11.7236-8.1616   c20.7148-55.9236-5.9878-163.6962-9.1416-175.9565C132.9443,108.1831,152.5292,90.2767,142.4457,46.4551z"/><path d="M80.8127,108.3849c12.2123-2.2816,20.2614-14.0323,17.9788-26.2441C96.509,69.929,84.7569,61.8793,72.5465,64.1603   c-12.2111,2.2843-20.2614,14.0344-17.9788,26.2462C56.8493,102.6189,68.6005,110.6688,80.8127,108.3849z M69.3889,95.9001   c-0.9943-3.9268,5.4979-1.3896,12.2793-3.1044c6.7832-1.7149,11.2871-7.0323,12.2811-3.1065   c0.9923,3.9268-3.7012,8.5-10.4823,10.2158C76.6838,101.6199,70.3811,99.8269,69.3889,95.9001z"/><polygon points="62.0615,58.0696 34.7101,20.5575 30.5373,22.3663 60.1518,58.9986  "/><polygon points="70.5571,56.7279 66.5578,10.4747 62.0495,9.8639 68.4423,56.5352  "/><polygon points="9.3884,47.7293 52.3622,67.0237 53.645,65.3335 12.2949,44.2285  "/><path d="M187.1916,53.439l-0.5293,0.4248v218.8855l0.5293,0.4248l88.7446,53.2778v0.1606h10V0h-10v0.1602L187.1916,53.439z    M270.2927,310.9973l-81.0015-43.6572V59.2773l81.0015-43.6548V310.9973z"/></g></svg>