<?xml version="1.0" ?><svg enable-background="new 0 0 512 512" id="Layer_2" version="1.1" viewBox="0 0 512 512" xml:space="preserve" xmlns="http://www.w3.org/2000/svg" xmlns:xlink="http://www.w3.org/1999/xlink"><g><g><line fill="none" stroke="#474747" stroke-linecap="round" stroke-linejoin="round" stroke-miterlimit="10" stroke-width="15" x1="211.127" x2="119.224" y1="245.576" y2="119.045"/><path d="    M319.448,269.286l84.603,116.481c11.921,16.498,8.21,39.536-8.289,51.457l0,0c-16.498,11.921-39.536,8.21-51.457-8.288    l-52.443-72.202" fill="none" stroke="#474747" stroke-linecap="round" stroke-linejoin="round" stroke-miterlimit="10" stroke-width="15"/><line fill="none" stroke="#474747" stroke-linecap="round" stroke-linejoin="round" stroke-miterlimit="10" stroke-width="15" x1="178.97" x2="245.109" y1="75.877" y2="166.937"/><rect fill="none" height="40.615" stroke="#474747" stroke-linecap="round" stroke-linejoin="round" stroke-miterlimit="10" stroke-width="15" transform="matrix(0.8106 -0.5857 0.5857 0.8106 -14.4262 85.9208)" width="121.259" x="64.969" y="44.952"/></g><path d="   M168.155,341.583l92.11-156.972c9.434-13.208,27.142-17.473,41.554-10.009l0,0c15.144,7.842,21.693,26.024,15.03,41.722   l-48.495,134.537l-7.405,48.419c-3.068,20.059-10.421,39.221-21.56,56.182l-23.917,40.131" fill="none" stroke="#474747" stroke-linecap="round" stroke-linejoin="round" stroke-miterlimit="10" stroke-width="15"/><path d="   M202.082,107.698l7.954-8.148c6.369-6.524,15.351-9.81,24.427-8.936l139.908,13.482c6.089,0.467,10.209,6.415,8.506,12.28l0,0   c-7.852,27.045-33.264,45.146-61.39,43.728l-80.967-3.147" fill="none" stroke="#474747" stroke-linecap="round" stroke-linejoin="round" stroke-miterlimit="10" stroke-width="15"/><path d="   M85.583,495.592L69.802,270.559c-1.174-16.194,4.646-32.115,15.988-43.733l46.262-47.391" fill="none" stroke="#474747" stroke-linecap="round" stroke-linejoin="round" stroke-miterlimit="10" stroke-width="15"/><path d="   M337.936,159.741l83.125,29.097c5.353,1.872,8.211,7.695,6.418,13.075v0c-7.998,23.993-33.713,37.185-57.866,29.687l-51.16-16.192" fill="none" stroke="#474747" stroke-linecap="round" stroke-linejoin="round" stroke-miterlimit="10" stroke-width="15"/><path d="   M359.275,228.395l75.309,27.686c4.738,1.695,7.576,6.545,6.734,11.506v0c-3.686,21.706-25.35,35.449-46.557,29.536l-64.246-16.773" fill="none" stroke="#474747" stroke-linecap="round" stroke-linejoin="round" stroke-miterlimit="10" stroke-width="15"/><path d="   M361.548,288.236l78.062,40.042c5.387,2.763,7.616,9.298,5.041,14.778l0,0c-9.067,19.291-32.09,27.532-51.339,18.377l-9.915-4.078" fill="none" stroke="#474747" stroke-linecap="round" stroke-linejoin="round" stroke-miterlimit="10" stroke-width="15"/><line fill="none" stroke="#474747" stroke-linecap="round" stroke-linejoin="round" stroke-miterlimit="10" stroke-width="15" x1="164.444" x2="215.471" y1="280.35" y2="251.59"/><path d="   M315.22,427.143c0,0,3.327,42.472-31,68.449" fill="none" stroke="#474747" stroke-linecap="round" stroke-linejoin="round" stroke-miterlimit="10" stroke-width="15"/><polyline fill="none" points="   212.04,125.328 185.22,146.143 223.22,197.143  " stroke="#474747" stroke-linecap="round" stroke-linejoin="round" stroke-miterlimit="10" stroke-width="15"/><polyline fill="none" points="   304.22,316.143 348.22,377.143 379.517,353.987  " stroke="#474747" stroke-linecap="round" stroke-linejoin="round" stroke-miterlimit="10" stroke-width="15"/></g></svg>