<?xml version="1.0" ?><svg height="56px" version="1.1" viewBox="0 0 60 56" width="60px" xmlns="http://www.w3.org/2000/svg" xmlns:sketch="http://www.bohemiancoding.com/sketch/ns" xmlns:xlink="http://www.w3.org/1999/xlink"><title/><desc/><defs/><g fill="none" fill-rule="evenodd" id="Education" stroke="none" stroke-width="1"><g fill="#000000" id="Icon-18" transform="translate(0.000000, -4.000000)"><path d="M59,18.99975 C58.447,18.99975 58,19.44775 58,19.99975 L58,20.32975 L46,25.26875 L46,23.46175 L59.382,17.92375 C59.756,17.76975 60,17.40475 60,16.99975 C60,16.59475 59.756,16.23075 59.383,16.07575 L30.382,4.07575 C30.137,3.97475 29.863,3.97475 29.618,4.07575 L0.618,16.07575 C0.244,16.23075 0,16.59475 0,16.99975 C0,17.40475 0.244,17.76975 0.618,17.92375 L29.618,29.92375 C29.74,29.97475 29.87,29.99975 30,29.99975 C30.13,29.99975 30.26,29.97475 30.382,29.92375 L40.868,25.58475 C41.379,25.37475 41.621,24.78975 41.41,24.27875 C41.199,23.76875 40.614,23.52775 40.104,23.73775 L30,27.91775 L3.615,16.99975 L30,6.08175 L56.385,16.99975 L44.904,21.75075 L33.907,17.64475 C33.965,17.43675 34,17.22275 34,16.99975 C34,15.31775 32.243,13.99975 30,13.99975 C27.757,13.99975 26,15.31775 26,16.99975 C26,18.68175 27.757,19.99975 30,19.99975 C31.001,19.99975 31.894,19.72675 32.588,19.28675 L44,23.54775 L44,26.75175 L44,26.75275 L44,48.18375 C42.839,48.59875 42,49.69775 42,50.99975 C42,52.65375 43.346,53.99975 45,53.99975 C46.654,53.99975 48,52.65375 48,50.99975 C48,49.69775 47.161,48.59875 46,48.18375 L46,42.50775 C48.871,40.34075 49.9,37.45475 49.945,37.32675 C49.981,37.22175 50,37.11075 50,36.99975 L50,29.99975 C50,29.44775 49.553,28.99975 49,28.99975 C48.447,28.99975 48,29.44775 48,29.99975 L48,36.81475 C47.827,37.23875 47.226,38.54575 46,39.83575 L46,27.43175 L59.381,21.92475 C59.756,21.77075 60,21.40475 60,20.99975 L60,19.99975 C60,19.44775 59.553,18.99975 59,18.99975 L59,18.99975 Z M28,16.99975 C28,16.59175 28.779,15.99975 30,15.99975 C31.221,15.99975 32,16.59175 32,16.99975 C32,17.40775 31.221,17.99975 30,17.99975 C28.779,17.99975 28,17.40775 28,16.99975 L28,16.99975 Z M45,51.99975 C44.448,51.99975 44,51.55075 44,50.99975 C44,50.44875 44.448,49.99975 45,49.99975 C45.552,49.99975 46,50.44875 46,50.99975 C46,51.55075 45.552,51.99975 45,51.99975 L45,51.99975 Z M29.618,33.92375 L0.618,21.92375 C0.244,21.76975 0,21.40475 0,20.99975 L0,19.99975 C0,19.44775 0.448,18.99975 1,18.99975 C1.552,18.99975 2,19.44775 2,19.99975 L2,20.33175 L30,31.91775 L40.616,27.52375 C41.125,27.31475 41.712,27.55475 41.923,28.06575 C42.134,28.57575 41.892,29.16075 41.382,29.37175 L30.382,33.92375 C30.26,33.97475 30.13,33.99975 30,33.99975 C29.87,33.99975 29.74,33.97475 29.618,33.92375 L29.618,33.92375 Z M41.443,45.58375 C39.213,46.68575 35.417,47.99975 30,47.99975 C14.501,47.99975 10.245,37.80475 10.071,37.37175 C10.024,37.25275 10,37.12675 10,36.99975 L10,29.99975 C10,29.44775 10.448,28.99975 11,28.99975 C11.552,28.99975 12,29.44775 12,29.99975 L12,36.79175 C12.576,38.04375 16.583,45.56575 29,45.96175 L29,36.99975 C29,36.44775 29.448,35.99975 30,35.99975 C30.552,35.99975 31,36.44775 31,36.99975 L31,45.97075 C35.486,45.82175 38.658,44.72975 40.557,43.79075 C41.054,43.54575 41.652,43.74975 41.896,44.24475 C42.142,44.73975 41.939,45.33875 41.443,45.58375 L41.443,45.58375 Z M46,55.99975 L46,58.99975 C46,59.55175 45.553,59.99975 45,59.99975 C44.447,59.99975 44,59.55175 44,58.99975 L44,55.99975 C44,55.44775 44.447,54.99975 45,54.99975 C45.553,54.99975 46,55.44775 46,55.99975 L46,55.99975 Z M42.97,55.24275 L41.97,59.24275 C41.856,59.69675 41.449,59.99975 41.001,59.99975 C40.921,59.99975 40.839,59.99075 40.758,59.96975 C40.222,59.83575 39.895,59.29375 40.03,58.75675 L41.03,54.75675 C41.163,54.22175 41.706,53.89375 42.242,54.02975 C42.778,54.16375 43.104,54.70675 42.97,55.24275 L42.97,55.24275 Z M49.97,58.75675 C50.104,59.29375 49.778,59.83575 49.242,59.96975 C49.161,59.99075 49.079,59.99975 48.999,59.99975 C48.551,59.99975 48.144,59.69675 48.03,59.24275 L47.03,55.24275 C46.896,54.70675 47.222,54.16375 47.758,54.02975 C48.292,53.89475 48.836,54.22175 48.97,54.75675 L49.97,58.75675 L49.97,58.75675 Z" id="graduation-hat"/></g></g></svg>